<svg width="24" height="24" viewBox="0 0 24 24" fill="none" xmlns="http://www.w3.org/2000/svg">
<rect width="24" height="24" rx="12" fill="white"/>
<path fill-rule="evenodd" clip-rule="evenodd" d="M11.7623 4.59526C11.7623 4.2604 11.4848 3.98953 11.1517 4.02454C7.12126 4.44823 3.98016 7.8573 3.98016 12C3.98016 16.1427 7.12126 19.5518 11.1517 19.9755C11.4848 20.0105 11.7623 19.7396 11.7623 19.4048V16.6533C11.7623 16.3384 11.515 16.0828 11.2059 16.0222C9.32212 15.6524 7.90096 13.9922 7.90096 12C7.90096 10.0079 9.32212 8.34762 11.2059 7.97785C11.515 7.9172 11.7623 7.66162 11.7623 7.3467V4.59526Z" fill="#EC4236"/>
<path fill-rule="evenodd" clip-rule="evenodd" d="M12.2376 16.6155C12.2376 16.3005 12.485 16.045 12.794 15.9843C14.4876 15.6519 15.8073 14.2763 16.0565 12.5543C16.1035 12.2296 16.3649 11.9622 16.693 11.9622H19.4257C19.7538 11.9622 20.022 12.229 19.9981 12.5562C19.7147 16.4268 16.6842 19.5344 12.8482 19.9376C12.5152 19.9726 12.2376 19.7018 12.2376 19.3669V16.6155Z" fill="#FFE3BE"/>
<path fill-rule="evenodd" clip-rule="evenodd" d="M16.1291 11.6412C16.1609 11.9018 15.9452 12.1155 15.6827 12.1155H12.2376C11.9751 12.1155 11.7623 11.9027 11.7623 11.6402V8.3207C11.7623 8.05823 11.9759 7.84275 12.2367 7.87236C14.206 8.09591 15.891 9.68598 16.1291 11.6412Z" fill="#2A517E"/>
<path d="M19.6145 4.03955H16.3456C15.9413 4.03955 15.7604 4.81657 16.0963 5.04162C16.6017 5.38021 17.1226 5.78192 17.6541 6.23757C18.1977 6.70345 18.6284 7.21443 18.9759 7.7607C19.1971 8.10848 19.971 7.95668 19.971 7.5445V4.39599C19.971 4.19913 19.8114 4.03955 19.6145 4.03955Z" fill="#EEAF02"/>
</svg>
