<svg width="24" height="24" viewBox="0 0 24 24" fill="none" xmlns="http://www.w3.org/2000/svg">
<circle cx="12" cy="12" r="12" fill="white"/>
<path d="M18.5043 8.02522H16.3903C16.2684 8.0251 16.1478 7.99895 16.0367 7.94853C15.9257 7.89811 15.8266 7.82456 15.7463 7.73282L14.8888 6.76473C14.8254 6.69381 14.7478 6.63708 14.661 6.59823C14.5742 6.55939 14.4801 6.53931 14.385 6.53931C14.2899 6.53931 14.1959 6.55939 14.109 6.59823C14.0222 6.63708 13.9446 6.69381 13.8812 6.76473L13.1462 7.59452C13.0278 7.72954 12.882 7.83779 12.7185 7.91205C12.555 7.98632 12.3775 8.02489 12.1979 8.02522H0.628268C0.294701 8.98126 0.0835983 9.9757 0 10.9848H10.9216C11.0162 10.9847 11.1099 10.9654 11.1968 10.928C11.2837 10.8906 11.3622 10.836 11.4274 10.7675L12.4469 9.70456C12.5099 9.63946 12.5855 9.58772 12.669 9.55242C12.7525 9.51712 12.8422 9.49898 12.9329 9.49909H12.9724C13.0677 9.49952 13.1619 9.51977 13.2489 9.55854C13.336 9.59731 13.4141 9.65377 13.4782 9.72432L14.3356 10.6924C14.4158 10.7843 14.5148 10.858 14.6259 10.9085C14.737 10.9589 14.8577 10.9849 14.9797 10.9848H23.8901C23.8083 9.97543 23.5972 8.98075 23.2618 8.02522H18.5201H18.5043Z" fill="#1C1E21"/>
<path d="M6.60657 17.2083C6.70112 17.2077 6.7946 17.1882 6.88147 17.1508C6.96834 17.1135 7.04685 17.0591 7.11235 16.9909L8.12785 15.928C8.19134 15.8635 8.26696 15.8121 8.35037 15.7768C8.43377 15.7415 8.52332 15.7231 8.61387 15.7226H8.65734C8.75265 15.723 8.84683 15.7432 8.9339 15.782C9.02097 15.8208 9.09902 15.8772 9.16311 15.9478L10.0166 16.9159C10.0973 17.0072 10.1964 17.0805 10.3074 17.1309C10.4184 17.1813 10.5388 17.2076 10.6607 17.2083H22.7401C23.2003 16.2621 23.5325 15.2588 23.7279 14.225H12.1306C12.0096 14.2245 11.8901 14.1986 11.7798 14.1489C11.6695 14.0992 11.5709 14.0269 11.4905 13.9365L10.633 12.9684C10.5698 12.8966 10.492 12.839 10.4048 12.7995C10.3176 12.76 10.223 12.7395 10.1273 12.7393C10.032 12.739 9.93786 12.7593 9.85124 12.7989C9.76461 12.8385 9.68758 12.8963 9.62542 12.9684L8.89047 13.7982C8.77092 13.9326 8.62424 14.0402 8.46009 14.1137C8.29594 14.1873 8.11806 14.2252 7.93818 14.225H0.161865C0.355355 15.2614 0.686234 16.2673 1.14576 17.2162L6.60657 17.2083Z" fill="#1C1E21"/>
<path d="M15.1772 4.78908C15.2724 4.78903 15.3666 4.76976 15.4542 4.73241C15.5418 4.69507 15.6209 4.64042 15.6869 4.57175L16.7024 3.51278C16.765 3.44678 16.8404 3.39419 16.9239 3.35819C17.0075 3.32219 17.0975 3.30354 17.1884 3.30336H17.2319C17.3271 3.30309 17.4213 3.32343 17.5079 3.36299C17.5945 3.40255 17.6716 3.46039 17.7337 3.53254L18.5912 4.50063C18.6725 4.59088 18.7719 4.66315 18.8828 4.71281C18.9937 4.76248 19.1137 4.78846 19.2352 4.78908H21.531C20.4141 3.30196 18.9666 2.09508 17.3028 1.26389C15.6391 0.432704 13.8048 0 11.9449 0C10.0851 0 8.2508 0.432704 6.58706 1.26389C4.92331 2.09508 3.47576 3.30196 2.35889 4.78908H15.1772Z" fill="#1C1E21"/>
<path d="M10.5621 20.1717H7.42074C7.29934 20.1715 7.1794 20.1453 7.06898 20.0949C6.95856 20.0445 6.86023 19.9709 6.78062 19.8793L5.92712 18.9112C5.86338 18.8402 5.7854 18.7834 5.69826 18.7445C5.61111 18.7056 5.51676 18.6855 5.42134 18.6855C5.32592 18.6855 5.23157 18.7056 5.14443 18.7445C5.05728 18.7834 4.9793 18.8402 4.91556 18.9112L4.17666 19.7568C4.0584 19.892 3.91261 20.0004 3.74906 20.0747C3.5855 20.149 3.40796 20.1874 3.22832 20.1875H3.18091C4.30232 21.3904 5.65931 22.3497 7.16742 23.0055C8.67553 23.6614 10.3025 23.9999 11.947 23.9999C13.5916 23.9999 15.2186 23.6614 16.7267 23.0055C18.2348 22.3497 19.5918 21.3904 20.7132 20.1875L10.5621 20.1717Z" fill="#1C1E21"/>
</svg>
