<svg width="25" height="24" viewBox="0 0 25 24" fill="none" xmlns="http://www.w3.org/2000/svg">
<path d="M12.0301 24C18.7371 24 24.0602 18.5841 24.0602 12C24.0602 5.30973 18.6306 0 12.0301 0C5.32304 0 0 5.41593 0 12C0 18.5841 5.4295 24 12.0301 24Z" fill="#2C374B"/>
<path d="M13.8782 11.3045L15.0635 9.29339L18.2582 14.2693L18.2597 15.2242L18.2492 8.6531C18.2417 8.49248 18.1564 8.34553 18.0203 8.25888L12.2686 4.95044C12.1341 4.88432 11.9635 4.88503 11.8292 4.95249C11.8111 4.96161 11.794 4.97147 11.7777 4.98224L11.7577 4.99486L6.17475 8.23013L6.15307 8.23995C6.12522 8.25277 6.09707 8.26905 6.07063 8.28798C5.9648 8.36391 5.89448 8.47615 5.87174 8.60206C5.86833 8.62115 5.86583 8.64058 5.86462 8.66016L5.87339 14.0149L8.84911 9.40273C9.22375 8.79114 10.04 8.59415 10.7978 8.60487L11.6872 8.62836L6.44702 17.032L7.06472 17.3877L12.3677 8.63687L14.7116 8.62836L9.42229 17.6L11.6264 18.8678L11.8898 19.0192C12.0012 19.0645 12.1325 19.0668 12.2449 19.0262L18.0773 15.6462L16.9622 16.2924L13.8782 11.3045ZM14.3304 17.8176L12.1042 14.3235L13.4631 12.0175L16.3869 16.6258L14.3304 17.8176Z" fill="#2D374B"/>
<path d="M12.1041 14.3234L14.3304 17.8174L16.3869 16.6256L13.4631 12.0173L12.1041 14.3234Z" fill="#28A0F0"/>
<path d="M18.2596 15.2242L18.2581 14.2693L15.0634 9.29346L13.8782 11.3046L16.9622 16.2924L18.0773 15.6463C18.1867 15.5575 18.2529 15.4271 18.2598 15.2864L18.2596 15.2242Z" fill="#28A0F0"/>
<path d="M4.87224 16.1247L6.44693 17.0321L11.6871 8.62839L10.7977 8.6049C10.04 8.59419 9.22371 8.79117 8.84902 9.40276L5.8733 14.015L4.87219 15.5531V16.1247H4.87224Z" fill="white"/>
<path d="M14.7115 8.62842L12.3676 8.63693L7.0647 17.3878L8.91821 18.455L9.42227 17.6001L14.7115 8.62842Z" fill="white"/>
<path d="M19.2473 8.61627C19.2277 8.12608 18.9623 7.67732 18.5466 7.41607L12.7195 4.06511C12.3083 3.858 11.7945 3.85775 11.3826 4.06496C11.3339 4.0895 5.71588 7.34775 5.71588 7.34775C5.63815 7.38502 5.56327 7.42944 5.4928 7.47983C5.12167 7.74583 4.89543 8.15914 4.87219 8.61326V15.5531L5.8733 14.015L5.86453 8.66019C5.86574 8.64061 5.86819 8.62138 5.87165 8.60234C5.89424 8.47633 5.9646 8.36394 6.07054 8.28801C6.09698 8.26907 11.8109 4.96164 11.8291 4.95252C11.9634 4.88506 12.1341 4.88435 12.2686 4.95047L18.0202 8.25891C18.1563 8.34556 18.2416 8.49251 18.2491 8.65313V15.2864C18.2422 15.4271 18.1866 15.5574 18.0772 15.6463L16.9621 16.2924L16.3868 16.6258L14.3303 17.8176L12.2447 19.0263C12.1324 19.0668 12.001 19.0646 11.8897 19.0193L9.42215 17.6L8.91809 18.4549L11.1356 19.7316C11.2089 19.7733 11.2743 19.8103 11.3278 19.8404C11.4109 19.887 11.4674 19.9181 11.4874 19.9277C11.645 20.0043 11.8718 20.0489 12.0761 20.0489C12.2635 20.0489 12.4462 20.0144 12.6191 19.9467L18.6766 16.4386C19.0243 16.1692 19.2289 15.763 19.2473 15.3229V8.61627Z" fill="#96BEDC"/>
</svg>
