<svg width="24" height="24" viewBox="0 0 24 24" fill="none" xmlns="http://www.w3.org/2000/svg">
<circle cx="12" cy="12" r="12" fill="#E6E6E6"/>
<path fill-rule="evenodd" clip-rule="evenodd" d="M11 23.959C4.84045 23.4508 0 18.2906 0 12C0 5.37256 5.37256 0 12 0C18.6274 0 24 5.37256 24 12C24 18.2906 19.1595 23.4508 13 23.959V17.917C15.8378 17.4409 18 14.973 18 12C18 8.68628 15.3137 6 12 6C8.68628 6 6 8.68628 6 12C6 14.973 8.16223 17.4409 11 17.917V23.959ZM12 8C9.79089 8 8 9.79089 8 12C8 14.2091 9.79089 16 12 16C14.2091 16 16 14.2091 16 12C16 9.79089 14.2091 8 12 8Z" fill="#06A8E8"/>
</svg>
