<svg width="24" height="24" viewBox="0 0 24 24" fill="none" xmlns="http://www.w3.org/2000/svg">
<rect width="24" height="24" rx="12" fill="white"/>
<path fill-rule="evenodd" clip-rule="evenodd" d="M3.55243 5.20725C3.64941 5.24184 3.75213 5.24184 3.88336 5.27591C3.91741 5.27823 3.94947 5.29285 3.97359 5.31707C3.99772 5.34129 4.01228 5.37347 4.01458 5.40764C4.04905 5.53931 4.11162 5.67098 4.14586 5.83701C4.18005 5.90573 4.14586 5.96874 4.07738 5.93438C3.98034 5.9002 3.87744 5.9002 3.78063 5.86561C3.7122 5.86561 3.68365 5.79689 3.64941 5.73394C3.61494 5.60221 3.55243 5.43617 3.51818 5.3045C3.48371 5.23578 3.51818 5.17283 3.55266 5.20719" fill="#171A21"/>
<path fill-rule="evenodd" clip-rule="evenodd" d="M3.91198 4.50869C4.00896 4.54328 4.14593 4.57741 4.24291 4.606C4.3114 4.606 4.37414 4.70337 4.37414 4.77209C4.40861 4.8694 4.47118 5.00684 4.50536 5.13851C4.53983 5.20723 4.50536 5.23583 4.43693 5.23583C4.33161 5.19315 4.21949 5.16988 4.10595 5.16711C4.06669 5.16225 4.03092 5.14209 4.00636 5.11097C3.98181 5.07986 3.97044 5.0403 3.97472 5.00085C3.94071 4.8694 3.87751 4.73773 3.8435 4.5717C3.81477 4.54287 3.84924 4.47433 3.91198 4.50869Z" fill="#171A21"/>
<path fill-rule="evenodd" clip-rule="evenodd" d="M4.54535 4.6748C4.64233 4.70939 4.7793 4.74352 4.87628 4.77218C4.94476 4.80677 5.0075 4.86949 5.0075 4.93821C5.07598 5.06988 5.10454 5.20155 5.17297 5.33899C5.20744 5.40771 5.17297 5.4363 5.10454 5.4363C5.0075 5.40171 4.87059 5.36758 4.77355 5.33899C4.70507 5.33899 4.64233 5.24168 4.64233 5.17296C4.60786 5.04123 4.54535 4.90956 4.5111 4.77218C4.47663 4.70916 4.5111 4.6748 4.54558 4.6748" fill="#171A21"/>
<path fill-rule="evenodd" clip-rule="evenodd" d="M6.52527 5.40186C6.64203 5.44325 6.75321 5.49904 6.85626 5.56794C6.92469 5.60253 6.98748 5.66526 6.98748 5.73398C7.01848 5.86034 7.06246 5.98314 7.1187 6.1004C7.15318 6.16912 7.1187 6.19771 7.05022 6.16912C6.95324 6.1004 6.81627 6.07175 6.71929 6.03739C6.65081 6.00309 6.58807 5.94008 6.58807 5.87136C6.55707 5.74498 6.51308 5.62218 6.45679 5.50493C6.46253 5.40186 6.49126 5.40186 6.52527 5.40186Z" fill="#171A21"/>
<path fill-rule="evenodd" clip-rule="evenodd" d="M4.18006 5.33897C4.2771 5.37356 4.37983 5.37356 4.51105 5.40769C4.55026 5.41255 4.586 5.43268 4.61055 5.46374C4.6351 5.4948 4.64649 5.53431 4.64227 5.57372C4.67675 5.7054 4.73925 5.83707 4.7735 5.97451C4.80797 6.04322 4.7735 6.07182 4.70501 6.07182C4.61054 6.03277 4.5103 6.00957 4.40832 6.00316C4.33984 6.00316 4.31134 5.93444 4.2771 5.87143C4.24263 5.73976 4.18006 5.60808 4.14588 5.44205C4.11141 5.37333 4.14588 5.30461 4.18006 5.33897Z" fill="#171A21"/>
<path fill-rule="evenodd" clip-rule="evenodd" d="M4.80774 5.50498C4.90478 5.53957 5.04169 5.5737 5.13867 5.60229C5.17273 5.60461 5.20479 5.61923 5.22893 5.64345C5.25307 5.66767 5.26764 5.69985 5.26995 5.73402C5.30442 5.86569 5.36693 5.99737 5.40118 6.1348C5.43565 6.20352 5.40118 6.23212 5.33269 6.23212C5.22639 6.19286 5.11486 6.1697 5.00176 6.1634C4.96772 6.16109 4.93566 6.14648 4.91153 6.12227C4.8874 6.09806 4.87284 6.06589 4.87054 6.03173C4.83607 5.90005 4.7735 5.76838 4.73926 5.63094C4.73926 5.50498 4.77373 5.47062 4.80774 5.50498Z" fill="#171A21"/>
<path fill-rule="evenodd" clip-rule="evenodd" d="M5.46959 5.67114C5.56657 5.70573 5.70354 5.73986 5.80052 5.76851C5.869 5.80282 5.93174 5.86583 5.93174 5.93455C5.96621 6.06622 6.02878 6.19789 6.06302 6.30097C6.0975 6.36969 6.06302 6.39828 5.99454 6.36969C5.8975 6.3351 5.76059 6.30097 5.66361 6.27232C5.62956 6.27001 5.59749 6.2554 5.57335 6.23119C5.54922 6.20698 5.53464 6.17481 5.53233 6.14064C5.49786 6.00897 5.43535 5.8773 5.40111 5.73986C5.36663 5.70527 5.40111 5.67114 5.46959 5.67114Z" fill="#171A21"/>
<path fill-rule="evenodd" clip-rule="evenodd" d="M6.13152 5.9002C6.24639 5.93159 6.35741 5.97576 6.46251 6.03187C6.53099 6.06646 6.59373 6.12918 6.59373 6.1979C6.62472 6.32427 6.6687 6.44707 6.72495 6.56433C6.75943 6.63304 6.72495 6.6617 6.65647 6.63304C6.54162 6.60164 6.43063 6.55748 6.32554 6.50137C6.25706 6.46678 6.19432 6.40406 6.19432 6.33534C6.15985 6.20367 6.09734 6.07194 6.06309 5.96892C6.02862 5.9002 6.06309 5.86584 6.13152 5.9002Z" fill="#171A21"/>
<path fill-rule="evenodd" clip-rule="evenodd" d="M6.78772 6.169C6.8847 6.20359 7.02167 6.26631 7.11865 6.30067C7.18713 6.33526 7.24987 6.39798 7.24987 6.4667C7.28086 6.59308 7.32486 6.71588 7.38115 6.83313C7.41533 6.90184 7.38115 6.9305 7.31267 6.90184C7.21563 6.83313 7.07872 6.80453 6.98168 6.77017C6.91325 6.73558 6.85046 6.6728 6.85046 6.60414C6.81946 6.47776 6.77548 6.35494 6.71923 6.23766C6.69051 6.169 6.72498 6.13464 6.78772 6.169Z" fill="#171A21"/>
<path fill-rule="evenodd" clip-rule="evenodd" d="M5.73208 6.46672C5.82912 6.50131 5.96603 6.53544 6.06307 6.56403C6.1315 6.59862 6.19429 6.6614 6.19429 6.69576C6.22876 6.82743 6.29127 6.9591 6.32552 7.06218C6.35999 7.1309 6.32552 7.1595 6.25703 7.1595C6.16005 7.12491 6.02308 7.09078 5.9261 7.06218C5.89206 7.05986 5.86001 7.04525 5.83588 7.02104C5.81176 6.99683 5.79719 6.96467 5.79488 6.93051C5.76041 6.79878 5.69784 6.66711 5.66366 6.52973C5.63493 6.46672 5.66366 6.43236 5.73208 6.46672Z" fill="#171A21"/>
<path fill-rule="evenodd" clip-rule="evenodd" d="M6.35974 6.66693C6.47459 6.69833 6.58559 6.74249 6.69067 6.79861C6.75916 6.8332 6.82195 6.89598 6.82195 6.9647C6.85643 7.09637 6.91894 7.19939 6.95318 7.33112C6.98765 7.39984 6.95318 7.42843 6.88469 7.39984C6.78771 7.36525 6.65074 7.33112 6.55376 7.30247C6.48528 7.26788 6.42254 7.20515 6.42254 7.17079C6.38807 7.03912 6.3255 6.90739 6.29126 6.80437C6.29701 6.66693 6.32573 6.63257 6.35974 6.66693Z" fill="#171A21"/>
<path fill-rule="evenodd" clip-rule="evenodd" d="M5.36701 7.09668C5.46399 7.13127 5.56672 7.13127 5.69794 7.1654C5.73199 7.1677 5.76406 7.18232 5.78819 7.20653C5.81233 7.23074 5.82691 7.2629 5.82922 7.29707C5.86369 7.42874 5.9262 7.56042 5.96044 7.69785C5.99491 7.76657 5.96044 7.79517 5.89196 7.79517C5.79498 7.76058 5.69225 7.76058 5.59527 7.72651C5.52679 7.72651 5.49823 7.65779 5.46399 7.59478C5.42981 7.4631 5.36701 7.33143 5.33277 7.19399C5.27003 7.13104 5.30404 7.09668 5.36724 7.09668" fill="#171A21"/>
<path fill-rule="evenodd" clip-rule="evenodd" d="M5.9945 7.22827C6.09148 7.26286 6.22845 7.29699 6.32543 7.32558C6.35948 7.32791 6.39154 7.34253 6.41567 7.36675C6.4398 7.39097 6.45436 7.42315 6.45666 7.45731C6.49113 7.58899 6.55369 7.72066 6.58794 7.82374C6.62241 7.89246 6.58794 7.92105 6.51945 7.92105C6.41315 7.88179 6.30162 7.85863 6.18852 7.85233C6.15447 7.85003 6.12241 7.83541 6.09827 7.8112C6.07413 7.78699 6.05955 7.75483 6.05724 7.72066C6.02277 7.58899 5.96026 7.45731 5.92602 7.31988C5.89729 7.26263 5.93176 7.22827 5.9945 7.22827Z" fill="#171A21"/>
<path fill-rule="evenodd" clip-rule="evenodd" d="M6.6222 7.42866C6.71918 7.46325 6.85614 7.49737 6.95313 7.52597C7.02161 7.56056 7.08435 7.62334 7.08435 7.69206C7.11882 7.82373 7.18139 7.92681 7.21557 8.05848C7.25004 8.1272 7.21557 8.15579 7.14714 8.1272C7.05011 8.09261 6.9132 8.05848 6.81616 8.02983C6.74773 7.99524 6.68493 7.96111 6.68493 7.89816C6.65046 7.76648 6.58795 7.63475 6.55371 7.53173C6.55946 7.42866 6.55946 7.3943 6.6222 7.42866Z" fill="#171A21"/>
<path fill-rule="evenodd" clip-rule="evenodd" d="M7.28439 7.65777C7.38143 7.69236 7.51834 7.75508 7.61538 7.78944C7.68381 7.82403 7.7466 7.88675 7.7466 7.95547C7.7776 8.08183 7.82158 8.20463 7.87783 8.32189C7.9123 8.39061 7.87783 8.41926 7.80934 8.39061C7.71236 8.35602 7.57539 8.2933 7.47841 8.25894C7.40993 8.22435 7.34719 8.16163 7.34719 8.09291C7.31605 7.96651 7.2719 7.84371 7.21545 7.72649C7.18672 7.65777 7.22119 7.62341 7.28393 7.65777" fill="#171A21"/>
<path fill-rule="evenodd" clip-rule="evenodd" d="M7.28439 5.76838C7.41561 5.83705 7.51834 5.90006 7.64956 5.96878C7.71805 6.00337 7.78084 6.10045 7.81509 6.13481C7.84603 6.26119 7.89001 6.38399 7.94631 6.50123C7.98078 6.56995 7.94631 6.56995 7.87783 6.53582C7.73866 6.48188 7.60492 6.41478 7.47841 6.33543C7.40993 6.30084 7.34719 6.23806 7.34719 6.1694C7.31606 6.04291 7.27191 5.92001 7.21545 5.80269C7.18672 5.76838 7.22119 5.73402 7.28393 5.76838" fill="#171A21"/>
<path fill-rule="evenodd" clip-rule="evenodd" d="M7.51803 6.50129C7.6329 6.5707 7.75545 6.62643 7.8832 6.66732C7.95168 6.70191 8.01448 6.79899 8.04872 6.83335C8.07966 6.95973 8.12364 7.08254 8.17994 7.19977C8.21442 7.26849 8.17994 7.26849 8.11146 7.23436C7.99658 7.16497 7.87403 7.10925 7.74629 7.06833C7.6778 7.03374 7.61507 6.97102 7.61507 6.9023C7.51803 6.80499 7.48378 6.66755 7.44954 6.57024C7.42082 6.50152 7.44954 6.46716 7.51803 6.50152" fill="#171A21"/>
<path fill-rule="evenodd" clip-rule="evenodd" d="M7.74634 7.22847C7.87757 7.29719 7.98029 7.32578 8.11151 7.3945C8.18245 7.43135 8.24026 7.48935 8.27698 7.56053C8.30798 7.68691 8.35196 7.80973 8.4082 7.92701C8.44267 7.99567 8.4082 7.99567 8.33978 7.96131C8.22488 7.89192 8.1023 7.8362 7.97455 7.79528C7.90612 7.76069 7.84332 7.69797 7.84332 7.62925C7.81232 7.50289 7.76835 7.38009 7.7121 7.26283C7.68337 7.22824 7.71785 7.19411 7.74657 7.22824" fill="#171A21"/>
<path fill-rule="evenodd" clip-rule="evenodd" d="M8.01451 7.9556C8.14573 8.02432 8.24846 8.05298 8.37968 8.12164C8.45061 8.15848 8.50842 8.21649 8.54514 8.28767C8.57614 8.41405 8.62012 8.53687 8.67637 8.65415C8.71084 8.72281 8.67637 8.72281 8.60788 8.68874C8.47666 8.62002 8.37399 8.59137 8.24271 8.52265C8.17423 8.48812 8.11172 8.42539 8.11172 8.35621C8.08072 8.22985 8.03674 8.10705 7.98049 7.98979C7.91201 7.9552 7.94602 7.92684 8.01497 7.9552" fill="#171A21"/>
<path fill-rule="evenodd" clip-rule="evenodd" d="M7.98019 6.169C8.10599 6.24067 8.22789 6.31903 8.34536 6.40375C8.41802 6.4538 8.47532 6.5232 8.51082 6.60414C8.54182 6.73051 8.5858 6.85331 8.64205 6.97057C8.67652 7.03929 8.64205 7.03929 8.57362 7.00516C8.44234 6.90779 8.31112 6.83913 8.20839 6.77041C8.13996 6.73582 8.07717 6.63873 8.04292 6.60438C8.01192 6.47799 7.96795 6.35518 7.9117 6.2379C7.88297 6.13487 7.9117 6.13487 7.98019 6.16923" fill="#171A21"/>
<path fill-rule="evenodd" clip-rule="evenodd" d="M8.73913 6.66694C8.87035 6.76426 9.00157 6.90169 9.13854 6.99901C9.20703 7.06773 9.26977 7.1651 9.30401 7.1994C9.34049 7.32405 9.38431 7.44643 9.43523 7.56588C9.4697 7.63454 9.40076 7.63454 9.33825 7.56588C9.20703 7.46851 9.07575 7.33113 8.93884 7.23376C8.87378 7.17585 8.81798 7.10827 8.77337 7.03337C8.74238 6.90699 8.69838 6.78419 8.64209 6.66694C8.64209 6.63235 8.67656 6.59822 8.73913 6.66694Z" fill="#171A21"/>
<path fill-rule="evenodd" clip-rule="evenodd" d="M9.56658 7.3945C9.75735 7.59228 9.93464 7.80269 10.0973 8.02433C10.1943 8.156 11.0216 10.6467 11.0216 10.6467C11.0216 10.6467 10.3255 8.65415 10.2627 8.55678C10.0973 8.32203 9.89757 8.12741 9.76635 7.96132C9.70003 7.89163 9.64426 7.81256 9.60083 7.72663C9.56635 7.62925 9.5324 7.49187 9.50385 7.3945C9.43536 7.29719 9.4981 7.32579 9.56658 7.3945Z" fill="#171A21"/>
<path fill-rule="evenodd" clip-rule="evenodd" d="M8.97313 7.35993C9.11338 7.46173 9.2468 7.57268 9.37254 7.69205C9.44103 7.76071 9.50377 7.85808 9.53801 7.89244C9.56901 8.0188 9.61299 8.1416 9.66923 8.25886C9.7037 8.32758 9.63476 8.32758 9.57225 8.25886C9.44103 8.16155 9.30975 8.02411 9.17284 7.9268C9.10019 7.87674 9.04289 7.80734 9.00737 7.72641C8.9763 7.60001 8.93223 7.47719 8.87586 7.35993C8.87012 7.32534 8.90459 7.32534 8.9729 7.35993" fill="#171A21"/>
<path fill-rule="evenodd" clip-rule="evenodd" d="M9.80055 8.0929C9.98128 8.27807 10.1473 8.47717 10.297 8.68837C10.394 8.78568 11.0217 10.6465 11.0217 10.6465C11.0217 10.6465 10.5593 9.28378 10.4625 9.18623C10.297 8.98584 10.1315 8.78545 9.96607 8.65378C9.89979 8.58421 9.84402 8.50528 9.80055 8.41949C9.76636 8.28776 9.73212 8.18474 9.70357 8.08737C9.66335 7.99005 9.73229 8.02441 9.80055 8.09313" fill="#171A21"/>
<path fill-rule="evenodd" clip-rule="evenodd" d="M8.4767 7.59468C8.60793 7.6634 8.71065 7.76071 8.84187 7.82943C8.91454 7.87949 8.97186 7.94888 9.0074 8.02982C9.03833 8.15624 9.08231 8.27908 9.13862 8.39636C9.17309 8.46507 9.13862 8.46507 9.07014 8.43095C8.94432 8.35929 8.82243 8.28093 8.70496 8.1962C8.63648 8.16189 8.57374 8.09888 8.57374 8.03016C8.54275 7.90379 8.49875 7.78099 8.44246 7.66374C8.37972 7.59502 8.40799 7.56066 8.47693 7.59502" fill="#171A21"/>
<path fill-rule="evenodd" clip-rule="evenodd" d="M9.20135 8.09293C9.34162 8.19469 9.47505 8.30562 9.60077 8.425C9.66925 8.49371 9.73205 8.59103 9.76629 8.62539C9.79724 8.75177 9.84121 8.87457 9.89751 8.99181C9.93198 9.06053 9.86304 9.06053 9.80047 8.99181C9.66925 8.8945 9.53803 8.79142 9.40106 8.69411C9.32842 8.64403 9.27113 8.57464 9.23559 8.49371C9.20459 8.36735 9.16062 8.24455 9.10437 8.12729C9.10437 8.05857 9.13884 8.02421 9.20135 8.0927" fill="#171A21"/>
<path fill-rule="evenodd" clip-rule="evenodd" d="M10.0286 8.7856C10.1941 8.91728 10.3596 9.11767 10.5251 9.31806C10.6221 9.41543 11.0557 10.6464 11.0557 10.6464C11.0557 10.6464 10.7932 9.94788 10.6905 9.85086C10.5251 9.65047 10.3596 9.48438 10.2283 9.35271C10.162 9.283 10.1063 9.20391 10.0629 9.11796C10.0284 9.02064 9.99439 8.88321 9.96589 8.78589C9.89741 8.68858 9.96589 8.72288 10.0286 8.78589" fill="#171A21"/>
<path fill-rule="evenodd" clip-rule="evenodd" d="M8.70492 8.32177C8.83615 8.39049 8.93887 8.48786 9.0701 8.55652C9.14273 8.6066 9.20003 8.67599 9.23556 8.75691C9.26656 8.8833 9.31054 9.00611 9.36679 9.12339C9.40126 9.19205 9.36679 9.19205 9.29836 9.1577C9.1726 9.08603 9.05074 9.00769 8.9333 8.923C8.86487 8.88841 8.80208 8.82563 8.80208 8.75691C8.77102 8.63056 8.72698 8.50778 8.67068 8.39055C8.60789 8.32183 8.64196 8.28747 8.70515 8.32183" fill="#171A21"/>
<path fill-rule="evenodd" clip-rule="evenodd" d="M9.46949 8.82002C9.60071 8.91733 9.73199 9.02041 9.8689 9.11772C9.93738 9.18644 10.0001 9.28376 10.0344 9.31811C10.0654 9.44451 10.1094 9.56733 10.1656 9.6846C10.2001 9.75326 10.1312 9.75326 10.0686 9.6846C9.93738 9.58722 9.80616 9.48415 9.66919 9.38683C9.59654 9.33677 9.53924 9.26738 9.50373 9.18644C9.47273 9.06008 9.42875 8.93728 9.3725 8.82002C9.33803 8.78543 9.40123 8.7513 9.46949 8.82002Z" fill="#171A21"/>
<path fill-rule="evenodd" clip-rule="evenodd" d="M10.2627 9.44985C10.4282 9.58152 10.5594 9.74755 10.7249 9.94794C10.7933 10.0453 11.0216 10.6121 11.0216 10.6121C10.9727 10.5611 10.9288 10.5055 10.8904 10.4461C10.7249 10.28 10.5936 10.114 10.4282 9.9823C10.3597 9.91358 10.2969 9.81627 10.2627 9.78191C10.2282 9.6846 10.1942 9.54716 10.1657 9.44985C10.1312 9.38684 10.1944 9.38684 10.2627 9.44985Z" fill="#171A21"/>
<path fill-rule="evenodd" clip-rule="evenodd" d="M9.3668 18.1068C9.46384 18.0095 9.56651 17.9408 9.66354 17.8434C9.68006 17.8255 9.68923 17.802 9.68923 17.7776C9.68923 17.7532 9.68006 17.7297 9.66354 17.7118C9.56651 17.6144 9.49808 17.5114 9.40104 17.4484C9.36657 17.4138 9.33261 17.4138 9.26982 17.4484C9.17805 17.5353 9.07877 17.6139 8.97313 17.6832C8.9652 17.6885 8.95871 17.6958 8.95422 17.7043C8.94974 17.7128 8.94739 17.7222 8.94739 17.7318C8.94739 17.7414 8.94974 17.7509 8.95422 17.7594C8.95871 17.7678 8.9652 17.7751 8.97313 17.7805C9.07011 17.8778 9.13859 17.9809 9.23558 18.0782C9.30406 18.1412 9.3383 18.1412 9.3668 18.107M8.47668 16.0857C8.57372 15.9884 8.67638 15.9197 8.77342 15.8223C8.78991 15.8044 8.79907 15.7809 8.79907 15.7565C8.79907 15.7321 8.78991 15.7086 8.77342 15.6907C8.70494 15.5933 8.6079 15.5246 8.53947 15.4273C8.5341 15.4193 8.52687 15.4128 8.51842 15.4083C8.50996 15.4038 8.50053 15.4014 8.49095 15.4014C8.48138 15.4014 8.47195 15.4038 8.46349 15.4083C8.45503 15.4128 8.4478 15.4193 8.44243 15.4273C8.34545 15.496 8.24273 15.5933 8.14575 15.662C8.13782 15.6674 8.13133 15.6746 8.12684 15.6831C8.12235 15.6916 8.12001 15.7011 8.12001 15.7107C8.12001 15.7203 8.12235 15.7297 8.12684 15.7382C8.13133 15.7467 8.13782 15.7539 8.14575 15.7593C8.24273 15.8567 8.31121 15.9598 8.40819 16.0227C8.40819 16.12 8.44243 16.12 8.47668 16.0857ZM9.89749 17.6087C9.99447 17.5114 10.063 17.4083 10.1599 17.3453C10.1765 17.3274 10.1856 17.3039 10.1856 17.2795C10.1856 17.2551 10.1765 17.2316 10.1599 17.2137C10.0915 17.1163 9.99447 17.0476 9.92599 16.9503C9.92063 16.9424 9.9134 16.9358 9.90495 16.9313C9.8965 16.9268 9.88707 16.9245 9.8775 16.9245C9.86793 16.9245 9.8585 16.9268 9.85005 16.9313C9.8416 16.9358 9.83437 16.9424 9.82901 16.9503L9.56651 17.2137C9.55858 17.219 9.55209 17.2263 9.5476 17.2348C9.54311 17.2433 9.54077 17.2527 9.54077 17.2623C9.54077 17.272 9.54311 17.2814 9.5476 17.2899C9.55209 17.2984 9.55858 17.3056 9.56651 17.311C9.63499 17.4083 9.73197 17.4771 9.80046 17.5744C8.93906 15.6219 8.97313 15.6219 9.00737 15.5876L9.89749 17.6087ZM10.3882 17.0763C10.4748 16.9842 10.5531 16.8845 10.6222 16.7785C10.6387 16.7606 10.6478 16.7371 10.6478 16.7127C10.6478 16.6883 10.6387 16.6648 10.6222 16.6468C10.5537 16.5781 10.4909 16.4808 10.3882 16.4121C10.3828 16.4041 10.3756 16.3976 10.3671 16.3931C10.3587 16.3886 10.3493 16.3863 10.3397 16.3863C10.3301 16.3863 10.3207 16.3886 10.3122 16.3931C10.3038 16.3976 10.2965 16.4041 10.2912 16.4121C10.1942 16.5094 10.1257 16.6125 10.0287 16.7098C10.0122 16.7277 10.003 16.7513 10.003 16.7757C10.003 16.8001 10.0122 16.8236 10.0287 16.8415C10.0972 16.9388 10.1942 17.0076 10.2627 17.1049C9.43528 15.1238 9.46953 15.0895 9.49808 15.055L10.3882 17.0763ZM10.8561 16.5152C10.9245 16.4178 10.9873 16.3148 11.09 16.1831C11.1065 16.1651 11.1157 16.1416 11.1157 16.1172C11.1157 16.0928 11.1065 16.0693 11.09 16.0514C11.0152 15.9806 10.9482 15.9019 10.8903 15.8166C10.8561 15.782 10.8219 15.782 10.7933 15.8512C10.7248 15.9485 10.6278 16.0516 10.5594 16.1489C10.5428 16.1669 10.5337 16.1904 10.5337 16.2148C10.5337 16.2392 10.5428 16.2627 10.5594 16.2807C10.6278 16.3494 10.6906 16.4467 10.7933 16.5154C9.86325 14.557 9.93174 14.557 9.96598 14.494L10.8561 16.5152ZM11.2498 15.914C11.3235 15.7959 11.3902 15.6735 11.4495 15.5475C11.466 15.5296 11.4752 15.5061 11.4752 15.4817C11.4752 15.4573 11.466 15.4338 11.4495 15.4158C11.3845 15.3579 11.3287 15.2903 11.284 15.2155C11.2495 15.1809 11.2155 15.2155 11.187 15.25C11.1185 15.3474 11.0558 15.4848 10.9531 15.5821C10.9366 15.6 10.9274 15.6236 10.9274 15.648C10.9274 15.6724 10.9366 15.6959 10.9531 15.7138C11.0279 15.7846 11.0949 15.8633 11.1528 15.9485C10.2969 13.9615 10.3254 13.9272 10.3596 13.8929L11.2498 15.914ZM11.615 15.2555C11.6834 15.1239 11.712 14.9922 11.7805 14.8547C11.8149 14.8202 11.7805 14.7574 11.7805 14.7231L11.615 14.557C11.5805 14.5224 11.5805 14.557 11.5465 14.5916C11.478 14.7233 11.4153 14.8264 11.3468 14.958C11.3303 14.976 11.3211 14.9995 11.3211 15.0239C11.3211 15.0483 11.3303 15.0718 11.3468 15.0897C11.4118 15.1477 11.4676 15.2152 11.5123 15.2901C10.6564 13.2974 10.6906 13.263 10.7249 13.2344L11.615 15.2555ZM11.8774 14.4883C11.9119 14.3566 11.9459 14.1906 11.9744 14.0245V13.8929L11.8774 13.7955C11.8587 13.814 11.8466 13.8382 11.843 13.8643C11.8085 13.9959 11.746 14.1276 11.7117 14.265C11.6952 14.283 11.6861 14.3065 11.6861 14.3309C11.6861 14.3553 11.6952 14.3788 11.7117 14.3967C11.7462 14.4654 11.8087 14.494 11.843 14.5627C10.9531 12.5357 10.9873 12.5357 10.9873 12.4672L11.8774 14.4883ZM10.3596 18.1068C10.4566 18.0095 10.5251 17.9064 10.6222 17.8091C10.6387 17.7912 10.6478 17.7677 10.6478 17.7433C10.6478 17.7189 10.6387 17.6954 10.6222 17.6775C10.5537 17.5801 10.4566 17.5114 10.3882 17.4141C10.3828 17.4061 10.3756 17.3996 10.3671 17.3951C10.3587 17.3906 10.3493 17.3882 10.3397 17.3882C10.3301 17.3882 10.3207 17.3906 10.3122 17.3951C10.3038 17.3996 10.2965 17.4061 10.2912 17.4141C10.1942 17.5114 10.1257 17.6144 10.0287 17.6775C10.0122 17.6954 10.003 17.7189 10.003 17.7433C10.003 17.7677 10.0122 17.7912 10.0287 17.8091C10.0972 17.9064 10.1942 17.9752 10.2627 18.0725C9.40104 16.12 9.43528 16.12 9.46953 16.0857L10.3596 18.1068ZM10.8219 17.5744C10.8903 17.4771 10.9873 17.374 11.0558 17.2767C11.0723 17.2587 11.0815 17.2352 11.0815 17.2108C11.0815 17.1864 11.0723 17.1629 11.0558 17.1449L10.8219 16.9102C10.8165 16.9022 10.8092 16.8957 10.8008 16.8913C10.7923 16.8868 10.7829 16.8844 10.7733 16.8844C10.7638 16.8844 10.7543 16.8868 10.7459 16.8913C10.7374 16.8957 10.7302 16.9022 10.7248 16.9102C10.6564 17.0076 10.5594 17.1106 10.4909 17.208C10.4744 17.2259 10.4652 17.2494 10.4652 17.2738C10.4652 17.2982 10.4744 17.3217 10.4909 17.3396C10.5594 17.437 10.6564 17.5057 10.7248 17.603C10.9957 17.4975 11.2137 17.2883 11.3309 17.0215C11.4481 16.7547 11.4548 16.452 11.3497 16.1802C11.2445 15.9084 11.036 15.6896 10.7701 15.5721C10.5042 15.4545 10.2026 15.4477 9.93174 15.5532L10.8219 17.5744ZM11.2498 16.9789C11.3183 16.8816 11.381 16.7442 11.4495 16.6468C11.466 16.6289 11.4752 16.6054 11.4752 16.581C11.4752 16.5566 11.466 16.5331 11.4495 16.5152C11.3746 16.4444 11.3077 16.3657 11.2498 16.2804C11.2153 16.2458 11.1813 16.2804 11.1528 16.315C11.0843 16.4123 11.0216 16.5498 10.9188 16.6471C10.9023 16.665 10.8932 16.6885 10.8932 16.7129C10.8932 16.7373 10.9023 16.7608 10.9188 16.7787C10.9873 16.8475 11.0501 16.9448 11.1528 17.0135C11.4245 16.908 11.6432 16.6985 11.761 16.4311C11.8787 16.1637 11.8858 15.8603 11.7806 15.5877C11.6754 15.3151 11.4666 15.0956 11.2001 14.9774C10.9337 14.8593 10.6313 14.8522 10.3596 14.9578L11.2498 16.9789ZM11.615 16.3148C11.6842 16.1995 11.7397 16.0765 11.7805 15.9483C11.797 15.9304 11.8062 15.9069 11.8062 15.8825C11.8062 15.8581 11.797 15.8345 11.7805 15.8166C11.7154 15.7587 11.6596 15.6911 11.615 15.6162C11.5805 15.5816 11.5465 15.6162 11.5465 15.6508C11.478 15.7825 11.4153 15.8856 11.3468 16.0173C11.3303 16.0352 11.3211 16.0587 11.3211 16.0831C11.3211 16.1075 11.3303 16.131 11.3468 16.149C11.4217 16.2197 11.4886 16.2984 11.5465 16.3837C11.4097 16.4378 11.2637 16.4644 11.1167 16.4619C10.9697 16.4594 10.8246 16.4278 10.6898 16.3691C10.4174 16.2504 10.2032 16.028 10.0942 15.7509C9.98529 15.4737 9.99052 15.1645 10.1088 14.8912C10.2271 14.6179 10.4487 14.403 10.7249 14.2936L11.615 16.3148ZM11.9117 15.5819C11.9462 15.4502 12.0087 15.3185 12.0429 15.1525V15.0208L11.8774 14.8547C11.843 14.8202 11.843 14.8547 11.809 14.9235C11.7676 15.0624 11.7121 15.1967 11.6435 15.3242C11.627 15.3422 11.6178 15.3657 11.6178 15.3901C11.6178 15.4145 11.627 15.438 11.6435 15.4559C11.7085 15.5139 11.7643 15.5814 11.809 15.6563C10.9873 13.6294 11.0216 13.6294 11.0216 13.5607L11.9117 15.5819ZM12.1456 14.7575C12.1741 14.5931 12.1857 14.4261 12.1801 14.2593C12.1801 14.1907 12.1801 14.1277 12.1456 14.1277L12.0487 14.0303C12.0255 14.0574 12.0132 14.0921 12.0142 14.1277C11.9797 14.2937 11.9457 14.4597 11.9171 14.5915V14.7231C11.9516 14.7918 12.0142 14.8204 12.0484 14.8892C11.2213 12.8336 11.2213 12.7992 11.2555 12.7363L12.1456 14.7575ZM10.3254 19.1318C10.4224 19.0345 10.5251 18.9658 10.5879 18.8684C10.6044 18.8505 10.6136 18.827 10.6136 18.8026C10.6136 18.7781 10.6044 18.7546 10.5879 18.7367C10.5194 18.6394 10.4224 18.5707 10.354 18.4734C10.3486 18.4654 10.3414 18.4589 10.3329 18.4544C10.3244 18.4499 10.315 18.4475 10.3054 18.4475C10.2959 18.4475 10.2864 18.4499 10.278 18.4544C10.2695 18.4589 10.2623 18.4654 10.2569 18.4734C10.1599 18.5707 10.0572 18.6394 9.99447 18.7367C9.98655 18.7421 9.98006 18.7494 9.97557 18.7578C9.97108 18.7663 9.96874 18.7758 9.96874 18.7854C9.96874 18.795 9.97108 18.8045 9.97557 18.813C9.98006 18.8214 9.98655 18.8287 9.99447 18.8341C10.0915 18.9314 10.1599 19.0345 10.2569 19.0974C9.3383 17.1106 9.40104 17.1449 9.43528 17.1106L10.3254 19.1318ZM10.8219 18.605C10.8903 18.5077 10.9873 18.4047 11.0558 18.3073C11.0723 18.2894 11.0815 18.2659 11.0815 18.2415C11.0815 18.2171 11.0723 18.1935 11.0558 18.1756C10.9873 18.0783 10.8903 18.0096 10.8219 17.9123C10.8165 17.9043 10.8093 17.8978 10.8008 17.8933C10.7923 17.8888 10.7829 17.8864 10.7733 17.8864C10.7638 17.8864 10.7543 17.8888 10.7459 17.8933C10.7374 17.8978 10.7302 17.9043 10.7248 17.9123C10.6278 18.0096 10.5594 18.1127 10.4624 18.21C10.4459 18.2279 10.4367 18.2514 10.4367 18.2758C10.4367 18.3002 10.4459 18.3237 10.4624 18.3416C10.5309 18.439 10.6278 18.5077 10.6963 18.605C10.9634 18.5033 11.1793 18.2993 11.2965 18.0378C11.4137 17.7763 11.4226 17.4789 11.3212 17.2108C11.2198 16.9428 11.0164 16.7262 10.7559 16.6086C10.4953 16.491 10.1988 16.4821 9.93174 16.5838L10.8219 18.605ZM11.2498 18.0382C11.3358 17.9334 11.414 17.8224 11.4837 17.7061C11.5002 17.6882 11.5094 17.6647 11.5094 17.6403C11.5094 17.6159 11.5002 17.5924 11.4837 17.5744C11.4153 17.5057 11.3525 17.4084 11.2498 17.3397C11.2153 17.3051 11.1813 17.3051 11.1528 17.3743C11.0668 17.4791 10.9886 17.5901 10.9188 17.7063C10.9023 17.7243 10.8932 17.7478 10.8932 17.7722C10.8932 17.7966 10.9023 17.8201 10.9188 17.8381C10.9873 17.9354 11.0843 18.0041 11.1528 18.1014C10.2969 16.0514 10.3254 16.0514 10.3596 16.017L11.2498 18.0382ZM11.6492 17.4084C11.7177 17.2767 11.7805 17.1737 11.8489 17.042C11.8654 17.024 11.8746 17.0005 11.8746 16.9761C11.8746 16.9517 11.8654 16.9282 11.8489 16.9102C11.7741 16.8395 11.7071 16.7608 11.6492 16.6756C11.615 16.641 11.5808 16.6756 11.5522 16.7099C11.4933 16.825 11.4266 16.936 11.3525 17.042C11.336 17.0599 11.3268 17.0834 11.3268 17.1078C11.3268 17.1322 11.336 17.1557 11.3525 17.1737C11.421 17.2424 11.4837 17.3397 11.5864 17.4084C10.6906 15.4216 10.7591 15.4216 10.7591 15.3872L11.6492 17.4084ZM11.9802 16.7099C12.0401 16.5821 12.0841 16.4475 12.1114 16.3091V14.1562C12.0464 14.0983 11.9906 14.0307 11.9459 13.9558C11.9115 13.9212 11.8774 13.9558 11.8774 13.9904C11.809 14.1221 11.7805 14.2537 11.712 14.3912C11.6955 14.4091 11.6863 14.4326 11.6863 14.457C11.6863 14.4814 11.6955 14.5049 11.712 14.5228L11.9117 14.7232C11.0558 14.7574 11.09 14.723 11.09 14.6887L11.9802 16.7099ZM12.2426 15.9143C12.2771 15.7482 12.3111 15.6165 12.3397 15.4505C12.3397 15.3818 12.3397 15.3188 12.3052 15.3188C12.2707 15.2501 12.2081 15.2215 12.1397 15.1528C12.1052 15.1182 12.1052 15.1528 12.0712 15.2215C12.0455 15.3695 12.0014 15.5138 11.94 15.6509V15.7826C12.005 15.8405 12.0608 15.9081 12.1055 15.983C11.3183 13.9959 11.3525 13.9615 11.3525 13.8929L12.2426 15.9143ZM12.3739 15.0211V14.46C12.3659 14.4039 12.3544 14.3485 12.3394 14.2939L12.2424 14.1966C12.2193 14.2236 12.207 14.2583 12.2079 14.2939C12.2079 14.4943 12.1734 14.6603 12.1734 14.8264C12.1734 14.8951 12.1734 14.9581 12.2079 14.9581C12.2424 15.0268 12.305 15.0554 12.3392 15.1241C11.4838 13.097 11.4838 13.0683 11.4838 12.9996L12.3739 15.0211ZM9.89749 17.6089C9.99447 17.5115 10.063 17.4085 10.1599 17.3111C10.1765 17.2932 10.1856 17.2697 10.1856 17.2453C10.1856 17.2209 10.1765 17.1974 10.1599 17.1795C10.0915 17.0821 9.99447 17.0134 9.92599 16.9161C9.92063 16.9081 9.9134 16.9016 9.90495 16.8971C9.8965 16.8926 9.88707 16.8902 9.8775 16.8902C9.86793 16.8902 9.8585 16.8926 9.85005 16.8971C9.8416 16.9016 9.83437 16.9081 9.82901 16.9161C9.73203 17.0134 9.66354 17.1165 9.56651 17.1795C9.55002 17.1974 9.54086 17.2209 9.54086 17.2453C9.54086 17.2697 9.55002 17.2932 9.56651 17.3111C9.66354 17.4085 9.73203 17.5115 9.82901 17.5745C9.82901 17.643 9.86325 17.643 9.89749 17.6089ZM10.3939 17.0821C10.4624 16.9848 10.5594 16.8817 10.6278 16.7844C10.6444 16.7665 10.6535 16.743 10.6535 16.7186C10.6535 16.6942 10.6444 16.6706 10.6278 16.6527C10.5594 16.5554 10.4624 16.4867 10.3939 16.3893C10.3885 16.3814 10.3813 16.3749 10.3728 16.3704C10.3644 16.3659 10.355 16.3635 10.3454 16.3635C10.3358 16.3635 10.3264 16.3659 10.3179 16.3704C10.3095 16.3749 10.3023 16.3814 10.2969 16.3893C10.2284 16.4867 10.1314 16.5897 10.063 16.6871C10.0464 16.705 10.0373 16.7285 10.0373 16.7529C10.0373 16.7773 10.0464 16.8008 10.063 16.8188C10.1314 16.9161 10.2284 16.9848 10.2969 17.0821C10.2969 17.1106 10.3596 17.1106 10.3939 17.0819V17.0821ZM11.187 15.8168C11.2555 15.6851 11.2841 15.5534 11.3525 15.416C11.387 15.3814 11.3525 15.3186 11.3525 15.2843C11.2776 15.2134 11.2107 15.1346 11.1528 15.0492C11.1183 15.0146 11.0843 15.0492 11.0558 15.0838C10.9866 15.199 10.9311 15.322 10.8903 15.4502C10.8738 15.4681 10.8647 15.4917 10.8647 15.5161C10.8647 15.5405 10.8738 15.564 10.8903 15.5819C10.9588 15.6506 11.0216 15.748 11.1243 15.8167C11.1185 15.8851 11.1528 15.851 11.187 15.8166V15.8168ZM11.4498 15.0895C11.4842 14.9578 11.5467 14.8261 11.581 14.6601V14.5284C11.516 14.4705 11.4602 14.4029 11.4155 14.3281C11.381 14.2935 11.347 14.3281 11.347 14.3967C11.3126 14.5284 11.2501 14.6601 11.2158 14.7975C11.1813 14.8321 11.2158 14.8949 11.2158 14.9292C11.2907 15 11.3577 15.0787 11.4155 15.164C11.4153 15.1582 11.4498 15.1238 11.4498 15.0895ZM11.6837 14.2594C11.7182 14.0934 11.7182 13.9273 11.7521 13.7612C11.7521 13.6926 11.7521 13.6296 11.7177 13.5952L11.5522 13.4292C11.5177 13.3946 11.5177 13.4292 11.5177 13.4979C11.4835 13.6639 11.4493 13.83 11.4207 13.9616C11.4207 14.0303 11.4207 14.0934 11.4552 14.0934C11.5203 14.1513 11.5761 14.2189 11.6207 14.2937C11.6492 14.3566 11.6492 14.328 11.6835 14.2594H11.6837ZM11.7465 13.2975C11.7391 13.0862 11.7162 12.8756 11.678 12.6677C11.6783 12.6105 11.6665 12.5539 11.6435 12.5016L11.5465 12.4043V12.5016C11.5749 12.6988 11.5864 12.898 11.581 13.0971C11.581 13.1658 11.581 13.2288 11.6155 13.2631C11.6499 13.3319 11.7124 13.3605 11.7467 13.4292L11.7465 13.2975ZM11.5524 12.0035C11.4402 11.6634 11.3068 11.3306 11.153 11.0072C11.1165 10.916 11.0727 10.8279 11.0218 10.7439V10.8753C11.0285 11.0536 11.017 11.232 10.9873 11.4079V11.5395L11.0843 11.6368C11.1074 11.6098 11.1197 11.5751 11.1188 11.5395C11.1114 11.3282 11.0885 11.1177 11.0503 10.9097C11.0304 10.8565 11.0188 10.8005 11.0159 10.7437C11.0389 10.7959 11.0507 10.8525 11.0503 10.9097C11.1188 11.1444 11.1188 11.3735 11.1473 11.5739C11.1473 11.6425 11.1473 11.7056 11.1818 11.7056L11.2788 11.8029V11.6712C11.2473 11.4128 11.1919 11.1578 11.1133 10.9097C11.0788 10.8124 11.0448 10.7093 11.0448 10.7093C11.0448 10.7093 11.0793 10.8066 11.1133 10.9097C11.1974 11.1586 11.2641 11.413 11.313 11.6712C11.321 11.7272 11.3325 11.7827 11.3475 11.8372L11.4445 11.9346V11.8029C11.3764 11.509 11.2887 11.2201 11.182 10.9381C11.1424 10.8631 11.1099 10.7845 11.085 10.7034C11.1315 10.7749 11.1644 10.8545 11.182 10.9381C11.3015 11.2286 11.4006 11.527 11.4787 11.8313C11.5186 11.9401 11.5186 12.003 11.5529 12.003L11.6499 12.1004C11.5808 12.1695 11.5808 12.1065 11.5522 12.0034L11.5524 12.0035ZM8.40842 17.0479C8.50546 16.9791 8.60813 16.8818 8.70517 16.8131C8.7131 16.8077 8.71959 16.8005 8.72407 16.792C8.72856 16.7835 8.73091 16.774 8.73091 16.7644C8.73091 16.7548 8.72856 16.7454 8.72407 16.7369C8.71959 16.7284 8.7131 16.7211 8.70517 16.7157C8.60813 16.6184 8.5397 16.5153 8.44266 16.4524C8.42481 16.4358 8.40138 16.4266 8.37705 16.4266C8.35273 16.4266 8.3293 16.4358 8.31144 16.4524C8.21446 16.5211 8.11173 16.6184 8.01475 16.6871C8.00683 16.6925 8.00033 16.6998 7.99585 16.7083C7.99136 16.7167 7.98901 16.7262 7.98901 16.7358C7.98901 16.7454 7.99136 16.7549 7.99585 16.7633C8.00033 16.7718 8.00683 16.7791 8.01475 16.7845C8.11173 16.8818 8.18022 16.9848 8.2772 17.0822C8.31121 17.0476 8.3797 17.0819 8.40819 17.0476L8.40842 17.0479Z" fill="#171A21"/>
<path fill-rule="evenodd" clip-rule="evenodd" d="M14.3939 12.2383L17.8973 8.75717H14.9245L12.9046 10.744L10.8904 8.75146H10.4624C10.5097 8.87704 10.5649 8.99943 10.6279 9.11789C10.8873 9.84621 11.1082 10.5878 11.2898 11.3394C11.9516 12.1009 12.2484 13.1296 12.1799 14.4255L12.8761 13.7269L15.0272 15.8853H18L14.6563 12.5015L14.3938 12.2381" fill="#171A21"/>
</svg>
