<svg width="24" height="24" viewBox="0 0 24 24" fill="none" xmlns="http://www.w3.org/2000/svg">
<rect width="24" height="24" rx="12" fill="#0133AE"/>
<path d="M11.8068 4.91807C12.1501 4.73907 12.5691 5.15432 12.3867 5.49727C12.2808 5.77684 11.8792 5.85118 11.674 5.63808C11.4567 5.43356 11.5275 5.02934 11.8068 4.91807ZM8.11458 5.31607C8.32311 5.23023 8.58708 5.42128 8.56582 5.64855C8.58795 5.89528 8.28626 6.07688 8.07371 5.95962C7.7921 5.85055 7.82431 5.3934 8.11458 5.31607V5.31607ZM15.6767 5.96655C15.3508 5.92717 15.2992 5.41482 15.6129 5.31166C15.8563 5.19298 16.0795 5.41553 16.1151 5.64619C16.0641 5.84314 15.8992 6.02348 15.6767 5.96655ZM8.95469 6.88753C9.30332 6.66703 9.80078 6.99542 9.74715 7.40035C9.72904 7.80922 9.18598 8.0461 8.87956 7.76969C8.5833 7.55258 8.62819 7.05448 8.95469 6.88753ZM14.2767 7.1215C14.4322 6.72066 15.0625 6.70853 15.2395 7.09874C15.4145 7.4024 15.1993 7.77843 14.8875 7.88167C14.4745 7.95877 14.0823 7.51233 14.2767 7.1215ZM11.3622 7.85891C11.3588 7.51438 11.6726 7.25766 12 7.23419C12.2172 7.27774 12.454 7.37027 12.5471 7.58943C12.7208 7.89175 12.5666 8.30803 12.2528 8.44678C12.1093 8.52719 11.9397 8.49703 11.7835 8.48766C11.5446 8.3704 11.3435 8.14045 11.3622 7.85891V7.85891ZM5.8713 8.36095C6.18977 8.16517 6.61943 8.52246 6.49886 8.86841C6.43248 9.16766 6.03022 9.28941 5.80027 9.09836C5.5548 8.91937 5.59371 8.48899 5.8713 8.36095V8.36095ZM17.6622 8.36032C17.9324 8.15053 18.3783 8.39119 18.346 8.73233C18.3642 9.0434 17.9787 9.27799 17.7105 9.11782C17.4151 8.98504 17.3849 8.53058 17.6622 8.36032V8.36032ZM12.9063 8.97969C13.3522 8.81951 13.8818 9.01119 14.1359 9.40872C14.4711 9.89469 14.2928 10.6348 13.7725 10.9136C13.2335 11.2434 12.4464 10.9639 12.2473 10.3619C12.0213 9.82302 12.3506 9.14861 12.9063 8.97969V8.97969ZM10.2902 9.03269C10.7844 8.79943 11.4494 8.99512 11.6881 9.50062C11.969 9.99265 11.7518 10.6778 11.2496 10.9318C10.7468 11.2174 10.0374 11.0009 9.79409 10.4726C9.52122 9.96178 9.76353 9.26791 10.2902 9.03269V9.03269ZM7.67074 9.92823C7.70831 9.60985 8.00866 9.40266 8.31169 9.38124C8.63819 9.42061 8.89901 9.67419 8.93453 10.0046C8.91311 10.3318 8.66032 10.6515 8.31366 10.6495C7.93227 10.6823 7.5979 10.3029 7.67074 9.92823V9.92823ZM15.4078 9.45046C15.7993 9.22255 16.343 9.55433 16.3256 10.0041C16.3525 10.4807 15.7508 10.8166 15.3609 10.5371C14.9559 10.3043 14.9874 9.64867 15.4078 9.45046V9.45046ZM9.22559 11.1302C9.68352 11.0042 10.2071 11.2201 10.4317 11.641C10.6777 12.0646 10.5772 12.6532 10.1951 12.964C9.70502 13.4198 8.8012 13.2368 8.54038 12.6147C8.24066 12.0445 8.60472 11.2803 9.22559 11.1302V11.1302ZM14.1876 11.1278C14.6327 11.0005 15.1557 11.1721 15.395 11.5777C15.7115 12.0415 15.5604 12.7333 15.0893 13.0323C14.5959 13.3795 13.8315 13.1972 13.56 12.6543C13.2308 12.0928 13.5621 11.2991 14.1876 11.1278V11.1278ZM6.28025 11.657C6.67581 11.5074 7.1143 11.9439 6.95404 12.3361C6.85615 12.6934 6.35262 12.8255 6.09251 12.562C5.78814 12.3147 5.90083 11.7643 6.28025 11.657V11.657ZM17.0021 12.2262C16.9907 11.8984 17.2305 11.6081 17.5666 11.59C17.8375 11.6329 18.1009 11.8515 18.0795 12.1464C18.1043 12.5359 17.6349 12.8006 17.3031 12.6176C17.1475 12.5386 17.0678 12.379 17.0021 12.2262V12.2262ZM4.33528 11.8494C4.57326 11.7456 4.86763 11.9518 4.81329 12.2161C4.80053 12.5153 4.35875 12.6304 4.19644 12.3804C4.05304 12.2067 4.13888 11.939 4.33528 11.8494ZM19.3406 11.8434C19.5082 11.7241 19.777 11.8099 19.8434 12.0057C19.956 12.2195 19.7495 12.5124 19.5089 12.4763C19.171 12.5071 19.0617 11.9922 19.3406 11.8434ZM10.5182 13.2799C11.1444 13.1171 11.8176 13.6393 11.8215 14.2841C11.8624 14.9356 11.1994 15.5134 10.5584 15.3629C10.0629 15.2832 9.67407 14.8059 9.69014 14.3052C9.6888 13.8263 10.0502 13.3812 10.5182 13.2799ZM12.9982 13.2786C13.6338 13.1009 14.327 13.6325 14.317 14.2922C14.3505 14.9317 13.7082 15.49 13.0806 15.3632C12.4899 15.2868 12.0541 14.6379 12.219 14.0647C12.3023 13.6828 12.6214 13.3722 12.9982 13.2786V13.2786ZM8.21656 13.6755C8.65638 13.6004 9.06872 14.0911 8.89035 14.5087C8.76025 14.9538 8.11261 15.0745 7.82628 14.711C7.49041 14.3619 7.74115 13.7237 8.21656 13.6755ZM15.4895 13.6951C15.8817 13.5308 16.3631 13.8701 16.333 14.2957C16.3487 14.7643 15.7544 15.0874 15.3709 14.8139C14.9365 14.5684 15.0155 13.8457 15.4895 13.6951V13.6951ZM17.5224 15.7341C17.3688 15.4478 17.6478 15.0684 17.9656 15.1214C18.1238 15.1187 18.2345 15.2434 18.3357 15.348C18.3565 15.5176 18.3914 15.72 18.2506 15.8507C18.0594 16.0927 17.6263 16.0237 17.5224 15.7341ZM5.86996 15.2011C6.16701 15.0034 6.59447 15.2983 6.52769 15.6456C6.49217 15.9527 6.10527 16.1282 5.85043 15.954C5.57693 15.7958 5.58701 15.3453 5.86996 15.2011V15.2011ZM11.7384 15.844C12.1273 15.6724 12.6227 16.011 12.5859 16.4393C12.6147 16.9126 12.0019 17.2404 11.6217 16.9561C11.1994 16.7121 11.2698 15.9941 11.7384 15.844V15.844ZM9.02037 16.4781C9.35159 16.3039 9.79606 16.6048 9.7659 16.9755C9.77598 17.2799 9.47893 17.5393 9.17858 17.4943C8.9298 17.489 8.76758 17.2659 8.6878 17.0539C8.6919 16.8227 8.78703 16.5653 9.02037 16.4781V16.4781ZM14.5261 16.4835C14.8667 16.273 15.3508 16.5753 15.3186 16.9717C15.3273 17.386 14.7802 17.6514 14.4631 17.3793C14.1561 17.1659 14.1935 16.6531 14.5261 16.4835ZM15.4836 18.8505C15.332 18.6212 15.5104 18.3451 15.7564 18.2928C15.9542 18.333 16.1634 18.4818 16.1218 18.7111C16.093 19.0214 15.6391 19.1167 15.4836 18.8505V18.8505ZM7.88329 18.6514C7.94361 18.4697 8.08978 18.2891 8.30366 18.3364C8.61543 18.3585 8.70796 18.8284 8.43509 18.9733C8.18971 19.1387 7.90503 18.9121 7.88329 18.6514V18.6514ZM11.55 18.8599C11.6097 18.5911 11.9576 18.4604 12.1869 18.6031C12.3384 18.6682 12.3827 18.8377 12.4216 18.9818C12.4008 19.0569 12.3822 19.132 12.3639 19.2071C12.2701 19.3183 12.1494 19.4296 11.9932 19.4256C11.7028 19.4596 11.4409 19.1314 11.55 18.8599Z" fill="white"/>
</svg>
