<svg width="24" height="24" viewBox="0 0 24 24" fill="none" xmlns="http://www.w3.org/2000/svg">
<rect width="24" height="24" rx="12" fill="white"/>
<path fill-rule="evenodd" clip-rule="evenodd" d="M18.4177 12.1908C18.4163 12.2342 18.3573 12.2457 18.3402 12.2057C18.3329 12.1885 18.3254 12.1711 18.3178 12.1538C18.3039 12.1222 18.3078 12.0853 18.3286 12.0576C18.3329 12.052 18.3416 12.0405 18.3521 12.0268C18.3801 11.9901 18.4206 11.9956 18.4206 12.0364C18.4206 12.0898 18.4194 12.1361 18.4177 12.1908ZM18.1069 11.3422C18.0591 11.4284 17.9364 11.4324 17.8833 11.3493C17.875 11.3364 17.8667 11.3236 17.8583 11.3107C17.6668 11.0166 17.4464 10.728 17.2003 10.4474C17.1398 10.3786 17.1892 10.2705 17.2809 10.2704H17.2831C17.8583 10.2704 18.1599 10.4125 18.2519 10.586C18.3287 10.7311 18.3052 10.9849 18.1069 11.3422ZM17.9784 14.3503C17.9475 14.4288 17.9152 14.5068 17.8813 14.5841C17.876 14.5947 17.871 14.6055 17.8656 14.616C17.6538 15.0235 17.2986 15.3444 16.8239 15.5677C16.7173 15.6178 16.6008 15.5203 16.6325 15.407C16.7902 14.8428 16.9095 14.2309 16.9868 13.5895C17.0012 13.4699 17.0602 13.3601 17.1513 13.2813C17.3466 13.1124 17.5289 12.9437 17.6966 12.7763L17.6984 12.7744C17.7809 12.692 17.9217 12.7275 17.9553 12.8392C18.121 13.3899 18.1302 13.903 17.9784 14.3503ZM16.6879 16.3873C16.6396 16.4389 16.5904 16.4899 16.5401 16.5401C16.4526 16.6275 16.363 16.712 16.2715 16.7937C16.2138 16.8451 16.1264 16.7808 16.1591 16.7107C16.1684 16.6906 16.1777 16.6705 16.1869 16.6502C16.2253 16.5654 16.2625 16.4784 16.2986 16.3897C16.3072 16.3688 16.3252 16.3532 16.3471 16.3476C16.4381 16.3245 16.5269 16.299 16.6133 16.2711C16.6834 16.2486 16.7383 16.3335 16.6879 16.3873ZM15.7403 15.878C15.5486 15.9057 15.3471 15.9237 15.1363 15.9311C14.6219 15.9491 14.078 15.9047 13.5192 15.8019C13.4511 15.7893 13.438 15.6972 13.4998 15.666C13.6217 15.6043 13.7436 15.5412 13.8655 15.4766C14.7204 15.0235 15.5181 14.5282 16.2164 14.0203C16.2688 13.9822 16.3409 14.0272 16.3303 14.0911C16.2335 14.6731 16.0994 15.221 15.931 15.7183C15.9023 15.803 15.8289 15.8651 15.7403 15.878ZM15.5427 16.6534C15.0843 17.5549 14.5198 18.061 13.9726 18.0508C13.3779 18.0403 12.7848 17.4209 12.3457 16.3518L12.3451 16.3506C12.3173 16.2827 12.3493 16.205 12.4165 16.1758C12.4212 16.1737 12.4259 16.1717 12.4305 16.1696C12.4593 16.1571 12.4917 16.1548 12.522 16.1634C13.3435 16.3939 14.1529 16.5142 14.9113 16.5142C14.9937 16.5142 15.0755 16.5129 15.1567 16.51C15.2517 16.5066 15.3452 16.5013 15.437 16.494C15.5222 16.4872 15.5814 16.5772 15.5427 16.6534ZM12.8283 18.3677C12.5558 18.4028 12.2792 18.4207 12 18.4207C10.752 18.4207 9.55828 18.067 8.53344 17.4071C8.46294 17.3616 8.4929 17.2522 8.57669 17.2484C8.59407 17.2475 8.61031 17.2467 8.6246 17.2458C8.88504 17.2288 9.17061 17.1907 9.48003 17.1311C10.1382 17.0045 10.8699 16.7873 11.636 16.4948C11.7046 16.4686 11.7813 16.5027 11.8093 16.5707L11.8098 16.5718C12.1067 17.2947 12.4721 17.8409 12.8823 18.1883C12.9501 18.2458 12.9165 18.3564 12.8283 18.3677ZM9.11533 13.869C9.6811 13.4083 10.344 12.9486 11.0712 12.5134C11.0868 13.4435 11.1888 14.3365 11.3693 15.143C11.0996 15.028 10.8307 14.9014 10.5642 14.7629C10.0479 14.4946 9.56212 14.1941 9.11533 13.869ZM7.35582 16.3611C7.22084 16.1065 7.39529 15.5166 8.2815 14.6201L8.28194 14.6196C8.37448 14.5261 8.36561 14.3727 8.2623 14.2913C8.22679 14.2634 8.19154 14.2352 8.15654 14.207C8.06827 14.1357 7.94054 14.1422 7.8604 14.2225C7.84283 14.2401 7.82974 14.2533 7.8259 14.2573C7.38289 14.712 7.07284 15.1329 6.89915 15.5115C6.84992 15.6188 6.70122 15.6304 6.63612 15.5319C5.9486 14.4926 5.57931 13.2747 5.57931 12C5.57931 11.5442 5.62665 11.0958 5.71875 10.6601C5.73266 10.5942 5.82565 10.59 5.84516 10.6544C5.97838 11.0942 6.19519 11.5492 6.49479 12.0092C6.89808 12.6285 7.42992 13.2239 8.06015 13.77C8.27527 13.9564 8.50247 14.1367 8.73943 14.3106C9.21977 14.6631 9.74173 14.9884 10.297 15.2769C10.5432 15.4049 10.7829 15.5269 11.0285 15.6375C11.1651 15.699 11.3207 15.7038 11.4602 15.649C11.576 15.6037 11.6926 15.5565 11.8098 15.5075C11.9374 15.4543 12.0066 15.3152 11.9728 15.1812C11.9686 15.1644 11.9652 15.151 11.9633 15.143C11.77 14.3294 11.6625 13.4135 11.6499 12.4541L11.6495 12.4543C11.6494 12.4429 11.6494 12.4313 11.6493 12.4198C11.6487 12.3674 11.6491 12.3146 11.6481 12.2622C11.6478 12.2456 11.6483 12.2173 11.6485 12.2005C11.6486 12.1939 11.6485 12.1873 11.6485 12.1806L11.6487 12.1806C11.6491 12.1205 11.6495 12.0605 11.6506 12.0003C11.6535 11.8357 11.6594 11.6724 11.6679 11.5103L11.6676 11.5105C11.7272 10.3528 11.9235 9.26504 12.2359 8.34999C12.2648 8.26532 12.2196 8.17341 12.1349 8.14451C12.0524 8.11631 11.9699 8.08936 11.8876 8.06355C11.8043 8.03743 11.7153 8.08238 11.6871 8.16503C11.3486 9.15877 11.1398 10.3377 11.084 11.5853C11.0769 11.7436 10.9908 11.8876 10.8545 11.9684C10.1156 12.4063 9.43703 12.8705 8.8508 13.3384C8.72867 13.436 8.55422 13.4322 8.43612 13.3298C7.84856 12.8204 7.35406 12.2671 6.98023 11.693C6.24562 10.565 6.07104 9.50231 6.48881 8.70128C6.48994 8.69939 6.49095 8.69744 6.49202 8.69561C6.54528 8.60723 6.60068 8.52004 6.65835 8.43404C7.13837 7.79864 8.03182 7.43042 9.21675 7.38881C9.29173 7.38616 9.36721 7.38484 9.44339 7.38484C10.1702 7.38484 10.9502 7.50477 11.7435 7.73367L11.7437 7.73348C11.7611 7.73852 11.7784 7.74374 11.7958 7.74884C11.8092 7.75281 11.8226 7.75652 11.836 7.76055C12.0194 7.81532 12.2032 7.87607 12.3873 7.9423C12.3915 7.94381 12.3959 7.94539 12.4002 7.9469C12.4481 7.96421 12.496 7.98196 12.544 8.00003C12.5589 8.0057 12.574 8.01143 12.589 8.01722C12.6034 8.02276 12.6178 8.02811 12.6323 8.03371L12.6321 8.03396C13.0195 8.18392 13.4066 8.3583 13.7889 8.55699C14.5288 8.94139 15.206 9.39202 15.7954 9.8864C14.6706 10.1441 13.3632 10.6412 12.0486 11.3114C11.988 11.3423 11.9481 11.4033 11.9443 11.4713C11.9397 11.5527 11.9336 11.7165 11.9293 11.8467C11.9266 11.9285 12.013 11.9826 12.0854 11.9446L12.0862 11.9441C13.3877 11.2607 14.6866 10.7499 15.8021 10.4799C16.0106 10.4295 16.1456 10.2292 16.1163 10.0168C16.0958 9.86833 16.0727 9.72221 16.0471 9.57868C16.015 9.39838 15.9163 9.23715 15.7706 9.12622C15.2482 8.72823 14.6724 8.36315 14.056 8.04284C13.6406 7.82703 13.2191 7.63792 12.7968 7.47663C12.7064 7.44213 12.6677 7.33536 12.7149 7.25094C13.15 6.4725 13.6676 6.03654 14.1718 6.03654C14.177 6.03654 14.1822 6.03654 14.1874 6.03667C14.7822 6.04731 15.3752 6.66659 15.8144 7.73575C16.0367 8.27697 16.2089 8.9011 16.3266 9.57937C16.326 9.5788 16.3254 9.5783 16.3248 9.57773C16.3751 9.8672 16.4155 10.1664 16.4456 10.4733C16.443 10.4749 16.4402 10.4763 16.4376 10.478C16.4412 10.4816 16.4449 10.4852 16.4485 10.4888C16.4983 11.0038 16.5193 11.54 16.5095 12.0872C16.5033 12.4333 16.4848 12.7747 16.455 13.1087C15.6593 13.7517 14.6755 14.3916 13.5942 14.9647C13.2388 15.153 12.8835 15.3284 12.5316 15.4898C12.5261 15.4923 12.5207 15.4948 12.5153 15.4973C12.4884 15.5096 12.4614 15.522 12.4345 15.5342L12.4339 15.534C12.1424 15.6659 11.8536 15.7879 11.5696 15.8993L11.5697 15.8996C11.5537 15.9059 11.5378 15.9119 11.5218 15.9181C11.5018 15.9259 11.4819 15.9336 11.462 15.9413C11.4143 15.9596 11.3668 15.9776 11.3195 15.9952C11.3065 16.0001 11.2934 16.0052 11.2803 16.01C11.2229 16.0313 11.1657 16.052 11.1087 16.0724C11.1016 16.0749 11.0945 16.0777 11.0874 16.0802L11.0872 16.08C10.4786 16.2968 9.89886 16.4605 9.37055 16.5622C8.0939 16.808 7.49274 16.6194 7.35582 16.3611ZM8.27275 6.77059C9.3533 5.99682 10.6445 5.57931 12 5.57931C12.3577 5.57931 12.7109 5.60858 13.057 5.66568C13.1496 5.68098 13.1807 5.79927 13.1068 5.85725C12.7715 6.12015 12.4599 6.50914 12.1842 7.0136C12.1169 7.13667 11.9742 7.19686 11.8392 7.15883C10.9257 6.90167 10.0268 6.78067 9.19642 6.80981C8.89008 6.82058 8.59999 6.85162 8.32746 6.90185C8.2509 6.91596 8.20948 6.81586 8.27275 6.77059ZM17.0862 11.45C17.0844 11.3764 17.1788 11.345 17.2215 11.4049C17.2739 11.4785 17.3245 11.5525 17.3729 11.6268C17.4372 11.7257 17.4971 11.8239 17.5527 11.9216C17.5874 11.9825 17.5791 12.0588 17.5319 12.1106C17.4569 12.1929 17.3756 12.278 17.2873 12.3663C17.255 12.3985 17.2222 12.4307 17.1887 12.463C17.1471 12.5032 17.0774 12.4726 17.0797 12.4148C17.0838 12.3095 17.0868 12.2038 17.0887 12.0975C17.0926 11.88 17.0917 11.664 17.0862 11.45ZM16.4204 7.34323C16.4607 7.3815 16.5006 7.42041 16.5401 7.45988C17.1588 8.0786 17.6354 8.80157 17.9541 9.58894C17.9862 9.66832 17.9188 9.75142 17.8345 9.73625C17.6501 9.70314 17.4426 9.68834 17.2129 9.69218C17.0537 9.69483 16.9153 9.58327 16.8874 9.42652C16.7625 8.72653 16.582 8.07992 16.3502 7.5156C16.337 7.48343 16.3237 7.45164 16.3101 7.42016C16.2807 7.35147 16.3662 7.29173 16.4204 7.34323ZM18.8488 10.5441C18.5722 9.22978 17.9217 8.02219 16.9497 7.05017C15.6276 5.72807 13.8698 5 12 5C10.1302 5 8.37234 5.72807 7.05024 7.05017C6.72867 7.37175 6.44266 7.71919 6.1933 8.0876C6.11914 8.18631 6.05272 8.29057 5.99367 8.39967C5.34593 9.476 5 10.7114 5 12C5 13.8698 5.72813 15.6276 7.05024 16.9497C8.37234 18.2718 10.1302 19 12 19C13.8698 19 15.6276 18.2718 16.9497 16.9497C17.5737 16.3258 18.0652 15.6047 18.4104 14.8206C18.4526 14.7338 18.4894 14.6448 18.5211 14.5541C18.8354 13.751 19 12.8882 19 12C19 11.5111 18.9498 11.03 18.8526 10.5622C18.8513 10.5562 18.8501 10.5501 18.8488 10.5441Z" fill="black"/>
</svg>
