<svg width="24" height="24" viewBox="0 0 24 24" fill="none" xmlns="http://www.w3.org/2000/svg">
<circle cx="12" cy="12" r="12" fill="#0B0B0B"/>
<path fill-rule="evenodd" clip-rule="evenodd" d="M8.19289 6.49284C8.58341 6.10232 9.21658 6.10232 9.6071 6.49284L12.4071 9.29284C12.7976 9.68337 12.7976 10.3165 12.4071 10.7071C12.0166 11.0976 11.3834 11.0976 10.9929 10.7071L9.41465 9.12882L6.71077 11.9646C6.63727 12.0417 6.63708 12.1628 6.71033 12.2402L9.52595 15.2122C9.90578 15.6131 9.88867 16.2461 9.48774 16.6259C9.08681 17.0057 8.45387 16.9886 8.07404 16.5877L5.25842 13.6157C4.45267 12.7651 4.45481 11.4324 5.26329 10.5844L8.0262 7.68677C7.81389 7.30615 7.86945 6.81628 8.19289 6.49284ZM15.5071 17.4071C15.1166 17.7976 14.4834 17.7976 14.0929 17.4071L11.2929 14.6071C10.9024 14.2165 10.9024 13.5834 11.2929 13.1928C11.6834 12.8023 12.3166 12.8023 12.7071 13.1928L14.2853 14.7711L16.9892 11.9353C17.0627 11.8582 17.0629 11.7371 16.9897 11.6597L14.174 8.68769C13.7942 8.28676 13.8113 7.65383 14.2123 7.274C14.6132 6.89417 15.2461 6.91127 15.6259 7.3122L18.4416 10.2842C19.2473 11.1348 19.2452 12.4675 18.4367 13.3155L15.6738 16.2131C15.8861 16.5938 15.8305 17.0836 15.5071 17.4071Z" fill="white"/>
</svg>
