<svg width="24" height="24" viewBox="0 0 24 24" fill="none" xmlns="http://www.w3.org/2000/svg">
<rect width="24" height="24" rx="12" fill="#2E3148"/>
<path fill-rule="evenodd" clip-rule="evenodd" d="M10.4672 9.47156C10.4321 9.95027 10.4066 10.4486 10.3919 10.9618C9.94761 11.2338 9.5222 11.5076 9.11928 11.78C8.41413 11.2745 7.84955 10.8298 7.5494 10.5876C7.59846 10.4963 7.62629 10.3919 7.62629 10.2809C7.62629 9.92244 7.33569 9.63184 6.97721 9.63184C6.83678 9.63184 6.70676 9.67643 6.60055 9.75224C5.57804 8.75649 5.48883 8.26893 5.48883 8.26893L5.48831 8.26699C5.41386 8.09046 5.57103 8.04795 5.57103 8.04795C6.26687 7.91654 7.2443 8.21599 7.2443 8.21599C8.16367 8.42535 9.33197 8.91737 10.4672 9.47156ZM6.32812 10.2809C6.32812 10.1996 6.34308 10.1218 6.37038 10.0501C5.39579 9.11207 4.91825 8.33928 5.15431 7.93106C5.5415 7.2615 7.73836 7.76905 10.4998 9.06362C10.7637 6.02501 11.4238 3.87109 12.1961 3.87109C12.9697 3.87109 13.6305 6.0313 13.8936 9.07693C14.4563 8.81577 14.9954 8.58694 15.5006 8.39368C15.4989 8.37391 15.498 8.35389 15.498 8.33365C15.498 7.97517 15.7705 7.68457 16.1066 7.68457C16.3296 7.68457 16.5246 7.81257 16.6306 8.00346C18.0275 7.57978 19.0095 7.53162 19.2547 7.95896C19.6391 8.62911 18.1002 10.2745 15.5945 12.0162C18.0916 13.7685 19.6253 15.4202 19.2376 16.0888C18.8503 16.7586 16.6549 16.2505 13.8925 14.9551C13.6287 17.994 12.9686 20.1483 12.1961 20.1483C11.7193 20.1483 11.2853 19.3275 10.9609 17.9844C10.6372 17.9477 10.3857 17.673 10.3857 17.3395C10.3857 17.095 10.521 16.8821 10.7207 16.7714C10.6301 16.2104 10.5551 15.5958 10.4985 14.9401C7.72412 16.228 5.52068 16.7299 5.13576 16.0589C4.75137 15.3888 6.29011 13.7434 8.79571 12.0018C8.23905 11.6113 7.73032 11.2258 7.28013 10.8551C7.1897 10.9029 7.08662 10.93 6.97721 10.93C6.61873 10.93 6.32812 10.6394 6.32812 10.2809ZM11.3198 17.9229C11.5354 17.8174 11.6839 17.5958 11.6839 17.3395C11.6839 16.9937 11.4134 16.711 11.0725 16.6915C10.9803 16.0838 10.9144 15.4249 10.8677 14.7656C11.2978 14.5589 11.74 14.3344 12.1896 14.0933C12.6491 14.3423 13.1007 14.574 13.5397 14.7868C13.4134 16.0893 13.2467 17.046 13.2467 17.046C12.8614 19.229 12.3218 19.689 12.3218 19.689C12.2069 19.8422 12.092 19.7272 12.092 19.7272C11.6293 19.1912 11.398 18.1953 11.398 18.1953C11.3708 18.1077 11.3447 18.0168 11.3198 17.9229ZM15.6436 8.75496C15.1464 8.94222 14.5767 9.17569 13.9247 9.46592C13.9602 9.94811 13.9858 10.4502 14.0006 10.9674C14.4509 11.2459 14.8818 11.5262 15.2894 11.805C16.155 11.1899 17.1924 10.3717 18.1759 9.3898C18.1759 9.3898 18.9132 8.63782 18.9515 8.22088C18.955 8.18715 18.9465 8.15326 18.9274 8.12521C18.9083 8.09717 18.8799 8.07678 18.8473 8.06766C18.6489 8.01304 18.0867 7.96166 16.7131 8.38579C16.6882 8.71989 16.4262 8.98274 16.1066 8.98274C15.9212 8.98274 15.7552 8.89436 15.6436 8.75496ZM10.8132 9.64287C10.8024 9.75918 10.7918 9.87797 10.7814 9.99929C10.7814 9.99929 10.7718 10.2764 10.7659 10.736C10.9375 10.6338 11.1117 10.532 11.2882 10.4308C11.4558 10.3347 11.6228 10.2407 11.7889 10.1488C11.474 9.9805 11.1463 9.80994 10.8132 9.64287ZM12.2011 9.9244C11.7425 9.67588 11.2918 9.44466 10.8535 9.23222C11.2435 5.4365 11.8677 4.49735 12.0889 4.27858C12.113 4.25482 12.1446 4.2403 12.1783 4.23757C12.212 4.23485 12.2456 4.2441 12.2731 4.26369C12.6147 4.50574 12.9012 5.51801 12.9012 5.51801C13.264 6.86451 13.4571 8.17582 13.5594 9.23458C13.1178 9.4461 12.6634 9.67653 12.2011 9.9244ZM12.1824 10.3614C11.7803 10.5897 11.2903 10.8744 10.7619 11.1955C10.7598 11.6696 10.763 12.2541 10.7797 12.8916C11.1153 13.099 11.4593 13.3002 11.8039 13.486C11.8039 13.486 11.9405 13.5699 12.1898 13.7093C12.5577 13.5133 12.9251 13.3056 13.2782 13.0887C13.2782 13.0887 13.4201 13.0121 13.667 12.8654C13.6803 12.4471 13.683 12.0233 13.6706 11.6076C13.6706 11.6076 13.6744 11.4635 13.6711 11.2052C13.2627 10.9655 12.7504 10.6717 12.1824 10.3614ZM13.6603 10.7596C13.4797 10.6507 13.2962 10.5422 13.1101 10.4343C12.9342 10.3323 12.7589 10.2326 12.5845 10.1353C12.9883 9.91049 13.2349 9.78009 13.2349 9.78009C13.3569 9.72334 13.4763 9.66837 13.5933 9.61514C13.6295 10.0589 13.6495 10.4469 13.6603 10.7596ZM14.0104 11.406C14.0137 11.6053 14.0153 11.8066 14.0153 12.0097C14.0153 12.2276 14.0134 12.4434 14.0097 12.657C14.2771 12.4909 14.6059 12.279 14.9752 12.0247C14.868 11.9484 14.758 11.8707 14.645 11.7916C14.645 11.7916 14.4081 11.6432 14.0104 11.406ZM15.2714 12.2377C14.869 12.5098 14.4442 12.7832 14.0005 13.0549C13.9854 13.5817 13.959 14.0928 13.9225 14.5832C14.8886 15.0242 16.1166 15.5123 17.4595 15.8724C17.4595 15.8724 18.4791 16.1321 18.8598 15.9578C18.8906 15.9438 18.9155 15.9194 18.9301 15.8889C18.9447 15.8583 18.948 15.8236 18.9395 15.7908C18.8606 15.4906 18.3614 14.4788 15.2714 12.2377ZM13.5732 14.4206C13.6049 14.0529 13.6322 13.664 13.6511 13.266C13.4709 13.3735 13.2879 13.4806 13.1023 13.587C12.9148 13.6946 12.728 13.7995 12.5423 13.9017C12.8199 14.0499 13.1681 14.2282 13.5732 14.4206ZM11.8313 13.8965C11.6498 13.7954 11.4673 13.6918 11.2841 13.5856C11.1179 13.4893 10.9538 13.3925 10.7919 13.2953C10.804 13.6479 10.8205 14.0123 10.8425 14.3796C11.1617 14.2307 11.4949 14.0689 11.8313 13.8965ZM10.3823 12.6407C10.3788 12.4325 10.377 12.222 10.377 12.0097C10.377 11.8145 10.3785 11.6208 10.3815 11.429C10.0786 11.6169 9.76746 11.8146 9.45657 12.0187C9.74899 12.223 10.0601 12.4332 10.3823 12.6407ZM9.13198 12.2343C9.53102 12.5063 9.95211 12.7798 10.3917 13.0515C10.4065 13.5684 10.4321 14.0701 10.4675 14.5519C9.26893 15.0937 8.34985 15.4272 8.34985 15.4272C6.26448 16.1787 5.5973 15.9393 5.5973 15.9393H5.59723C5.40573 15.9152 5.44899 15.7578 5.44899 15.7578C5.68389 15.0899 6.4314 14.3936 6.4314 14.3936C7.07319 13.7031 8.08394 12.9389 9.13198 12.2343ZM12.17 13.0392C12.7525 13.0392 13.2248 12.567 13.2248 11.9844C13.2248 11.4019 12.7525 10.9297 12.17 10.9297C11.5875 10.9297 11.1152 11.4019 11.1152 11.9844C11.1152 12.567 11.5875 13.0392 12.17 13.0392Z" fill="#F8F8F8"/>
</svg>
