<svg width="25" height="24" viewBox="0 0 25 24" fill="none" xmlns="http://www.w3.org/2000/svg">
<g clip-path="url(#clip0_494_11918)">
<path d="M24.2727 12C24.2727 5.37258 18.9001 0 12.2727 0C5.64529 0 0.272705 5.37258 0.272705 12C0.272705 18.6274 5.64529 24 12.2727 24C18.9001 24 24.2727 18.6274 24.2727 12Z" fill="black"/>
<path fill-rule="evenodd" clip-rule="evenodd" d="M15.716 8.63331C15.6695 8.58677 15.6462 8.5402 15.6462 8.482C15.6462 8.4238 15.6695 8.37722 15.716 8.33065C15.809 8.24916 15.9485 8.24916 16.0415 8.33065C16.088 8.37722 16.1113 8.4238 16.1113 8.482C16.1113 8.5402 16.088 8.58677 16.0415 8.63331C15.995 8.66826 15.9369 8.69155 15.8787 8.69155C15.8206 8.70317 15.7625 8.67988 15.716 8.63331Z" fill="white"/>
<path fill-rule="evenodd" clip-rule="evenodd" d="M15.1463 9.23878C15.1114 9.1922 15.0881 9.14567 15.0881 9.08743C15.0881 9.02923 15.1114 8.98269 15.1463 8.93612C15.2276 8.85463 15.3672 8.85463 15.4485 8.93612C15.4834 8.98269 15.5067 9.02923 15.5067 9.08743C15.5067 9.14567 15.4834 9.1922 15.4485 9.23878C15.402 9.27369 15.3555 9.29698 15.2974 9.29698C15.2393 9.29698 15.1928 9.27369 15.1463 9.23878Z" fill="white"/>
<path fill-rule="evenodd" clip-rule="evenodd" d="M14.5296 9.83257C14.4947 9.79762 14.4714 9.73942 14.4714 9.68122C14.4714 9.62302 14.4947 9.57644 14.5296 9.52987C14.6109 9.44838 14.7504 9.44838 14.8318 9.52987C14.8667 9.56482 14.89 9.62302 14.89 9.68122C14.89 9.73942 14.8667 9.78599 14.8318 9.83257C14.7853 9.8791 14.7388 9.89077 14.6807 9.89077C14.6226 9.89077 14.5644 9.86748 14.5296 9.83257Z" fill="white"/>
<path fill-rule="evenodd" clip-rule="evenodd" d="M13.9362 10.4263C13.8897 10.3914 13.8665 10.3332 13.8665 10.2749C13.8665 10.2167 13.8897 10.1702 13.9362 10.1236C14.0292 10.0421 14.1687 10.0421 14.2617 10.1236C14.3082 10.1585 14.3315 10.2167 14.3315 10.2749C14.3315 10.3332 14.3082 10.3914 14.2617 10.4263C14.2152 10.4729 14.1571 10.4845 14.099 10.4845C14.0408 10.4845 13.9827 10.4729 13.9362 10.4263Z" fill="white"/>
<path fill-rule="evenodd" clip-rule="evenodd" d="M13.3679 11.0198C13.3214 10.9849 13.3098 10.9267 13.3098 10.8685C13.3098 10.8103 13.3331 10.7637 13.3679 10.7171C13.4494 10.6356 13.5889 10.6356 13.6702 10.7171C13.7167 10.7521 13.7284 10.8103 13.7284 10.8685C13.7284 10.9267 13.7051 10.9849 13.6702 11.0198C13.6354 11.0664 13.5772 11.078 13.5191 11.078C13.461 11.0896 13.4028 11.0664 13.3679 11.0198Z" fill="white"/>
<path fill-rule="evenodd" clip-rule="evenodd" d="M12.6814 11.4622C12.6814 11.404 12.7046 11.3574 12.7396 11.3109C12.8209 11.2294 12.9604 11.2294 13.0418 11.3109C13.0883 11.3574 13.0999 11.404 13.0999 11.4622C13.0999 11.5204 13.0767 11.567 13.0418 11.6136C13.0069 11.6485 12.9488 11.6718 12.8907 11.6718C12.8326 11.6718 12.7861 11.6485 12.7396 11.6136C12.7046 11.5786 12.6814 11.5204 12.6814 11.4622Z" fill="white"/>
<path fill-rule="evenodd" clip-rule="evenodd" d="M11.5764 12.7776C11.5416 12.7427 11.5183 12.6845 11.5183 12.6263C11.5183 12.5681 11.5416 12.5215 11.5764 12.4749C11.6578 12.3934 11.7973 12.3934 11.8787 12.4749C11.9252 12.5215 11.9368 12.5681 11.9368 12.6263C11.9368 12.6845 11.9136 12.7311 11.8787 12.7776C11.8438 12.8242 11.7857 12.8358 11.7276 12.8358C11.6694 12.8475 11.6229 12.8242 11.5764 12.7776Z" fill="white"/>
<path fill-rule="evenodd" clip-rule="evenodd" d="M10.9611 13.3713C10.9146 13.3364 10.8914 13.2782 10.8914 13.22C10.8914 13.1618 10.9146 13.1153 10.9611 13.0687C11.0541 12.9872 11.1936 12.9872 11.2866 13.0687C11.3331 13.1153 11.3564 13.1618 11.3564 13.22C11.3564 13.2782 11.3331 13.3248 11.2866 13.3713C11.2401 13.4179 11.182 13.4295 11.1239 13.4295C11.0657 13.4412 11.0076 13.4179 10.9611 13.3713Z" fill="white"/>
<path fill-rule="evenodd" clip-rule="evenodd" d="M10.3914 13.9769C10.3565 13.9419 10.3333 13.8837 10.3333 13.8255C10.3333 13.7673 10.3565 13.7091 10.3914 13.6742C10.4728 13.5927 10.6123 13.5927 10.6937 13.6742C10.7285 13.7091 10.7518 13.7673 10.7518 13.8255C10.7518 13.8837 10.7285 13.9303 10.6937 13.9769C10.6472 14.0234 10.6007 14.0351 10.5425 14.0351C10.4844 14.0351 10.4379 14.0118 10.3914 13.9769Z" fill="white"/>
<path fill-rule="evenodd" clip-rule="evenodd" d="M9.79812 14.5703C9.75162 14.5354 9.73999 14.4772 9.73999 14.419C9.73999 14.3608 9.76324 14.3142 9.79812 14.2677C9.87949 14.1862 10.019 14.1862 10.1004 14.2677C10.1353 14.3142 10.1585 14.3608 10.1585 14.419C10.1585 14.4772 10.1353 14.5354 10.1004 14.5703C10.0539 14.6169 10.0074 14.6285 9.94924 14.6285C9.89112 14.6285 9.83299 14.6169 9.79812 14.5703Z" fill="white"/>
<path fill-rule="evenodd" clip-rule="evenodd" d="M9.18132 15.1641C9.13482 15.1292 9.11157 15.071 9.11157 15.0128C9.11157 14.9546 9.13482 14.908 9.18132 14.8614C9.27432 14.7799 9.41386 14.7799 9.49523 14.8614C9.54173 14.908 9.56499 14.9546 9.56499 15.0128C9.56499 15.071 9.54173 15.1292 9.49523 15.1641C9.44873 15.199 9.39061 15.2223 9.33249 15.2223C9.27432 15.2223 9.2162 15.2106 9.18132 15.1641Z" fill="white"/>
<path fill-rule="evenodd" clip-rule="evenodd" d="M8.59987 15.7578C8.55337 15.7112 8.54175 15.6647 8.54175 15.6065C8.54175 15.5483 8.565 15.5017 8.59987 15.4552C8.68125 15.3737 8.82075 15.3737 8.90212 15.4552C8.94866 15.5017 8.96029 15.5483 8.96029 15.6065C8.96029 15.6647 8.93704 15.7112 8.90212 15.7578C8.86725 15.7927 8.80912 15.816 8.751 15.816C8.7045 15.8276 8.64637 15.8044 8.59987 15.7578Z" fill="white"/>
<path fill-rule="evenodd" clip-rule="evenodd" d="M8.90212 8.63331C8.93704 8.58677 8.96029 8.5402 8.96029 8.482C8.96029 8.4238 8.93704 8.37722 8.90212 8.33065C8.82075 8.24916 8.68125 8.24916 8.59987 8.33065C8.55337 8.37722 8.54175 8.4238 8.54175 8.482C8.54175 8.5402 8.565 8.58677 8.59987 8.63331C8.63475 8.66826 8.69287 8.69155 8.751 8.69155C8.80912 8.70317 8.86725 8.67988 8.90212 8.63331Z" fill="white"/>
<path fill-rule="evenodd" clip-rule="evenodd" d="M9.4951 9.23878C9.5416 9.1922 9.56489 9.14567 9.56489 9.08743C9.56489 9.02923 9.5416 8.98269 9.4951 8.93612C9.4021 8.85463 9.2626 8.85463 9.1696 8.93612C9.1231 8.98269 9.09985 9.02923 9.09985 9.08743C9.09985 9.14567 9.1231 9.1922 9.1696 9.23878C9.2161 9.27369 9.27423 9.29698 9.33235 9.29698C9.39048 9.29698 9.4486 9.27369 9.4951 9.23878Z" fill="white"/>
<path fill-rule="evenodd" clip-rule="evenodd" d="M10.1004 9.83257C10.1353 9.79762 10.1585 9.73942 10.1585 9.68122C10.1585 9.62302 10.1353 9.57644 10.1004 9.52987C10.019 9.44838 9.87949 9.44838 9.79812 9.52987C9.76324 9.56482 9.73999 9.62302 9.73999 9.68122C9.73999 9.73942 9.76324 9.78599 9.79812 9.83257C9.84462 9.8791 9.89112 9.89077 9.94924 9.89077C9.99574 9.89077 10.0539 9.86748 10.1004 9.83257Z" fill="white"/>
<path fill-rule="evenodd" clip-rule="evenodd" d="M10.6937 10.4263C10.7285 10.3914 10.7518 10.3332 10.7518 10.2749C10.7518 10.2167 10.7285 10.1702 10.6937 10.1236C10.6123 10.0421 10.4728 10.0421 10.3914 10.1236C10.3565 10.1585 10.3333 10.2167 10.3333 10.2749C10.3333 10.3332 10.3565 10.3914 10.3914 10.4263C10.4379 10.4729 10.4844 10.4845 10.5425 10.4845C10.589 10.4845 10.6472 10.4729 10.6937 10.4263Z" fill="white"/>
<path fill-rule="evenodd" clip-rule="evenodd" d="M11.275 11.0198C11.3215 10.9849 11.3448 10.9267 11.3448 10.8685C11.3448 10.8103 11.3215 10.7637 11.275 10.7171C11.1936 10.6356 11.0425 10.6356 10.9611 10.7171C10.9146 10.7521 10.8914 10.8103 10.8914 10.8685C10.8914 10.9267 10.9146 10.9849 10.9611 11.0198C11.0076 11.0664 11.0657 11.078 11.1239 11.078C11.182 11.0896 11.2401 11.0664 11.275 11.0198Z" fill="white"/>
<path fill-rule="evenodd" clip-rule="evenodd" d="M11.9368 11.4622C11.9368 11.404 11.9136 11.3574 11.8787 11.3109C11.7973 11.2294 11.6578 11.2294 11.5764 11.3109C11.5299 11.3574 11.5183 11.404 11.5183 11.4622C11.5183 11.5204 11.5416 11.567 11.5764 11.6136C11.6113 11.6485 11.6694 11.6718 11.7276 11.6718C11.7857 11.6718 11.8322 11.6485 11.8787 11.6136C11.9252 11.5786 11.9368 11.5204 11.9368 11.4622Z" fill="white"/>
<path fill-rule="evenodd" clip-rule="evenodd" d="M12.472 12.219C12.5185 12.1725 12.5301 12.1259 12.5301 12.0677C12.5301 12.0095 12.5069 11.9629 12.472 11.9163C12.3906 11.8349 12.2511 11.8349 12.1697 11.9163C12.1232 11.9629 12.1116 12.0095 12.1116 12.0677C12.1116 12.1259 12.1348 12.1725 12.1697 12.219C12.2046 12.254 12.2627 12.2772 12.3209 12.2772C12.379 12.2772 12.4371 12.254 12.472 12.219Z" fill="white"/>
<path fill-rule="evenodd" clip-rule="evenodd" d="M13.0651 12.7776C13.1116 12.7427 13.1348 12.6845 13.1348 12.6263C13.1348 12.5681 13.1116 12.5215 13.0651 12.4749C12.9721 12.3934 12.8326 12.3934 12.7512 12.4749C12.7046 12.5215 12.6814 12.5681 12.6814 12.6263C12.6814 12.6845 12.7046 12.7311 12.7512 12.7776C12.7977 12.8242 12.8558 12.8358 12.9139 12.8358C12.9604 12.8475 13.0186 12.8242 13.0651 12.7776Z" fill="white"/>
<path fill-rule="evenodd" clip-rule="evenodd" d="M13.6702 13.3713C13.7051 13.3364 13.7284 13.2782 13.7284 13.22C13.7284 13.1618 13.7051 13.1153 13.6702 13.0687C13.5889 12.9872 13.4494 12.9872 13.3679 13.0687C13.3331 13.1153 13.3098 13.1618 13.3098 13.22C13.3098 13.2782 13.3331 13.3248 13.3679 13.3713C13.4144 13.4179 13.461 13.4295 13.5191 13.4295C13.5656 13.4412 13.6237 13.4179 13.6702 13.3713Z" fill="white"/>
<path fill-rule="evenodd" clip-rule="evenodd" d="M14.262 13.9769C14.2969 13.9419 14.3201 13.8837 14.3201 13.8255C14.3201 13.7673 14.2969 13.7091 14.262 13.6742C14.1806 13.5927 14.0411 13.5927 13.9597 13.6742C13.9249 13.7091 13.9016 13.7673 13.9016 13.8255C13.9016 13.8837 13.9249 13.9303 13.9597 13.9769C14.0062 14.0234 14.0527 14.0351 14.1109 14.0351C14.169 14.0351 14.2155 14.0118 14.262 13.9769Z" fill="white"/>
<path fill-rule="evenodd" clip-rule="evenodd" d="M14.8216 14.5703C14.8681 14.5354 14.8797 14.4772 14.8797 14.419C14.8797 14.3608 14.8565 14.3142 14.8216 14.2677C14.7402 14.1862 14.6007 14.1862 14.5193 14.2677C14.4844 14.3142 14.4612 14.3608 14.4612 14.419C14.4612 14.4772 14.4844 14.5354 14.5193 14.5703C14.5658 14.6169 14.6123 14.6285 14.6705 14.6285C14.7286 14.6285 14.7867 14.6169 14.8216 14.5703Z" fill="white"/>
<path fill-rule="evenodd" clip-rule="evenodd" d="M15.4485 15.1641C15.495 15.1292 15.5067 15.071 15.5067 15.0128C15.5067 14.9546 15.4834 14.908 15.4485 14.8614C15.3672 14.7799 15.2276 14.7799 15.1463 14.8614C15.0998 14.908 15.0881 14.9546 15.0881 15.0128C15.0881 15.071 15.1114 15.1292 15.1463 15.1641C15.1811 15.199 15.2393 15.2223 15.2974 15.2223C15.3555 15.2223 15.4137 15.2106 15.4485 15.1641Z" fill="white"/>
<path fill-rule="evenodd" clip-rule="evenodd" d="M16.0416 15.7578C16.0881 15.7112 16.1114 15.6647 16.1114 15.6065C16.1114 15.5483 16.0881 15.5017 16.0416 15.4552C15.9486 15.3737 15.8091 15.3737 15.7277 15.4552C15.6812 15.5017 15.658 15.5483 15.658 15.6065C15.658 15.6647 15.6812 15.7112 15.7277 15.7578C15.7742 15.7927 15.8324 15.816 15.8905 15.816C15.937 15.8276 15.9951 15.8044 16.0416 15.7578Z" fill="white"/>
<path fill-rule="evenodd" clip-rule="evenodd" d="M10.31 8.79638C10.9145 8.40056 11.5772 8.2143 12.3096 8.20268C13.0304 8.20268 13.6931 8.40056 14.3092 8.79638L15.5881 7.51583C14.5883 6.75915 13.5071 6.375 12.3096 6.375C11.1121 6.375 10.0193 6.75915 9.04272 7.51583L10.31 8.79638Z" fill="white"/>
<path fill-rule="evenodd" clip-rule="evenodd" d="M9.03102 14.0466C8.6241 13.4296 8.42644 12.7661 8.42644 12.056C8.42644 11.3342 8.6241 10.6706 9.03102 10.0653L7.76378 8.79639C7.01974 9.77427 6.64771 10.8569 6.64771 12.0676C6.64771 13.255 7.01974 14.3493 7.77541 15.3388L9.03102 14.0466Z" fill="white"/>
<path fill-rule="evenodd" clip-rule="evenodd" d="M14.3091 15.3154C13.7046 15.7229 13.0419 15.9324 12.3211 15.944C11.5887 15.944 10.9144 15.7462 10.3098 15.3271L9.03101 16.596C10.0192 17.3643 11.112 17.7485 12.3211 17.7368C13.5186 17.7252 14.5998 17.341 15.5763 16.596L14.3091 15.3154Z" fill="white"/>
<path fill-rule="evenodd" clip-rule="evenodd" d="M15.5525 10.0536C15.9594 10.6706 16.1687 11.3458 16.157 12.0792C16.1454 12.7894 15.9478 13.4412 15.5525 14.0349L16.8313 15.3038C17.587 14.326 17.9707 13.2433 17.9707 12.0559C17.9823 10.8452 17.5986 9.75099 16.8313 8.76147L15.5525 10.0536Z" fill="white"/>
<path fill-rule="evenodd" clip-rule="evenodd" d="M16.8901 15.7112C17.3783 15.7112 17.7852 16.107 17.7852 16.6076C17.7852 17.0965 17.3899 17.5039 16.8901 17.5039C16.4018 17.5039 15.9949 17.1081 15.9949 16.6076C15.9949 16.107 16.3902 15.7112 16.8901 15.7112Z" fill="white"/>
<path fill-rule="evenodd" clip-rule="evenodd" d="M7.75247 15.7112C8.24076 15.7112 8.63605 16.107 8.63605 16.6076C8.63605 17.0965 8.24076 17.5039 7.75247 17.5039C7.26418 17.5039 6.8689 17.1081 6.8689 16.6076C6.8689 16.107 7.26418 15.7112 7.75247 15.7112Z" fill="white"/>
<path fill-rule="evenodd" clip-rule="evenodd" d="M16.9018 6.573C17.3901 6.573 17.7854 6.96881 17.7854 7.4694C17.7854 7.96995 17.3901 8.36576 16.9018 8.36576C16.4136 8.36576 16.0183 7.96995 16.0183 7.4694C16.0183 6.96881 16.4136 6.573 16.9018 6.573Z" fill="white"/>
<path fill-rule="evenodd" clip-rule="evenodd" d="M7.74066 6.573C8.22895 6.573 8.63586 6.96881 8.63586 7.45774C8.63586 7.94666 8.24057 8.34247 7.74066 8.34247C7.25237 8.34247 6.84546 7.94666 6.84546 7.45774C6.84546 6.96881 7.24075 6.573 7.74066 6.573Z" fill="white"/>
</g>
<defs>
<clipPath id="clip0_494_11918">
<rect width="24" height="24" fill="white" transform="translate(0.272705)"/>
</clipPath>
</defs>
</svg>
