<svg width="26" height="24" viewBox="0 0 26 24" fill="none" xmlns="http://www.w3.org/2000/svg">
<g clip-path="url(#clip0_494_11921)">
<path d="M12.8352 24C19.463 24 24.8352 18.6278 24.8352 12C24.8352 5.37225 19.463 0 12.8352 0C6.20746 0 0.835205 5.37225 0.835205 12C0.835205 18.6278 6.20746 24 12.8352 24Z" fill="url(#paint0_linear_494_11921)"/>
<path d="M11.0038 7.09094C8.15227 8.18594 7.89127 10.9887 7.07302 12.2982C6.24577 13.6234 4.3505 14.3539 4.60927 15.0289C4.86877 15.7039 6.76627 14.9794 8.26777 15.4099C9.75127 15.8352 11.8213 17.7447 14.6728 16.6497C15.3631 16.3855 15.9879 15.9747 16.5039 15.4454C17.0199 14.9162 17.4149 14.2812 17.6615 13.5844C17.6738 13.5505 17.6782 13.5143 17.6743 13.4784C17.6704 13.4426 17.6584 13.4081 17.6391 13.3777C17.6199 13.3472 17.5939 13.3215 17.5632 13.3026C17.5325 13.2837 17.4979 13.2721 17.462 13.2687C17.415 13.2641 17.3677 13.2738 17.3264 13.2966C17.285 13.3193 17.2515 13.354 17.2303 13.3962C16.8644 14.1222 16.2888 14.7215 15.5782 15.1165C14.8677 15.5115 14.0548 15.684 13.245 15.6114C12.4353 15.5389 11.666 15.2248 11.0369 14.7099C10.4077 14.1949 9.94784 13.5029 9.71677 12.7234C10.6912 12.2714 11.681 11.8534 12.6845 11.4702C13.6695 11.0901 14.667 10.7437 15.6755 10.4314C16.2778 10.2469 16.8305 10.0924 17.3293 9.96644L17.4365 9.94019C17.5115 9.92144 17.5888 9.96194 17.6165 10.0339L17.6173 10.0354C17.6338 10.0782 17.648 10.1217 17.663 10.1652C17.762 10.4442 17.8355 10.7262 17.885 11.0082C17.8898 11.0368 17.9014 11.064 17.9187 11.0873C17.9361 11.1106 17.9587 11.1295 17.9848 11.1424C18.0108 11.1553 18.0396 11.1618 18.0687 11.1614C18.0977 11.161 18.1263 11.1538 18.152 11.1402C18.5313 10.9378 18.9044 10.7242 19.271 10.4997C20.5175 9.73169 21.209 9.08069 21.0673 8.71169C20.9248 8.34194 19.976 8.32094 18.5353 8.58419C17.93 8.69688 17.3295 8.83398 16.7353 8.99519C16.2755 9.11669 15.7903 9.25694 15.2848 9.41369C14.2769 9.72727 13.2796 10.074 12.2945 10.4532C11.368 10.8076 10.4526 11.1903 9.54952 11.6007C9.54573 10.9386 9.70402 10.2856 10.0106 9.6988C10.3171 9.11197 10.7626 8.60905 11.3082 8.23394C11.8539 7.85887 12.4829 7.62295 13.1406 7.54687C13.7983 7.47078 14.4647 7.5568 15.0815 7.79744C15.1715 7.83269 15.2735 7.80794 15.3388 7.73744C15.3631 7.71074 15.381 7.67883 15.3912 7.64414C15.4013 7.60945 15.4034 7.57293 15.3972 7.5373C15.3911 7.50172 15.3769 7.46797 15.3557 7.43872C15.3345 7.40943 15.3069 7.38539 15.275 7.36844C14.6255 7.01598 13.9072 6.80864 13.1698 6.76075C12.4324 6.71283 11.6934 6.82548 11.0038 7.09094Z" fill="white"/>
</g>
<defs>
<linearGradient id="paint0_linear_494_11921" x1="12.8352" y1="0" x2="12.8352" y2="24" gradientUnits="userSpaceOnUse">
<stop stop-color="#424242"/>
<stop offset="1"/>
</linearGradient>
<clipPath id="clip0_494_11921">
<rect width="24.375" height="24" fill="white" transform="translate(0.647705)"/>
</clipPath>
</defs>
</svg>
