<svg width="24" height="24" viewBox="0 0 24 24" fill="none" xmlns="http://www.w3.org/2000/svg">
<path d="M12 24C18.6274 24 24 18.6274 24 12C24 5.37257 18.6274 0 12 0C5.37257 0 0 5.37257 0 12C0 18.6274 5.37257 24 12 24Z" fill="#00EF8B"/>
<path d="M17.2654 10.1233H13.8766V13.5121H17.2654V10.1233Z" fill="white"/>
<path d="M10.4904 14.7817C10.4904 15.0333 10.4159 15.2792 10.2761 15.4884C10.1363 15.6975 9.93767 15.8606 9.70522 15.9569C9.4728 16.0531 9.21707 16.0783 8.9703 16.0293C8.72357 15.9801 8.4969 15.859 8.319 15.6811C8.14115 15.5032 8.01999 15.2766 7.97092 15.0298C7.9218 14.7831 7.947 14.5273 8.0433 14.2949C8.13956 14.0625 8.30259 13.8638 8.51177 13.7241C8.72096 13.5843 8.96687 13.5097 9.21845 13.5097H10.4904V10.1233H9.21845C8.2971 10.1233 7.39646 10.3965 6.63039 10.9083C5.86432 11.4202 5.26723 12.1478 4.91465 12.999C4.56206 13.8502 4.46983 14.7868 4.64957 15.6905C4.82932 16.5941 5.27297 17.4242 5.92449 18.0757C6.57596 18.7272 7.40602 19.1708 8.30966 19.3506C9.2133 19.5303 10.1499 19.4381 11.0012 19.0855C11.8524 18.7329 12.5799 18.1358 13.0918 17.3697C13.6036 16.6037 13.8768 15.703 13.8768 14.7817V13.5097H10.4904V14.7817Z" fill="white"/>
<path d="M15.1488 8.42884H18.96V5.04004H15.1488C13.9137 5.04132 12.7296 5.53251 11.8562 6.40585C10.9828 7.2792 10.4916 8.46334 10.4904 9.69844V10.1232H13.8768V9.69844C13.8774 9.3615 14.0117 9.03857 14.2502 8.80054C14.4887 8.56251 14.8118 8.42884 15.1488 8.42884Z" fill="white"/>
<path d="M10.4904 13.5097H13.8768V10.1233H10.4904V13.5097Z" fill="#16FF99"/>
</svg>
