<svg width="24" height="24" viewBox="0 0 24 24" fill="none" xmlns="http://www.w3.org/2000/svg">
<circle cx="12" cy="12" r="12" fill="#282828"/>
<path d="M18.4051 7.72998C18.0747 7.83816 17.7396 7.94164 17.3997 8.03571C13.9918 8.94349 10.5461 8.76946 7.43548 7.72998L6.8313 11.5775L8.05383 11.9067L9.18193 9.84657C9.48403 9.90772 9.78613 9.95946 10.0929 10.0065L10.4422 12.3253L11.7025 12.4335L12.453 10.2087C12.7598 10.2182 13.0713 10.2182 13.3782 10.2087L14.1287 12.4335L15.389 12.3253L15.7383 10.0018C16.0403 9.95475 16.3424 9.90301 16.6492 9.84187L17.7774 11.9067L18.9999 11.5822L18.4051 7.72998Z" fill="white"/>
<path d="M15.9508 12.4428L14.8227 14.5077C14.5206 14.4465 14.2185 14.3948 13.9117 14.3477L13.5624 12.0242L12.2974 11.916L11.5469 14.1408C11.2353 14.1314 10.9285 14.1314 10.6217 14.1408L9.87121 11.916L8.61091 12.0242L8.26162 14.343C7.95481 14.3901 7.65273 14.4418 7.35064 14.5029L6.22252 12.4428L5 12.7721L5.60418 16.6148C8.71477 15.5754 12.1605 15.4013 15.5684 16.3138C15.9083 16.4032 16.2434 16.5067 16.5738 16.6196L17.178 12.7721L15.9508 12.4428Z" fill="white"/>
</svg>
