<svg width="24" height="24" viewBox="0 0 24 24" fill="none" xmlns="http://www.w3.org/2000/svg">
<rect width="24" height="24" rx="12" fill="#0B0B0B"/>
<path fill-rule="evenodd" clip-rule="evenodd" d="M9.34622 15.0332L6.24932 15.3815L8.06777 11.1857L6.20612 8.64766L10.7327 8.13196L11.9625 5.30371L14.6571 8.96626L17.754 8.61796L15.9437 12.7935L17.7918 15.314L13.2882 15.827L12.0395 18.6957L9.34622 15.0332ZM10.632 14.7548C10.5132 14.8129 10.3863 14.8615 10.2554 14.8979L10.1366 14.9303L11.8821 17.3036L12.5018 15.878L12.3897 15.8632C11.7795 15.7862 11.2247 15.4568 10.8669 14.9627L10.6928 14.7224L10.632 14.7548ZM11.4345 14.5512L10.0264 12.6031L11.8462 12.375L13.6687 14.7874L14.7163 12.4209L14.8027 12.4924C14.8959 12.5707 14.9796 12.6599 15.0525 12.7584L16.5159 14.755L12.8412 15.1735C12.7858 15.1803 12.7291 15.183 12.6724 15.183C12.1837 15.183 11.7207 14.9467 11.4345 14.5512ZM10.085 10.2313C9.53963 10.2894 9.06443 10.639 8.84573 11.1439L7.37018 14.55L9.82178 14.2746C9.94328 14.2611 10.0621 14.2327 10.1768 14.1909L10.2821 14.1517L8.76473 12.0565L11.7563 11.6772L12.4678 9.97754L10.085 10.2313ZM13.5079 13.4168L12.3995 11.9494L13.5686 9.15621L11.005 9.42756L11.0239 9.31686C11.0455 9.19536 11.0806 9.07791 11.1292 8.96586L12.1174 6.69516L14.3138 9.68406C14.6405 10.1269 14.704 10.7141 14.4812 11.2177L14.1842 11.89L13.5079 13.4168ZM15.0932 9.6219L15.1364 9.72585C15.374 10.2942 15.3686 10.9422 15.1202 11.5025L15.0001 11.7725L15.0581 11.8116C15.1688 11.8859 15.2728 11.9723 15.3686 12.0681L15.4564 12.1545L16.6295 9.44775L15.0932 9.6219ZM8.4176 10.4811L7.4834 9.20665L10.4196 8.87185L10.3859 8.99335C10.3467 9.13645 10.3211 9.2836 10.3116 9.43075L10.3062 9.5023L10.0133 9.53335C9.41525 9.5968 8.8577 9.91 8.48645 10.392L8.4176 10.4811Z" fill="url(#paint0_linear_18_1315)"/>
<path d="M11.3471 18.7503C9.40311 18.5627 7.65621 17.5515 6.51276 15.9491L7.29576 15.8613C7.42536 16.0206 7.56306 16.1732 7.70481 16.3163C8.55396 17.1695 9.61641 17.7446 10.7815 17.9822L11.3471 18.7503Z" fill="url(#paint1_linear_18_1315)"/>
<path d="M12.9767 18.0253C14.2376 17.8214 15.3838 17.2315 16.295 16.3162C16.376 16.2338 16.4584 16.1461 16.5407 16.0543L17.4898 15.9463C16.3504 17.5474 14.6062 18.5599 12.6622 18.7502L12.9767 18.0253Z" fill="url(#paint2_linear_18_1315)"/>
<path d="M17.6846 14.1639C17.9438 13.4741 18.0761 12.7464 18.0761 11.9999C18.0761 11.3411 17.9722 10.6931 17.7683 10.0748L18.149 9.19727C18.5486 10.0788 18.7511 11.0211 18.7511 11.9999C18.7511 12.9773 18.5486 13.9182 18.1504 14.7998L17.6846 14.1639Z" fill="url(#paint3_linear_18_1315)"/>
<path d="M5.8548 14.8099C5.45385 13.9257 5.25 12.982 5.25 12.0006C5.25 11.0137 5.4552 10.0647 5.86155 9.17773L6.32595 9.81223C6.06 10.5088 5.925 11.2446 5.925 12.0006C5.925 12.6621 6.02895 13.3114 6.23415 13.9324L5.8548 14.8099Z" fill="url(#paint4_linear_18_1315)"/>
<path d="M6.54108 8.0121C7.68318 6.4353 9.41658 5.4363 11.343 5.25L11.0285 5.9736C9.76623 6.1761 8.61738 6.7674 7.70478 7.68405C7.63593 7.7529 7.56708 7.82715 7.49823 7.90275L6.54108 8.0121Z" fill="url(#paint5_linear_18_1315)"/>
<path d="M16.7065 8.139C16.5769 7.9797 16.4392 7.82715 16.2961 7.68405C15.4483 6.8322 14.3872 6.2571 13.2249 6.0195L12.6592 5.25C14.6019 5.439 16.3461 6.45015 17.4882 8.05125L16.7065 8.139Z" fill="url(#paint6_linear_18_1315)"/>
<defs>
<linearGradient id="paint0_linear_18_1315" x1="11.101" y1="23.5192" x2="22.9015" y2="14.6873" gradientUnits="userSpaceOnUse">
<stop stop-color="#009DDE"/>
<stop offset="0.5" stop-color="#694D9F"/>
<stop offset="1" stop-color="#ED3554"/>
</linearGradient>
<linearGradient id="paint1_linear_18_1315" x1="16.5067" y1="21.7292" x2="21.0328" y2="9.05547" gradientUnits="userSpaceOnUse">
<stop stop-color="#009DDE"/>
<stop offset="0.5" stop-color="#694D9F"/>
<stop offset="1" stop-color="#ED3554"/>
</linearGradient>
<linearGradient id="paint2_linear_18_1315" x1="19.7642" y1="24.6449" x2="24.0293" y2="12.0019" gradientUnits="userSpaceOnUse">
<stop stop-color="#009DDE"/>
<stop offset="0.5" stop-color="#694D9F"/>
<stop offset="1" stop-color="#ED3554"/>
</linearGradient>
<linearGradient id="paint3_linear_18_1315" x1="10.6337" y1="48.1739" x2="21.5307" y2="47.779" gradientUnits="userSpaceOnUse">
<stop stop-color="#009DDE"/>
<stop offset="0.5" stop-color="#694D9F"/>
<stop offset="1" stop-color="#ED3554"/>
</linearGradient>
<linearGradient id="paint4_linear_18_1315" x1="4.48825" y1="41.9291" x2="15.3877" y2="41.5314" gradientUnits="userSpaceOnUse">
<stop stop-color="#009DDE"/>
<stop offset="0.5" stop-color="#694D9F"/>
<stop offset="1" stop-color="#ED3554"/>
</linearGradient>
<linearGradient id="paint5_linear_18_1315" x1="11.5683" y1="16.3296" x2="15.7473" y2="3.6987" gradientUnits="userSpaceOnUse">
<stop stop-color="#009DDE"/>
<stop offset="0.5" stop-color="#694D9F"/>
<stop offset="1" stop-color="#ED3554"/>
</linearGradient>
<linearGradient id="paint6_linear_18_1315" x1="14.2194" y1="19.455" x2="18.756" y2="6.78017" gradientUnits="userSpaceOnUse">
<stop stop-color="#009DDE"/>
<stop offset="0.5" stop-color="#694D9F"/>
<stop offset="1" stop-color="#ED3554"/>
</linearGradient>
</defs>
</svg>
