<svg width="24" height="24" viewBox="0 0 24 24" fill="none" xmlns="http://www.w3.org/2000/svg">
<path fill-rule="evenodd" clip-rule="evenodd" d="M0 12C0 5.37256 5.3726 0 12 0C18.6274 0 24 5.37256 24 12C24 18.6274 18.6274 24 12 24C5.3726 24 0 18.6274 0 12Z" fill="black"/>
<path d="M18.12 7.61783C17.8935 7.43922 17.6234 7.19527 17.1312 7.13429C16.6694 7.0733 16.1989 7.38259 15.8809 7.58734C15.5629 7.79208 14.9618 8.39324 14.7135 8.5762C14.4652 8.75917 13.8291 8.92906 12.8054 9.54329C11.7817 10.1575 7.76525 12.7364 7.76525 12.7364L8.81075 12.7495L4.14957 15.1498H4.61569L3.94482 15.6595C3.94482 15.6595 4.53727 15.8163 5.03388 15.5026V15.6464C5.03388 15.6464 10.5837 13.4596 11.6554 14.0259L11.0019 14.2175C11.0586 14.2175 12.1128 14.2872 12.1128 14.2872C12.1128 14.2872 12.1476 14.945 12.7836 15.3676C13.4197 15.7858 13.4327 16.0167 13.4327 16.0167C13.4327 16.0167 13.1016 16.1517 13.1016 16.3216C13.1016 16.3216 13.5895 16.1735 14.0426 16.1866C14.4956 16.1996 14.8921 16.3216 14.8921 16.3216C14.8921 16.3216 14.8572 16.1386 14.4172 16.0167C13.9729 15.8903 13.5416 15.4155 13.3282 15.1541C13.1147 14.8928 12.9666 14.4266 13.1496 13.9605C13.302 13.5641 13.8335 13.3463 14.9313 12.78C16.2251 12.1091 16.5213 11.6125 16.7043 11.2248C16.8872 10.8371 17.1573 10.066 17.3098 9.70447C17.5015 9.23835 17.7367 8.99005 17.9327 8.84193C18.1244 8.69382 19 8.3671 19 8.3671C19 8.3671 18.3335 7.78772 18.12 7.61783Z" fill="white"/>
</svg>
