<svg width="24" height="24" viewBox="0 0 24 24" fill="none" xmlns="http://www.w3.org/2000/svg">
<rect width="24" height="24" rx="12" fill="white"/>
<path fill-rule="evenodd" clip-rule="evenodd" d="M13.8569 7.766C13.7727 7.68141 13.6725 7.61436 13.5624 7.56871C13.4522 7.52306 13.3341 7.49971 13.2149 7.5H13.2126C13.0931 7.49998 12.9749 7.52381 12.8647 7.5701C12.7545 7.6164 12.6547 7.68424 12.5709 7.76967L5.47697 14.923C5.39248 15.0076 5.32556 15.1083 5.28006 15.219C5.23457 15.3298 5.21141 15.4485 5.21192 15.5683C5.21259 15.812 5.30791 16.041 5.47996 16.213C5.56405 16.2976 5.66398 16.3646 5.774 16.4103C5.88401 16.4559 6.00195 16.4793 6.121 16.479C6.36446 16.479 6.59397 16.3833 6.76602 16.2103L13.8596 9.05667C14.0294 8.88494 14.1244 8.6527 14.1239 8.41079C14.1234 8.16888 14.0274 7.93702 13.8569 7.766Z" fill="#2DB8E3"/>
<path fill-rule="evenodd" clip-rule="evenodd" d="M17.9774 7.58912C17.8111 7.51942 17.6279 7.50119 17.4512 7.53677C17.2746 7.57235 17.1125 7.66011 16.9859 7.78879L9.89136 14.9428C9.72143 15.1145 9.62633 15.3468 9.62696 15.5888C9.62758 15.8308 9.72387 16.0627 9.89468 16.2335C10.0659 16.404 10.2975 16.4994 10.5386 16.4987C10.7798 16.498 11.0109 16.4013 11.1811 16.2298L16.7206 10.6438V15.5861C16.7207 15.8281 16.8166 16.0602 16.9871 16.2313C17.1576 16.4024 17.3888 16.4986 17.63 16.4988C17.8711 16.4986 18.1023 16.4024 18.2728 16.2313C18.4433 16.0602 18.5392 15.8281 18.5394 15.5861V8.43279C18.5399 8.25202 18.4867 8.0752 18.3866 7.92492C18.2865 7.77464 18.144 7.65773 17.9774 7.58912Z" fill="#3840C7"/>
</svg>
