<svg width="24" height="24" viewBox="0 0 24 24" fill="none" xmlns="http://www.w3.org/2000/svg">
<path d="M24 12C24 5.37258 18.6274 0 12 0C5.37258 0 0 5.37258 0 12C0 18.6274 5.37258 24 12 24C18.6274 24 24 18.6274 24 12Z" fill="#8271F0"/>
<mask id="mask0_484_11773" style="mask-type:alpha" maskUnits="userSpaceOnUse" x="0" y="0" width="24" height="24">
<path d="M24 12C24 5.37258 18.6274 0 12 0C5.37258 0 0 5.37258 0 12C0 18.6274 5.37258 24 12 24C18.6274 24 24 18.6274 24 12Z" fill="#8271F0"/>
</mask>
<g mask="url(#mask0_484_11773)">
<g filter="url(#filter0_f_484_11773)">
<path d="M19.7142 6.42826C19.7142 0.27423 14.7254 -4.7146 8.57133 -4.7146C2.4173 -4.7146 -2.57153 0.27423 -2.57153 6.42826C-2.57153 12.5823 2.4173 17.5711 8.57133 17.5711C14.7254 17.5711 19.7142 12.5823 19.7142 6.42826Z" fill="#EE6A48"/>
</g>
<g filter="url(#filter1_f_484_11773)">
<path d="M19.7142 6.42826C19.7142 0.27423 14.7254 -4.7146 8.57133 -4.7146C2.4173 -4.7146 -2.57153 0.27423 -2.57153 6.42826C-2.57153 12.5823 2.4173 17.5711 8.57133 17.5711C14.7254 17.5711 19.7142 12.5823 19.7142 6.42826Z" fill="#EE6A48"/>
</g>
<path d="M11.9727 17.9986C11.7509 18.0051 11.5351 17.9264 11.3694 17.7787C11.2037 17.631 11.1008 17.4255 11.0816 17.2042L10.9813 16.4175C10.0262 16.145 9.46752 15.4375 9.32232 14.3142L8.46274 7.6854C8.27836 7.6557 8.09172 7.64227 7.90497 7.64527C7.62859 7.64299 7.35316 7.67869 7.08646 7.75136V17.8046H5.39978V9.7236C5.39978 8.62706 5.89167 7.85273 6.78754 7.53052V7.00954C6.78754 6.40725 7.15332 6.00285 7.69677 6.00285C8.24022 6.00285 8.58117 6.34129 8.66907 6.95887L8.73589 7.44165C9.71678 7.716 10.2898 8.5047 10.4598 9.78476L11.2545 16.1746C11.7292 16.2664 12.2171 16.2664 12.6919 16.1746L13.4865 9.78574C13.6527 8.5047 14.2324 7.716 15.2104 7.43876L15.2773 6.95599C15.3652 6.34129 15.7109 6 16.2496 6C16.7883 6 17.1588 6.4044 17.1588 7.00665V7.52767C18.0547 7.84984 18.5466 8.62421 18.5466 9.72071V17.8017H16.858V7.75043C16.5912 7.67775 16.3158 7.64205 16.0395 7.6443C15.8527 7.64134 15.6661 7.65476 15.4817 7.68446L14.6221 14.3142C14.4798 15.4175 13.9077 16.1421 12.9631 16.4175L12.8686 17.2052C12.8538 17.4289 12.7514 17.6378 12.5837 17.7864C12.4159 17.9349 12.1964 18.0112 11.9727 17.9986ZM11.2936 16.4939L11.3805 17.1717C11.3897 17.3203 11.4569 17.4594 11.5678 17.5587C11.6786 17.658 11.8241 17.7096 11.9727 17.7023C12.0466 17.7076 12.1209 17.698 12.191 17.6741C12.2612 17.6502 12.3258 17.6124 12.3811 17.563C12.4364 17.5136 12.4813 17.4536 12.513 17.3866C12.5447 17.3195 12.5627 17.2468 12.5658 17.1727L12.6527 16.4939C12.2027 16.5678 11.7437 16.5678 11.2936 16.4939ZM17.1588 17.5082H18.2457V9.7236C18.2457 8.79435 17.8713 8.15287 17.1588 7.85366V17.5082ZM5.69776 17.5082H6.78754V7.85366C6.07598 8.15287 5.70541 8.79435 5.70541 9.7236L5.69776 17.5082ZM8.77891 7.76764L9.62127 14.275C9.74161 15.2167 10.1857 15.8257 10.9402 16.0914L10.1619 9.82207C10.0186 8.71695 9.56494 8.04199 8.77891 7.76764ZM15.1674 7.76764C14.3814 8.04199 13.9259 8.71695 13.7845 9.82301L13.0061 16.0876C13.7616 15.8218 14.2047 15.2129 14.3251 14.2712L15.1674 7.76764ZM7.08837 7.43494C7.35631 7.36972 7.63118 7.33763 7.90688 7.33935C8.0793 7.33751 8.25162 7.34775 8.42262 7.36995L8.37106 6.99424C8.30517 6.53344 8.07784 6.30019 7.69677 6.30019C7.31569 6.30019 7.08837 6.57071 7.08837 7.00571V7.43494ZM16.0395 7.33935C16.3152 7.33763 16.59 7.36972 16.858 7.43494V7.00954C16.858 6.57454 16.6249 6.30401 16.2496 6.30401C15.8742 6.30401 15.6412 6.53726 15.5753 6.99806L15.5237 7.37378C15.6947 7.35158 15.867 7.34134 16.0395 7.34318V7.33935Z" fill="white"/>
</g>
<defs>
<filter id="filter0_f_484_11773" x="-26.5715" y="-28.7146" width="70.2858" height="70.2856" filterUnits="userSpaceOnUse" color-interpolation-filters="sRGB">
<feFlood flood-opacity="0" result="BackgroundImageFix"/>
<feBlend mode="normal" in="SourceGraphic" in2="BackgroundImageFix" result="shape"/>
<feGaussianBlur stdDeviation="12" result="effect1_foregroundBlur_484_11773"/>
</filter>
<filter id="filter1_f_484_11773" x="-26.5715" y="-28.7146" width="70.2858" height="70.2856" filterUnits="userSpaceOnUse" color-interpolation-filters="sRGB">
<feFlood flood-opacity="0" result="BackgroundImageFix"/>
<feBlend mode="normal" in="SourceGraphic" in2="BackgroundImageFix" result="shape"/>
<feGaussianBlur stdDeviation="12" result="effect1_foregroundBlur_484_11773"/>
</filter>
</defs>
</svg>
