<svg width="24" height="24" viewBox="0 0 24 24" fill="none" xmlns="http://www.w3.org/2000/svg">
<g clip-path="url(#clip0_1395_32734)">
<path d="M11.6451 0H11.6277C5.20589 0 0 5.20589 0 11.6277V12.2751C0 18.6969 5.20589 23.9028 11.6277 23.9028H11.6451C18.0668 23.9028 23.2727 18.6969 23.2727 12.2751V11.6277C23.2727 5.20589 18.0668 0 11.6451 0Z" fill="#232323"/>
<path fill-rule="evenodd" clip-rule="evenodd" d="M17.2013 13.9504C17.4222 13.9504 17.6013 14.1295 17.6013 14.3504V15.9255C17.6013 16.1464 17.4222 16.3255 17.2013 16.3255C16.9804 16.3255 16.8013 16.1464 16.8013 15.9255V14.3504C16.8013 14.1295 16.9804 13.9504 17.2013 13.9504ZM14.0511 14.4005C14.272 14.4005 14.4511 14.5796 14.4511 14.8005V18.6256C14.4511 18.8466 14.272 19.0256 14.0511 19.0256C13.8302 19.0256 13.6511 18.8466 13.6511 18.6256V14.8005C13.6511 14.5796 13.8302 14.4005 14.0511 14.4005ZM15.6262 14.4005C15.8471 14.4005 16.0262 14.5796 16.0262 14.8005V18.1756C16.0262 18.3965 15.8471 18.5756 15.6262 18.5756C15.4053 18.5756 15.2262 18.3965 15.2262 18.1756V14.8005C15.2262 14.5796 15.4053 14.4005 15.6262 14.4005Z" fill="#53CBC8"/>
<path fill-rule="evenodd" clip-rule="evenodd" d="M7.97593 12.3755C8.19684 12.3755 8.37593 12.5546 8.37593 12.7755V16.6007C8.37593 16.8216 8.19684 17.0007 7.97593 17.0007C7.75501 17.0007 7.57593 16.8216 7.57593 16.6007V12.7755C7.57593 12.5546 7.75501 12.3755 7.97593 12.3755ZM9.55098 12.3755C9.7719 12.3755 9.95098 12.5546 9.95098 12.7755V19.9758C9.95098 20.1967 9.7719 20.3758 9.55098 20.3758C9.33007 20.3758 9.15098 20.1967 9.15098 19.9758V12.7755C9.15098 12.5546 9.33007 12.3755 9.55098 12.3755ZM11.1261 13.0505C11.347 13.0505 11.5261 13.2296 11.5261 13.4505V15.9256C11.5261 16.1465 11.347 16.3256 11.1261 16.3256C10.9052 16.3256 10.7261 16.1465 10.7261 15.9256V13.4505C10.7261 13.2296 10.9052 13.0505 11.1261 13.0505ZM12.7011 13.7256C12.922 13.7256 13.1011 13.9046 13.1011 14.1256V15.0256C13.1011 15.2465 12.922 15.4256 12.7011 15.4256C12.4802 15.4256 12.3011 15.2465 12.3011 15.0256V14.1256C12.3011 13.9046 12.4802 13.7256 12.7011 13.7256Z" fill="#53CBC8"/>
<path fill-rule="evenodd" clip-rule="evenodd" d="M6.40049 13.2754C6.6214 13.2754 6.80049 13.4545 6.80049 13.6754V16.1505C6.80049 16.3714 6.6214 16.5505 6.40049 16.5505C6.17957 16.5505 6.00049 16.3714 6.00049 16.1505V13.6754C6.00049 13.4545 6.17957 13.2754 6.40049 13.2754Z" fill="#53CBC8"/>
<path fill-rule="evenodd" clip-rule="evenodd" d="M8.34461 11.3722C7.39649 11.5575 6.62404 12.0596 6.20638 12.4077C6.03667 12.5491 5.78444 12.5262 5.64302 12.3565C5.50159 12.1868 5.52452 11.9345 5.69423 11.7931C6.17661 11.3911 7.06923 10.8063 8.1912 10.5871C9.33063 10.3644 10.6886 10.5241 12.0477 11.592L12.0477 11.592C14.4136 13.4509 16.6247 12.7234 17.3805 12.0306C17.5434 11.8813 17.7964 11.8923 17.9457 12.0551C18.095 12.218 18.0839 12.471 17.9211 12.6203C16.8768 13.5775 14.2277 14.3223 11.5534 12.221C10.3924 11.3088 9.27527 11.1904 8.34461 11.3722Z" fill="#53CBC8"/>
<path d="M17.9077 10.829C17.8922 11.0671 17.7701 11.2845 17.563 11.4029C17.0988 11.6683 16.1278 12.1004 14.7248 12.1004C12.6997 12.1004 11.5747 9.85025 9.32455 9.85025C7.07447 9.85025 5.50029 11.2003 5.50029 11.2003C5.05062 6.92513 7.97538 4 11.8005 4C15.508 4 18.1586 6.95924 17.9077 10.829Z" fill="#F2B705"/>
</g>
<defs>
<clipPath id="clip0_1395_32734">
<rect width="23.2727" height="24" fill="white"/>
</clipPath>
</defs>
</svg>
