<svg width="25" height="24" viewBox="0 0 25 24" fill="none" xmlns="http://www.w3.org/2000/svg">
<g clip-path="url(#clip0_494_11922)">
<path d="M12.2102 24C18.838 24 24.2102 18.6278 24.2102 12C24.2102 5.37225 18.838 0 12.2102 0C5.58246 0 0.210205 5.37225 0.210205 12C0.210205 18.6278 5.58246 24 12.2102 24Z" fill="#F2F3F4"/>
<path d="M15.2204 5.77069C17.0186 6.53355 18.2174 8.4135 18.0812 10.3207C14.8662 10.3207 11.6512 10.3479 8.43628 10.2934C8.43628 9.0129 8.87218 7.70512 9.79854 6.80602C11.1608 5.4165 13.4222 4.98056 15.2204 5.77069Z" fill="#53CBC8"/>
<path d="M15.0841 18.0312C15.2747 18.0312 15.4382 18.1402 15.4382 18.2765C15.4382 18.4127 15.2747 18.5217 15.0841 18.5217H9.90741C9.71669 18.5217 9.55322 18.4127 9.55322 18.2765C9.55322 18.1402 9.71669 18.0312 9.90741 18.0312H15.0841Z" fill="#E1177C"/>
<path d="M8.79022 18.5216C8.98582 18.5216 9.14441 18.363 9.14441 18.1674C9.14441 17.9718 8.98582 17.8132 8.79022 17.8132C8.59459 17.8132 8.43604 17.9718 8.43604 18.1674C8.43604 18.363 8.59459 18.5216 8.79022 18.5216Z" fill="#E1177C"/>
<path d="M11.8963 17.214C12.0919 17.214 12.2505 17.0554 12.2505 16.8598C12.2505 16.6642 12.0919 16.5056 11.8963 16.5056C11.7007 16.5056 11.5421 16.6642 11.5421 16.8598C11.5421 17.0554 11.7007 17.214 11.8963 17.214Z" fill="#E1177C"/>
<path d="M17.972 16.5056C18.1628 16.5056 18.3262 16.6691 18.3262 16.8598C18.3262 17.0505 18.1628 17.214 17.972 17.214H12.9044C12.7136 17.214 12.5502 17.0505 12.5502 16.8598C12.5502 16.6691 12.7136 16.5056 12.9044 16.5056H17.972Z" fill="#E1177C"/>
<path d="M5.24835 15.9061C5.44399 15.9061 5.60254 15.7475 5.60254 15.5519C5.60254 15.3563 5.44399 15.1978 5.24835 15.1978C5.05275 15.1978 4.89417 15.3563 4.89417 15.5519C4.89417 15.7475 5.05275 15.9061 5.24835 15.9061Z" fill="#E1177C"/>
<path d="M10.2888 15.1978C10.4796 15.1978 10.643 15.3612 10.643 15.5519C10.643 15.7427 10.4796 15.9061 10.2888 15.9061H6.1203C5.92958 15.9061 5.76611 15.7427 5.76611 15.5519C5.76611 15.3612 5.92958 15.1978 6.1203 15.1978H10.2888Z" fill="#E1177C"/>
<path d="M19.634 15.1978C19.8247 15.1978 19.9882 15.3612 19.9882 15.5519C19.9882 15.7427 19.8247 15.9061 19.634 15.9061H11.3514C11.1607 15.9061 10.9972 15.7427 10.9972 15.5519C10.9972 15.3612 11.1607 15.1978 11.3514 15.1978H19.634Z" fill="#E1177C"/>
<path d="M18.081 13.8899C18.2717 13.8899 18.4352 14.0534 18.4352 14.2441C18.4352 14.4348 18.2717 14.5983 18.081 14.5983H7.9184C7.72771 14.5983 7.56421 14.4348 7.56421 14.2441C7.56421 14.0534 7.72771 13.8899 7.9184 13.8899H18.081Z" fill="#E1177C"/>
<path d="M6.80145 14.5983C6.99709 14.5983 7.15564 14.4397 7.15564 14.2441C7.15564 14.0485 6.99709 13.8899 6.80145 13.8899C6.60585 13.8899 6.44727 14.0485 6.44727 14.2441C6.44727 14.4397 6.60585 14.5983 6.80145 14.5983Z" fill="#E1177C"/>
<path d="M15.9558 12.6094C16.1466 12.6094 16.31 12.7729 16.31 12.9636C16.31 13.1543 16.1466 13.3178 15.9558 13.3178H5.79331C5.60259 13.3178 5.43909 13.1543 5.43909 12.9636C5.43909 12.7729 5.60259 12.6094 5.79331 12.6094H15.9558Z" fill="#E1177C"/>
<path d="M4.56736 13.3178C4.76296 13.3178 4.92155 13.1592 4.92155 12.9636C4.92155 12.768 4.76296 12.6094 4.56736 12.6094C4.37172 12.6094 4.21313 12.768 4.21313 12.9636C4.21313 13.1592 4.37172 13.3178 4.56736 13.3178Z" fill="#E1177C"/>
<path d="M6.80145 12.0101C6.99709 12.0101 7.15564 11.8516 7.15564 11.6559C7.15564 11.4603 6.99709 11.3018 6.80145 11.3018C6.60585 11.3018 6.44727 11.4603 6.44727 11.6559C6.44727 11.8516 6.60585 12.0101 6.80145 12.0101Z" fill="#E1177C"/>
<path d="M19.062 11.3018C19.2527 11.3018 19.4162 11.4652 19.4162 11.6559C19.4162 11.8467 19.2527 12.0101 19.062 12.0101H8.00031C7.80958 12.0101 7.64612 11.8467 7.64612 11.6559C7.64612 11.4652 7.80958 11.3018 8.00031 11.3018H19.062Z" fill="#E1177C"/>
</g>
<defs>
<clipPath id="clip0_494_11922">
<rect width="24.375" height="24" fill="white" transform="translate(0.0227051)"/>
</clipPath>
</defs>
</svg>
