<svg width="24" height="24" viewBox="0 0 24 24" fill="none" xmlns="http://www.w3.org/2000/svg">
<rect width="24" height="24" rx="12" fill="#0B0B0B"/>
<path d="M15.4442 6.65116L12.9358 10.3753C12.9001 10.429 12.885 10.4937 12.8933 10.5576C12.9017 10.6215 12.9329 10.6802 12.9811 10.7229C13.0294 10.7656 13.0915 10.7894 13.156 10.7898C13.2204 10.7903 13.2828 10.7673 13.3317 10.7253L15.8008 8.58366C15.8153 8.57071 15.8332 8.56226 15.8524 8.55933C15.8716 8.5564 15.8913 8.55912 15.9089 8.56717C15.9266 8.57521 15.9415 8.58822 15.9519 8.60461C15.9623 8.62101 15.9678 8.64008 15.9675 8.65949V15.3645C15.9675 15.385 15.9612 15.405 15.9494 15.4219C15.9376 15.4387 15.9209 15.4514 15.9016 15.4584C15.8823 15.4655 15.8614 15.4664 15.8415 15.461C15.8217 15.4557 15.804 15.4444 15.7908 15.4287L8.3275 6.49449C8.20745 6.35274 8.05798 6.23883 7.88946 6.16069C7.72094 6.08254 7.53742 6.04204 7.35167 6.04199H7.09083C6.7518 6.04199 6.42665 6.17667 6.18692 6.41641C5.94718 6.65614 5.8125 6.98129 5.8125 7.32033V16.7637C5.8125 17.1027 5.94718 17.4278 6.18692 17.6676C6.42665 17.9073 6.7518 18.042 7.09083 18.042C7.30943 18.0421 7.52439 17.9861 7.71521 17.8794C7.90603 17.7728 8.06634 17.619 8.18083 17.4328L10.6892 13.7087C10.7249 13.655 10.74 13.5903 10.7317 13.5264C10.7233 13.4625 10.6921 13.4037 10.6439 13.3611C10.5956 13.3184 10.5335 13.2946 10.4691 13.2942C10.4046 13.2937 10.3422 13.3166 10.2933 13.3587L7.82417 15.5003C7.8097 15.5133 7.79177 15.5217 7.77258 15.5247C7.75338 15.5276 7.73375 15.5249 7.71608 15.5168C7.6984 15.5088 7.68345 15.4958 7.67305 15.4794C7.66265 15.463 7.65725 15.4439 7.6575 15.4245V8.71783C7.65751 8.6973 7.66383 8.67727 7.67561 8.66046C7.6874 8.64365 7.70407 8.63088 7.72336 8.62387C7.74266 8.61686 7.76364 8.61596 7.78346 8.62129C7.80328 8.62662 7.82099 8.63792 7.83417 8.65366L15.2967 17.5895C15.4167 17.7312 15.5662 17.8452 15.7347 17.9233C15.9032 18.0014 16.0867 18.0419 16.2725 18.042H16.5333C16.7013 18.0421 16.8676 18.0091 17.0228 17.9449C17.178 17.8807 17.319 17.7866 17.4378 17.6679C17.5566 17.5492 17.6508 17.4082 17.7151 17.253C17.7794 17.0979 17.8125 16.9316 17.8125 16.7637V7.32033C17.8125 6.98129 17.6778 6.65614 17.4381 6.41641C17.1984 6.17667 16.8732 6.04199 16.5342 6.04199C16.3156 6.04193 16.1006 6.0979 15.9098 6.20454C15.719 6.31118 15.5587 6.46495 15.4442 6.65116Z" fill="#F8F8F8"/>
</svg>
