<svg width="24" height="24" viewBox="0 0 24 24" fill="none" xmlns="http://www.w3.org/2000/svg">
<path d="M24 12C24 5.37258 18.6274 0 12 0C5.37258 0 0 5.37258 0 12C0 18.6274 5.37258 24 12 24C18.6274 24 24 18.6274 24 12Z" fill="#F5F7F9"/>
<path d="M5.24996 10.3126C5.99993 6.18759 10.4999 4.68759 12.3749 4.87509C9.74996 5.62509 8.62493 6.56259 7.68743 8.43759C6.74993 10.3126 6.37493 14.4376 8.99993 16.1251C11.6249 17.8126 14.3303 15.5626 14.6249 13.5001C15 10.8751 14.6249 9.18759 12.9374 7.87509C15.9375 7.68759 16.6875 10.3126 16.6874 12.1876C16.6874 14.6323 14.8125 18.3751 11.25 18.5626C7.3179 18.7695 4.33448 15.3478 5.24996 10.3126Z" fill="#FF4212"/>
<path d="M9.75003 10.125C8.90152 12.6706 9.75003 14.4375 11.4375 16.125C8.25003 16.5 6.71253 12.6375 8.06253 9.18755C9.60329 5.25005 14.25 4.50005 16.875 6.75005C19.5 9.00005 19.875 12.9375 18.1875 15.75C16.8375 18 14.4375 18.9375 12 19.125C13.6875 18.5625 15.3446 17.5968 16.3125 15.9375C17.625 13.6875 17.8125 9.93755 15.5625 8.06255C13.3125 6.18755 10.5 7.87505 9.75003 10.125Z" fill="#FF4212"/>
</svg>
