<svg width="24" height="24" viewBox="0 0 24 24" fill="none" xmlns="http://www.w3.org/2000/svg">
<path d="M12 24C18.6274 24 24 18.6274 24 12C24 5.37258 18.6274 0 12 0C5.37258 0 0 5.37258 0 12C0 18.6274 5.37258 24 12 24Z" fill="#FF0420"/>
<path d="M8.50233 15.1893C7.7878 15.1893 7.2024 15.0212 6.74606 14.685C6.29572 14.3427 6.07056 13.8564 6.07056 13.2259C6.07056 13.0938 6.08558 12.9317 6.11558 12.7395C6.19368 12.3072 6.30475 11.7878 6.44884 11.1814C6.85713 9.53019 7.91092 8.70459 9.61017 8.70459C10.0725 8.70459 10.4868 8.78264 10.8531 8.93873C11.2194 9.08883 11.5076 9.31702 11.7177 9.62326C11.9279 9.92345 12.033 10.2837 12.033 10.704C12.033 10.8301 12.0179 10.9892 11.9879 11.1814C11.8979 11.7158 11.7898 12.2352 11.6637 12.7395C11.4535 13.5621 11.0903 14.1776 10.5739 14.5859C10.0575 14.9882 9.367 15.1893 8.50233 15.1893ZM8.62843 13.8924C8.96472 13.8924 9.24988 13.7933 9.48408 13.5952C9.72427 13.397 9.89539 13.0938 9.99744 12.6855C10.1355 12.1211 10.2407 11.6287 10.3127 11.2084C10.3367 11.0823 10.3487 10.9532 10.3487 10.8211C10.3487 10.2747 10.0635 10.0015 9.4931 10.0015C9.15681 10.0015 8.86862 10.1006 8.62843 10.2987C8.39428 10.4969 8.22614 10.8001 8.12409 11.2084C8.016 11.6107 7.9079 12.1031 7.79985 12.6855C7.7758 12.8056 7.7638 12.9317 7.7638 13.0638C7.7638 13.6162 8.05204 13.8924 8.62843 13.8924Z" fill="white"/>
<path d="M12.4465 15.0991C12.3805 15.0991 12.3294 15.0781 12.2934 15.036C12.2634 14.988 12.2544 14.934 12.2664 14.8739L13.5093 9.0196C13.5213 8.95355 13.5543 8.89951 13.6084 8.85746C13.6624 8.81546 13.7194 8.79443 13.7795 8.79443H16.1753C16.8417 8.79443 17.3761 8.93253 17.7784 9.20872C18.1867 9.48496 18.3909 9.88423 18.3909 10.4066C18.3909 10.5567 18.3729 10.7128 18.3368 10.8749C18.1867 11.5655 17.8835 12.0759 17.4272 12.4061C16.9769 12.7363 16.3584 12.9015 15.5718 12.9015H14.3559L13.9416 14.8739C13.9296 14.94 13.8966 14.994 13.8426 15.036C13.7885 15.0781 13.7314 15.0991 13.6714 15.0991H12.4465ZM15.6349 11.6585C15.887 11.6585 16.1062 11.5895 16.2923 11.4514C16.4845 11.3133 16.6106 11.1151 16.6706 10.8569C16.6886 10.7548 16.6976 10.6648 16.6976 10.5868C16.6976 10.4126 16.6466 10.2805 16.5445 10.1905C16.4424 10.0944 16.2683 10.0464 16.0221 10.0464H14.9413L14.5991 11.6585H15.6349Z" fill="white"/>
</svg>
