<svg width="24" height="24" viewBox="0 0 24 24" fill="none" xmlns="http://www.w3.org/2000/svg">
<circle cx="12" cy="12" r="12" fill="#2D2755"/>
<path d="M18.7235 6.91527C18.582 6.37768 18.1293 5.84009 17.3371 5.24591C16.6863 4.7932 16.0072 4.51025 15.4696 4.51025C15.3565 4.51025 15.2716 4.51025 15.1584 4.53855C14.9037 4.59514 14.7057 4.7649 14.5642 5.04785C14.3944 5.35908 14.3662 5.81179 14.4793 6.06644C14.5076 6.15132 14.5642 6.23621 14.6208 6.34938C14.1115 6.66062 13.8003 6.7738 13.772 6.7738C15.1301 7.22651 16.2619 8.18851 16.9692 9.46176V9.34858C16.9975 9.00905 17.1107 8.64122 17.2239 8.2451C17.3654 8.2734 17.5068 8.30169 17.6483 8.30169C18.0161 8.30169 18.3274 8.16022 18.5254 7.87728C18.7235 7.56604 18.8084 7.22651 18.7235 6.91527Z" fill="#5E12A0"/>
<path d="M17.2805 7.90548C18.186 8.16012 18.5538 7.45277 18.4123 6.97176C18.2708 6.49076 17.8747 6.00976 17.1391 5.47216C16.4034 4.93457 15.6678 4.70822 15.1868 4.8214C14.7058 4.93457 14.5643 5.64193 14.7058 5.92487C14.7623 6.03805 14.8755 6.20782 15.017 6.37758C14.8189 6.51905 14.6492 6.60394 14.5077 6.68882C15.4131 7.11323 16.2053 7.73571 16.7995 8.55624C16.8561 8.2733 16.9693 8.04695 17.0542 7.82059C17.1391 7.87718 17.2239 7.87718 17.2805 7.90548Z" fill="url(#paint0_radial_876_19734)"/>
<path d="M12.1593 17.7519C15.2151 17.7519 17.6767 15.2337 17.6767 12.1496C17.6767 9.06553 15.1868 6.51904 12.1593 6.51904C9.10351 6.51904 6.64191 9.03724 6.64191 12.1496C6.64191 15.262 9.10351 17.7519 12.1593 17.7519Z" fill="url(#paint1_radial_876_19734)"/>
<path opacity="0.6" d="M17.988 6.51887C17.2241 5.72663 16.6016 5.50028 15.8376 5.33051C15.2435 5.18904 15.4132 4.84951 16.1206 4.9061C15.781 4.79292 15.4415 4.76463 15.2152 4.79292C14.7342 4.9061 14.5927 5.61346 14.7342 5.8964C14.7907 6.00958 14.9039 6.17934 15.0454 6.34911C14.7907 6.51887 14.5644 6.66034 14.3663 6.77352C14.4512 6.80182 14.5644 6.85841 14.7059 6.94329C15.0454 7.11305 15.4132 7.42429 15.4132 7.42429C14.8473 6.94329 14.9888 6.71693 15.7528 6.17934C15.9791 6.00958 16.4318 6.03787 16.8279 6.23593C17.2241 6.43399 17.7051 6.97158 17.7051 6.97158L17.1958 7.90529C17.2241 7.90529 17.2524 7.93359 17.2806 7.93359C17.5636 8.01847 17.7899 7.99018 17.9597 7.93359C18.1861 7.79212 18.7237 7.33941 17.988 6.51887Z" fill="#A98698"/>
<path d="M15.8377 5.83996C16.0358 5.92484 16.2904 6.06631 16.6016 6.26437C16.9695 6.51902 17.309 6.80197 17.5071 7.02832C17.1675 7.48103 16.9412 8.1318 16.7997 8.55621C16.8563 8.66939 16.9412 8.75427 17.0261 8.86745C17.0826 8.6128 17.2241 8.24498 17.3656 7.87715C17.3939 7.87715 17.4505 7.87715 17.5071 7.87715C17.6202 7.87715 17.7617 7.84886 17.8749 7.76397C17.9598 7.70738 18.0446 7.59421 18.0446 7.39615C18.0446 7.19809 17.9032 6.97173 17.5919 6.66049C17.3656 6.46243 17.0543 6.20779 16.7714 6.00973C15.9226 5.44384 15.3284 5.27407 15.0737 5.55702C14.904 5.72678 14.904 5.95314 14.9889 6.1229C14.6776 6.32096 14.3947 6.49073 14.2249 6.57561C14.3381 6.60391 14.4513 6.66049 14.5644 6.71708C14.8474 6.54732 15.3001 6.23608 15.8377 5.83996ZM17.7051 7.25468C17.7334 7.31126 17.7334 7.36785 17.7334 7.39615C17.7334 7.48103 17.7051 7.50932 17.6768 7.53762C17.6485 7.56591 17.5636 7.59421 17.4788 7.59421C17.5636 7.45274 17.6202 7.36785 17.7051 7.25468ZM15.2718 5.75508C15.3001 5.72678 15.385 5.69849 15.4982 5.72678C15.4133 5.81167 15.3001 5.86825 15.2152 5.95314C15.1869 5.89655 15.1869 5.81167 15.2718 5.75508Z" fill="#5E12A0"/>
<path d="M12.1594 6.20801C8.90557 6.20801 6.30249 8.86767 6.30249 12.1498C6.30249 15.432 8.90557 18.0916 12.1594 18.0916C15.385 18.0916 18.0163 15.432 18.0163 12.1498C18.0163 8.86767 15.3567 6.20801 12.1594 6.20801ZM12.1594 17.7521C9.10363 17.7521 6.64202 15.2622 6.64202 12.1498C6.64202 9.03744 9.10363 6.51925 12.1594 6.51925C15.1869 6.51925 17.6768 9.03744 17.6768 12.1498C17.6768 15.2622 15.1869 17.7521 12.1594 17.7521Z" fill="#5E12A0"/>
<path opacity="0.6" d="M12.1593 17.7519C15.2151 17.7519 17.6767 15.2337 17.6767 12.1496C17.6767 9.06553 15.1868 6.51904 12.1593 6.51904C9.10351 6.51904 6.64191 9.03724 6.64191 12.1496C6.64191 15.262 9.10351 17.7519 12.1593 17.7519Z" fill="url(#paint2_linear_876_19734)"/>
<path opacity="0.6" d="M12.1028 17.0731C9.10358 16.5921 7.06639 13.706 7.54739 10.6503C7.77375 9.29213 8.42452 8.13206 9.38652 7.31152C8.0001 8.13206 6.98151 9.54677 6.69856 11.2727C6.21756 14.3285 8.25475 17.2145 11.2539 17.7238C12.9233 18.0068 14.5644 17.4692 15.7527 16.4223C14.7059 17.0165 13.4043 17.2994 12.1028 17.0731Z" fill="#A98698"/>
<path opacity="0.6" d="M13.0365 6.60411C11.6501 6.37775 10.2919 6.68899 9.18847 7.39635C9.16017 7.42464 9.16017 7.42464 9.16017 7.42464C9.58459 7.16999 10.2071 6.94364 10.2071 6.94364C8.59428 7.87735 8.11328 8.95254 8.11328 8.95254C8.70746 7.76418 10.5466 6.88705 11.9613 6.83046C13.4043 6.77387 14.338 7.19829 15.4698 8.132C16.6016 9.06571 17.3089 11.018 17.2241 12.5459C17.1675 14.0738 16.3752 15.3188 16.3752 15.3188C16.9128 14.6114 17.2523 14.0738 17.4504 13.5645C17.4787 13.3947 17.5353 13.2533 17.5353 13.0835C18.0729 9.97113 16.0357 7.11341 13.0365 6.60411Z" fill="url(#paint3_linear_876_19734)"/>
<path d="M17.3939 12.093C17.3939 15.0356 15.0454 17.4406 12.1594 17.4406C9.27339 17.4406 6.89667 15.0356 6.89667 12.093H17.3939Z" fill="url(#paint4_linear_876_19734)"/>
<g opacity="0.6">
<path opacity="0.6" d="M16.9695 12.093C16.9695 14.979 14.7342 17.3275 11.9331 17.4406C11.9897 17.4406 12.0746 17.4406 12.1312 17.4406C15.0172 17.4406 17.3656 15.0639 17.3656 12.093H16.9695Z" fill="url(#paint5_linear_876_19734)"/>
</g>
<g opacity="0.7">
<path opacity="0.7" d="M7.63232 12.093H6.89667C6.89667 15.0356 9.2451 17.4406 12.1311 17.4406C12.2726 17.4406 12.3858 17.4406 12.4989 17.4406C9.78269 17.2143 7.63232 14.8942 7.63232 12.093Z" fill="url(#paint6_linear_876_19734)"/>
</g>
<path d="M17.3939 12.1496C17.3939 11.5271 16.347 11.1876 14.9605 11.0744C13.942 10.9895 12.9234 11.1027 11.7633 11.4422C10.7447 11.7534 9.83928 11.6968 9.18851 11.612C7.7172 11.4422 6.89667 11.4139 6.89667 12.1496C6.89667 13.1964 8.99045 14.498 12.1311 14.0453C13.7156 13.8189 14.5361 13.3379 15.4698 13.0267C16.4884 12.6872 17.3939 12.6872 17.3939 12.1496Z" fill="url(#paint7_linear_876_19734)"/>
<path d="M13.857 9.60307C14.338 9.60307 14.7342 9.20695 14.7342 8.69765C14.7342 8.18836 14.338 7.79224 13.857 7.79224C13.376 7.79224 12.9799 8.18836 12.9799 8.69765C12.9799 9.20695 13.376 9.60307 13.857 9.60307Z" fill="#2D2755"/>
<path d="M15.3285 10.2823C15.5266 10.2823 15.6963 10.1125 15.6963 9.91446C15.6963 9.7164 15.5266 9.54663 15.3285 9.54663C15.1305 9.54663 14.9607 9.7164 14.9607 9.91446C14.9607 10.1125 15.1022 10.2823 15.3285 10.2823Z" fill="#2D2755"/>
<g opacity="0.6">
<path opacity="0.6" d="M16.6581 7.99043C16.6581 7.99043 16.6298 7.99043 16.6581 7.99043C16.5732 7.99043 16.5449 7.93384 16.5449 7.84896C16.6298 7.39625 16.9976 6.94354 17.0259 6.91524C17.0542 6.85866 17.1391 6.85866 17.1957 6.91524C17.2523 6.94354 17.2523 7.02842 17.1957 7.08501C17.1957 7.08501 16.8279 7.50942 16.7713 7.90555C16.7713 7.96213 16.7147 7.99043 16.6581 7.99043Z" fill="url(#paint8_linear_876_19734)"/>
</g>
<path opacity="0.2" d="M11.7916 16.3371C11.9331 16.3371 12.0746 16.2239 12.0746 16.0542C12.0746 15.8844 11.9614 15.7712 11.7916 15.7712C11.6218 15.7712 11.5087 15.8844 11.5087 16.0542C11.5087 16.2239 11.6218 16.3371 11.7916 16.3371Z" fill="#2D2755"/>
<g opacity="0.4">
<path opacity="0.6" d="M11.6218 16.2239C11.5087 16.1108 11.5087 15.941 11.6218 15.8278C11.6501 15.7995 11.6501 15.7995 11.6784 15.7712C11.6501 15.7712 11.6218 15.7995 11.5935 15.8278C11.4804 15.941 11.4804 16.1108 11.5935 16.2239C11.6784 16.3088 11.8199 16.3371 11.9331 16.2805C11.8199 16.3371 11.7067 16.3088 11.6218 16.2239Z" fill="url(#paint9_linear_876_19734)"/>
</g>
<path opacity="0.3" d="M11.8768 15.9701C11.9053 15.9701 11.9338 15.9416 11.9338 15.9132C11.9338 15.8847 11.9053 15.8562 11.8768 15.8562C11.8484 15.8562 11.8199 15.8847 11.8199 15.9132C11.8199 15.9416 11.8484 15.9701 11.8768 15.9701Z" fill="#2D2755"/>
<path opacity="0.2" d="M13.2346 16.196C13.3761 16.196 13.5175 16.0828 13.5175 15.9131C13.5175 15.7716 13.4044 15.6301 13.2346 15.6301C13.0931 15.6301 12.9517 15.7433 12.9517 15.9131C12.9517 16.0545 13.0648 16.196 13.2346 16.196Z" fill="#2D2755"/>
<g opacity="0.4">
<path opacity="0.6" d="M13.0648 16.0828C12.9517 15.9697 12.9517 15.7999 13.0648 15.6867C13.0931 15.6584 13.0931 15.6584 13.1214 15.6301C13.0931 15.6301 13.0648 15.6584 13.0365 15.6867C12.9234 15.7999 12.9234 15.9697 13.0365 16.0828C13.1214 16.1677 13.2629 16.196 13.3761 16.1394C13.2629 16.196 13.1497 16.1677 13.0648 16.0828Z" fill="url(#paint10_linear_876_19734)"/>
</g>
<path opacity="0.3" d="M13.3201 15.8285C13.3486 15.8285 13.3771 15.8 13.3771 15.7716C13.3771 15.7431 13.3486 15.7146 13.3201 15.7146C13.2916 15.7146 13.2631 15.7431 13.2631 15.7716C13.2631 15.8 13.2916 15.8285 13.3201 15.8285Z" fill="#2D2755"/>
<path opacity="0.2" d="M12.5272 16.8466C12.6403 16.8466 12.7252 16.7617 12.7252 16.6485C12.7252 16.5353 12.6403 16.4504 12.5272 16.4504C12.414 16.4504 12.3291 16.5353 12.3291 16.6485C12.3291 16.7617 12.3857 16.8466 12.5272 16.8466Z" fill="#2D2755"/>
<g opacity="0.4">
<path opacity="0.6" d="M12.3858 16.7619C12.301 16.677 12.301 16.5355 12.3858 16.4507L12.4141 16.4224C12.3858 16.4224 12.3575 16.4507 12.3575 16.479C12.2727 16.5638 12.2727 16.7053 12.3575 16.7902C12.4141 16.8468 12.5273 16.8751 12.6122 16.8185C12.5556 16.8468 12.4424 16.8185 12.3858 16.7619Z" fill="url(#paint11_linear_876_19734)"/>
</g>
<path opacity="0.3" d="M12.584 16.5638C12.6125 16.5638 12.6125 16.5353 12.6125 16.5353C12.6125 16.5068 12.584 16.5068 12.584 16.5068C12.5555 16.5068 12.5555 16.5353 12.5555 16.5353C12.5555 16.5353 12.5555 16.5638 12.584 16.5638Z" fill="#2D2755"/>
<path opacity="0.2" d="M13.8006 16.7052C13.9138 16.7052 13.9987 16.6203 13.9987 16.5071C13.9987 16.394 13.9138 16.3091 13.8006 16.3091C13.6874 16.3091 13.6025 16.394 13.6025 16.5071C13.5742 16.592 13.6874 16.7052 13.8006 16.7052Z" fill="#2D2755"/>
<g opacity="0.4">
<path opacity="0.6" d="M13.6593 16.62C13.5744 16.5352 13.5744 16.3937 13.6593 16.3088L13.6876 16.2805C13.6593 16.2805 13.631 16.3088 13.631 16.3371C13.5461 16.422 13.5461 16.5635 13.631 16.6483C13.6876 16.7049 13.8007 16.7332 13.8856 16.6766C13.829 16.7049 13.7159 16.6766 13.6593 16.62Z" fill="url(#paint12_linear_876_19734)"/>
</g>
<path opacity="0.3" d="M13.8573 16.4224C13.8858 16.4224 13.8858 16.394 13.8858 16.394C13.8858 16.3655 13.8573 16.3655 13.8573 16.3655C13.8289 16.3655 13.8289 16.394 13.8289 16.394C13.8289 16.394 13.8289 16.4224 13.8573 16.4224Z" fill="#2D2755"/>
<path opacity="0.2" d="M10.6032 16.2243C10.8579 16.2243 11.0559 16.0262 11.0559 15.7716C11.0559 15.5169 10.8579 15.3188 10.6032 15.3188C10.3486 15.3188 10.1505 15.5169 10.1505 15.7716C10.1505 16.0262 10.3486 16.2243 10.6032 16.2243Z" fill="#2D2755"/>
<g opacity="0.4">
<path opacity="0.6" d="M10.3487 16.0543C10.1789 15.8845 10.1789 15.5733 10.3487 15.4035C10.377 15.3752 10.4053 15.3469 10.4336 15.3469C10.377 15.3752 10.3204 15.4035 10.2638 15.4601C10.094 15.6299 10.094 15.9411 10.2638 16.1109C10.4053 16.2523 10.6316 16.2806 10.8297 16.1675C10.6882 16.224 10.4902 16.1958 10.3487 16.0543Z" fill="url(#paint13_linear_876_19734)"/>
</g>
<path opacity="0.3" d="M10.773 15.6297C10.8296 15.6297 10.8579 15.5731 10.8579 15.5165C10.8579 15.4599 10.8013 15.4033 10.773 15.4033C10.7164 15.4033 10.6881 15.4599 10.6881 15.5165C10.6881 15.5731 10.7164 15.6297 10.773 15.6297Z" fill="#2D2755"/>
<path opacity="0.2" d="M14.6776 15.0922C14.9323 15.0922 15.1303 14.8941 15.1303 14.6395C15.1303 14.3848 14.9323 14.1868 14.6776 14.1868C14.423 14.1868 14.2249 14.3848 14.2249 14.6395C14.2249 14.8941 14.423 15.0922 14.6776 15.0922Z" fill="#2D2755"/>
<g opacity="0.4">
<path opacity="0.6" d="M14.3947 14.9227C14.2249 14.7529 14.2249 14.4417 14.3947 14.2719C14.423 14.2436 14.4513 14.2153 14.4796 14.2153C14.423 14.2436 14.3664 14.2719 14.3098 14.3285C14.1401 14.4983 14.1401 14.8095 14.3098 14.9793C14.4513 15.1208 14.6776 15.149 14.8757 15.0359C14.7342 15.0925 14.5362 15.0642 14.3947 14.9227Z" fill="url(#paint14_linear_876_19734)"/>
</g>
<path opacity="0.3" d="M14.819 14.4981C14.8756 14.4981 14.9039 14.4415 14.9039 14.3849C14.9039 14.3283 14.8473 14.2717 14.819 14.2717C14.7624 14.2717 14.7341 14.3283 14.7341 14.3849C14.7341 14.4415 14.7624 14.4981 14.819 14.4981Z" fill="#2D2755"/>
<defs>
<radialGradient id="paint0_radial_876_19734" cx="0" cy="0" r="1" gradientUnits="userSpaceOnUse" gradientTransform="translate(18.259 6.35848) scale(4.41369 4.48968)">
<stop stop-color="#FFEAFF" stop-opacity="0.6"/>
<stop offset="0.6807" stop-color="#A087C9"/>
<stop offset="1" stop-color="#10002F"/>
</radialGradient>
<radialGradient id="paint1_radial_876_19734" cx="0" cy="0" r="1" gradientUnits="userSpaceOnUse" gradientTransform="translate(15.8033 8.27268) scale(10.7987 10.9847)">
<stop stop-color="#FFEAFF" stop-opacity="0.6"/>
<stop offset="0.6807" stop-color="#A087C9"/>
<stop offset="1" stop-color="#10002F"/>
</radialGradient>
<linearGradient id="paint2_linear_876_19734" x1="11.2353" y1="17.6835" x2="13.0618" y2="6.60574" gradientUnits="userSpaceOnUse">
<stop stop-color="#81FFFF"/>
<stop offset="0.6202" stop-color="white" stop-opacity="0"/>
</linearGradient>
<linearGradient id="paint3_linear_876_19734" x1="16.0862" y1="8.38357" x2="11.4503" y2="12.5651" gradientUnits="userSpaceOnUse">
<stop offset="0.2888" stop-color="white"/>
<stop offset="0.7796" stop-color="white" stop-opacity="0"/>
</linearGradient>
<linearGradient id="paint4_linear_876_19734" x1="6.895" y1="14.7614" x2="17.3924" y2="14.7614" gradientUnits="userSpaceOnUse">
<stop stop-color="#0002E9"/>
<stop offset="0.9952" stop-color="#FF00C7"/>
</linearGradient>
<linearGradient id="paint5_linear_876_19734" x1="17.9142" y1="12.5922" x2="12.1124" y2="17.9824" gradientUnits="userSpaceOnUse">
<stop offset="0.2888" stop-color="white"/>
<stop offset="0.7796" stop-color="white" stop-opacity="0"/>
</linearGradient>
<linearGradient id="paint6_linear_876_19734" x1="6.895" y1="14.7614" x2="12.5042" y2="14.7614" gradientUnits="userSpaceOnUse">
<stop stop-color="#000292"/>
<stop offset="0.9952" stop-color="#7D00C7"/>
</linearGradient>
<linearGradient id="paint7_linear_876_19734" x1="6.90649" y1="12.5844" x2="17.3829" y2="12.5844" gradientUnits="userSpaceOnUse">
<stop stop-color="#000292"/>
<stop offset="0.9952" stop-color="#BE00C7"/>
</linearGradient>
<linearGradient id="paint8_linear_876_19734" x1="17.224" y1="6.88041" x2="16.4522" y2="8.11328" gradientUnits="userSpaceOnUse">
<stop offset="0.2888" stop-color="white"/>
<stop offset="0.7796" stop-color="white" stop-opacity="0"/>
</linearGradient>
<linearGradient id="paint9_linear_876_19734" x1="11.5043" y1="16.0546" x2="11.9221" y2="16.0546" gradientUnits="userSpaceOnUse">
<stop offset="0.2888" stop-color="white"/>
<stop offset="0.7796" stop-color="white" stop-opacity="0"/>
</linearGradient>
<linearGradient id="paint10_linear_876_19734" x1="12.9448" y1="15.9142" x2="13.3626" y2="15.9142" gradientUnits="userSpaceOnUse">
<stop offset="0.2888" stop-color="white"/>
<stop offset="0.7796" stop-color="white" stop-opacity="0"/>
</linearGradient>
<linearGradient id="paint11_linear_876_19734" x1="12.3055" y1="16.6411" x2="12.6191" y2="16.6411" gradientUnits="userSpaceOnUse">
<stop offset="0.2888" stop-color="white"/>
<stop offset="0.7796" stop-color="white" stop-opacity="0"/>
</linearGradient>
<linearGradient id="paint12_linear_876_19734" x1="13.5753" y1="16.49" x2="13.8889" y2="16.49" gradientUnits="userSpaceOnUse">
<stop offset="0.2888" stop-color="white"/>
<stop offset="0.7796" stop-color="white" stop-opacity="0"/>
</linearGradient>
<linearGradient id="paint13_linear_876_19734" x1="10.1546" y1="15.784" x2="10.8369" y2="15.784" gradientUnits="userSpaceOnUse">
<stop offset="0.2888" stop-color="white"/>
<stop offset="0.7796" stop-color="white" stop-opacity="0"/>
</linearGradient>
<linearGradient id="paint14_linear_876_19734" x1="14.2069" y1="14.6491" x2="14.8893" y2="14.6491" gradientUnits="userSpaceOnUse">
<stop offset="0.2888" stop-color="white"/>
<stop offset="0.7796" stop-color="white" stop-opacity="0"/>
</linearGradient>
</defs>
</svg>
