<svg width="24" height="24" viewBox="0 0 24 24" fill="none" xmlns="http://www.w3.org/2000/svg">
<circle cx="12" cy="12" r="12" fill="#15E39F"/>
<path fill-rule="evenodd" clip-rule="evenodd" d="M11.2797 9.60728C11.2797 7.888 12.6734 6.49425 14.3927 6.49425C16.112 6.49425 17.5057 7.888 17.5057 9.60728C17.5057 11.0957 16.4612 12.3401 15.0651 12.6475V10.8209C15.3953 10.598 15.613 10.2158 15.613 9.78161C15.613 9.0939 15.0667 8.5364 14.3927 8.5364C13.7188 8.5364 13.1724 9.0939 13.1724 9.78161C13.1724 10.1463 13.326 10.4744 13.5709 10.7021V16.5057H7.49425V10.4291H9.78544V12.6466C9.54061 12.8743 9.38697 13.2024 9.38697 13.567C9.38697 14.2548 9.93332 14.8123 10.6073 14.8123C11.2812 14.8123 11.8276 14.2548 11.8276 13.567C11.8276 13.1329 11.6098 12.7506 11.2797 12.5278V9.60728ZM9.83416 8.93487C10.1596 6.70906 12.0766 5 14.3927 5C16.9373 5 19 7.06275 19 9.60728C19 11.9234 17.2909 13.8404 15.0651 14.1658V17.1533C15.0651 17.6209 14.686 18 14.2184 18H6.84674C6.3791 18 6 17.6209 6 17.1533V9.78161C6 9.31396 6.3791 8.93487 6.84674 8.93487H9.83416Z" fill="#0B073F"/>
</svg>
