<svg width="24" height="24" viewBox="0 0 24 24" fill="none" xmlns="http://www.w3.org/2000/svg">
<path d="M24 12C24 5.37258 18.6274 0 12 0C5.37258 0 0 5.37258 0 12C0 18.6274 5.37258 24 12 24C18.6274 24 24 18.6274 24 12Z" fill="#F4F6F8"/>
<path fill-rule="evenodd" clip-rule="evenodd" d="M12.9375 16.8735C12.8747 16.8735 12.8122 16.8722 12.75 16.8695V16.875H10.125V21H7.125V16.875V13.875V11.25V8.25H10.125H12.75V8.25255C12.8122 8.24989 12.8747 8.24854 12.9375 8.24854C15.3192 8.24854 17.25 10.1793 17.25 12.561C17.25 14.9428 15.3192 16.8735 12.9375 16.8735ZM12.75 11.25H10.125V13.875H12.75V13.8602C12.8112 13.869 12.8738 13.8735 12.9375 13.8735C13.6624 13.8735 14.25 13.2859 14.25 12.561C14.25 11.8362 13.6624 11.2485 12.9375 11.2485C12.8738 11.2485 12.8112 11.2531 12.75 11.2618V11.25Z" fill="black"/>
<path d="M17.25 5.25H7.125V7.5H17.25V5.25Z" fill="#E50913"/>
</svg>
