<svg width="25" height="24" viewBox="0 0 25 24" fill="none" xmlns="http://www.w3.org/2000/svg">
<g clip-path="url(#clip0_494_11919)">
<path d="M12.4602 24C19.088 24 24.4602 18.6278 24.4602 12C24.4602 5.37225 19.088 0 12.4602 0C5.83246 0 0.460205 5.37225 0.460205 12C0.460205 18.6278 5.83246 24 12.4602 24Z" fill="#131B23"/>
<path d="M14.5831 4.92367V7.7025C14.5831 8.60407 13.8396 9.33382 12.9209 9.33382H12.8967C12.436 9.33116 12.0211 9.33382 12.0211 9.33382C11.943 9.33382 11.8568 9.32587 11.7814 9.33382C11.2641 9.3867 10.8142 9.61672 10.4371 10.0265C10.4263 10.0371 10.4155 10.0503 10.4074 10.0609C10.103 10.4469 9.93599 10.9467 9.93599 11.486V11.5125C9.93599 11.8588 10.0087 12.1893 10.1407 12.4854C10.2727 12.7816 10.2054 13.1253 9.95215 13.3315C9.70432 13.5351 9.41069 13.7731 9.214 13.929C8.64022 13.2892 8.30347 12.4537 8.30347 11.5415V11.5151C8.30347 9.52946 9.92253 7.87436 12.1208 7.87436C12.2582 7.87436 12.7054 7.87436 12.9155 7.87436V4.62491C12.7377 4.61167 12.5572 4.60376 12.3767 4.60376C8.18493 4.60376 4.78784 7.93781 4.78784 12.0518C4.78784 15.4123 7.05614 18.252 10.1704 19.1773V16.4197C10.1704 15.5101 10.922 14.7725 11.8487 14.7725H11.8568C12.3175 14.7751 12.7323 14.7725 12.7323 14.7725C12.8104 14.7725 12.8967 14.7804 12.9721 14.7725C13.4893 14.7196 13.9392 14.4896 14.3164 14.0797C14.3272 14.0692 14.3379 14.056 14.346 14.0454C14.6504 13.6594 14.8174 13.1596 14.8174 12.6203V12.5938C14.8174 12.3241 14.7016 11.9619 14.5858 11.6711C14.4565 11.3459 14.5561 10.9731 14.8282 10.751C15.0626 10.558 15.3024 10.3676 15.5394 10.1799C16.1133 10.8197 16.45 11.6552 16.45 12.5674V12.5938C16.45 14.5795 14.8309 16.2346 12.6327 16.2346C12.4953 16.2346 12.0481 16.2346 11.8379 16.2346V19.4788C12.0157 19.492 12.1962 19.4999 12.3767 19.4999C16.5685 19.4999 19.9656 16.1658 19.9656 12.0518C19.9656 8.69133 17.6973 5.85168 14.5831 4.92367Z" fill="#1D8AED"/>
</g>
<defs>
<clipPath id="clip0_494_11919">
<rect width="24.375" height="24" fill="white" transform="translate(0.272705)"/>
</clipPath>
</defs>
</svg>
