<svg width="24" height="24" viewBox="0 0 24 24" fill="none" xmlns="http://www.w3.org/2000/svg">
<rect width="24" height="24" rx="12" fill="#E6007A"/>
<path d="M11.9564 7.86402C13.3756 7.86402 14.5261 7.19491 14.5261 6.36951C14.5261 5.54411 13.3756 4.875 11.9564 4.875C10.5372 4.875 9.38672 5.54411 9.38672 6.36951C9.38672 7.19491 10.5372 7.86402 11.9564 7.86402Z" fill="#F8F8F8"/>
<path d="M11.9564 19.1248C13.3756 19.1248 14.5261 18.4556 14.5261 17.6303C14.5261 16.8049 13.3756 16.1357 11.9564 16.1357C10.5372 16.1357 9.38672 16.8049 9.38672 17.6303C9.38672 18.4556 10.5372 19.1248 11.9564 19.1248Z" fill="#F8F8F8"/>
<path d="M8.37503 9.9328C9.08461 8.70378 9.08 7.37266 8.36473 6.95968C7.64946 6.54669 6.49439 7.20822 5.78481 8.43725C5.07523 9.66628 5.07984 10.9974 5.79511 11.4104C6.51038 11.8234 7.66545 11.1618 8.37503 9.9328Z" fill="#F8F8F8"/>
<path d="M18.1263 15.5626C18.8358 14.3336 18.8316 13.0027 18.1168 12.59C17.4021 12.1773 16.2474 12.8391 15.5378 14.0681C14.8282 15.2971 14.8324 16.628 15.5472 17.0407C16.262 17.4534 17.4167 16.7917 18.1263 15.5626Z" fill="#F8F8F8"/>
<path d="M8.36473 17.0403C9.08 16.6273 9.08461 15.2962 8.37503 14.0672C7.66545 12.8382 6.51038 12.1766 5.79511 12.5896C5.07984 13.0026 5.07523 14.3337 5.78481 15.5628C6.49439 16.7918 7.64946 17.4533 8.36473 17.0403Z" fill="#F8F8F8"/>
<path d="M18.1168 11.4104C18.8316 10.9977 18.8358 9.66687 18.1263 8.43785C17.4167 7.20884 16.262 6.54708 15.5472 6.95978C14.8324 7.37247 14.8282 8.70335 15.5378 9.93236C16.2474 11.1614 17.4021 11.8231 18.1168 11.4104Z" fill="#F8F8F8"/>
</svg>
