<svg width="24" height="24" viewBox="0 0 24 24" fill="none" xmlns="http://www.w3.org/2000/svg">
<circle cx="12" cy="12" r="12" fill="#8348E5"/>
<path d="M15.5549 9.50069C15.3022 9.34806 14.9774 9.34806 14.6887 9.50069L12.6677 10.7599L11.2963 11.5613L9.31136 12.8205C9.05873 12.9732 8.73393 12.9732 8.44521 12.8205L6.89335 11.8284C6.64072 11.6758 6.46028 11.3705 6.46028 11.0271V9.1191C6.46028 8.81383 6.60463 8.50856 6.89335 8.31776L8.44521 7.36379C8.69784 7.21115 9.02264 7.21115 9.31136 7.36379L10.8632 8.35592C11.1158 8.50856 11.2963 8.81383 11.2963 9.15726V10.4165L12.6677 9.57701V8.2796C12.6677 7.97433 12.5233 7.66906 12.2346 7.47826L9.34745 5.68479C9.09482 5.53215 8.77002 5.53215 8.4813 5.68479L5.52194 7.51642C5.23323 7.66906 5.08887 7.97433 5.08887 8.2796V11.8666C5.08887 12.1718 5.23323 12.4771 5.52194 12.6679L8.44521 14.4614C8.69784 14.614 9.02264 14.614 9.31136 14.4614L11.2963 13.2403L12.6677 12.4008L14.6526 11.1797C14.9053 11.0271 15.2301 11.0271 15.5188 11.1797L17.0706 12.1337C17.3233 12.2863 17.5037 12.5916 17.5037 12.935V14.843C17.5037 15.1482 17.3594 15.4535 17.0706 15.6443L15.5549 16.5983C15.3022 16.7509 14.9774 16.7509 14.6887 16.5983L13.1369 15.6443C12.8842 15.4917 12.7038 15.1864 12.7038 14.843V13.6219L11.3324 14.4614V15.7206C11.3324 16.0259 11.4767 16.3312 11.7655 16.522L14.6887 18.3154C14.9414 18.4681 15.2662 18.4681 15.5549 18.3154L18.4781 16.522C18.7308 16.3693 18.9112 16.064 18.9112 15.7206V12.0955C18.9112 11.7902 18.7669 11.485 18.4781 11.2942L15.5549 9.50069Z" fill="white"/>
</svg>
