<svg width="24" height="24" viewBox="0 0 24 24" fill="none" xmlns="http://www.w3.org/2000/svg">
<path d="M24 12C24 5.37258 18.6274 0 12 0C5.37258 0 0 5.37258 0 12C0 18.6274 5.37258 24 12 24C18.6274 24 24 18.6274 24 12Z" fill="#5BC5A5"/>
<path fill-rule="evenodd" clip-rule="evenodd" d="M10.7075 9.0384L9.63195 3.68285L8.79195 3.375L8.25 4.1595L10.7075 9.0384Z" fill="white"/>
<path fill-rule="evenodd" clip-rule="evenodd" d="M8.79364 20.6251L9.47872 20.2968L10.7075 15.0999L8.25 19.8485L8.79364 20.6251Z" fill="white"/>
<path fill-rule="evenodd" clip-rule="evenodd" d="M9.90863 14.5632L8.25 15.8721L8.46821 16.5103H9.07931L9.90863 14.5632Z" fill="white"/>
<path fill-rule="evenodd" clip-rule="evenodd" d="M7.14966 15.0998V14.5633L9.07937 13.7114L7.76211 15.3606L7.14966 15.0998Z" fill="white"/>
<path fill-rule="evenodd" clip-rule="evenodd" d="M6.42163 13.7113L6.57287 13.0962L8.66567 12.9006L6.97251 14.0066L6.42163 13.7113Z" fill="white"/>
<path fill-rule="evenodd" clip-rule="evenodd" d="M2.75232 12L3.2637 11.2131L8.66575 12L3.2637 12.7501L2.75232 12Z" fill="white"/>
<path fill-rule="evenodd" clip-rule="evenodd" d="M7.78515 8.09392L8.44017 7.95239L9.61043 9.87798L7.54358 8.80428L7.78515 8.09392Z" fill="white"/>
<path fill-rule="evenodd" clip-rule="evenodd" d="M11.6923 8.8042L11.2776 6.8395L11.6923 6.4834L12.1905 6.8395L11.6923 8.8042Z" fill="white"/>
<path fill-rule="evenodd" clip-rule="evenodd" d="M13.2 9.25093L13.8406 7.20703H14.4168L14.7121 7.64368L13.2 9.25093Z" fill="white"/>
<path fill-rule="evenodd" clip-rule="evenodd" d="M14.274 10.0819L18.1813 6.4834L19.1249 6.7825V7.6438L14.274 10.0819Z" fill="white"/>
<path fill-rule="evenodd" clip-rule="evenodd" d="M14.9144 12L16.9369 11.5959L17.3507 12L16.9369 12.5403L14.9144 12Z" fill="white"/>
<path fill-rule="evenodd" clip-rule="evenodd" d="M14.274 13.7114L19.1249 16.2511V17.2994L18.0726 17.6062L14.274 13.7114Z" fill="white"/>
<path fill-rule="evenodd" clip-rule="evenodd" d="M12.7863 15.0999L13.8105 16.7776L13.4421 17.2719L12.7863 17.0383V15.0999Z" fill="white"/>
<path fill-rule="evenodd" clip-rule="evenodd" d="M11.734 17.45L12.1905 17.0636L11.734 15.0999L11.2776 17.0636L11.734 17.45Z" fill="white"/>
</svg>
