<svg width="24" height="24" viewBox="0 0 24 24" fill="none" xmlns="http://www.w3.org/2000/svg">
<rect width="24" height="24" rx="12" fill="#0B0B0B"/>
<path d="M16.2734 9.42314C16.238 9.45918 16.1958 9.48782 16.1492 9.50739C16.1026 9.52696 16.0525 9.53708 16.002 9.53715H6.38468C6.04472 9.53715 5.87252 9.12258 6.11018 8.87639L7.6877 7.24201C7.72322 7.20508 7.76582 7.17569 7.81295 7.15559C7.86008 7.13549 7.91078 7.12508 7.96202 7.125H17.6153C17.9573 7.125 18.1286 7.54389 17.8868 7.78888L16.2734 9.42314ZM16.2734 16.7229C16.2011 16.7942 16.1036 16.8341 16.002 16.834H6.38468C6.04472 16.834 5.87252 16.4298 6.11018 16.1897L7.6877 14.5961C7.72366 14.5599 7.76644 14.5312 7.81355 14.5117C7.86066 14.4921 7.91118 14.4821 7.9622 14.4821H17.6153C17.9573 14.4821 18.1286 14.8905 17.8868 15.1294L16.2734 16.7229ZM16.2734 10.9145C16.2011 10.8433 16.1035 10.8035 16.002 10.8036H6.38468C6.04472 10.8036 5.87252 11.2078 6.11018 11.4478L7.6877 13.0414C7.72363 13.0775 7.76638 13.1062 7.81346 13.1258C7.86054 13.1454 7.91103 13.1554 7.96202 13.1554H17.6153C17.9573 13.1554 18.1286 12.747 17.8868 12.5082L16.2734 10.9145Z" fill="url(#paint0_linear_18_1061)"/>
<defs>
<linearGradient id="paint0_linear_18_1061" x1="6" y1="16.834" x2="15.4951" y2="5.09832" gradientUnits="userSpaceOnUse">
<stop stop-color="#9945FF"/>
<stop offset="0.138458" stop-color="#7962E7"/>
<stop offset="1" stop-color="#00D18C"/>
</linearGradient>
</defs>
</svg>
