<svg width="24" height="24" viewBox="0 0 24 24" fill="none" xmlns="http://www.w3.org/2000/svg">
<path d="M24.0004 12C24.0004 18.6275 18.6278 24 12.0004 24C5.37287 24 0 18.6275 0 12C0 5.37252 5.37287 0 12.0004 0C18.6278 0 24.0004 5.37252 24.0004 12Z" fill="#29296E"/>
<path d="M17.5845 8.79149L17.2793 7.84876C17.2173 7.65702 17.066 7.50781 16.8735 7.44898L15.9262 7.15766C15.795 7.11761 15.794 6.9326 15.924 6.89043L16.8671 6.58528C17.0585 6.52326 17.2077 6.37193 17.2669 6.17948L17.5579 5.23214C17.5979 5.10136 17.7829 5.09995 17.8251 5.23037L18.1302 6.1731C18.1923 6.36448 18.3436 6.51369 18.536 6.57288L19.4834 6.86385C19.6145 6.90425 19.6159 7.0889 19.4855 7.13107L18.5424 7.43622C18.351 7.49824 18.2018 7.64993 18.1427 7.84238L17.8517 8.78936C17.8116 8.9205 17.6266 8.92191 17.5845 8.79149Z" fill="#FAFAFA"/>
<path d="M1.09131 11.8099C1.37661 11.251 1.94083 10.8299 2.52703 10.5638C3.11925 10.3004 3.7703 10.1388 4.40966 10.0864C5.70042 9.96978 6.95787 10.1856 8.10333 10.5588C8.69342 10.7346 9.2215 10.9788 9.76693 11.2255C10.032 11.353 10.2812 11.4976 10.5378 11.6373L11.2466 12.048C12.0249 12.5251 12.7794 12.9475 13.4882 13.2757C14.1988 13.6011 14.841 13.8212 15.4464 13.9335C16.0517 14.0473 16.667 14.0459 17.4236 13.8722C18.1743 13.7024 19.0188 13.3363 19.9017 12.8667C20.7898 12.3968 21.7007 11.8205 22.7398 11.2574C22.6356 12.4344 22.3024 13.538 21.7822 14.6037C21.2491 15.6567 20.5077 16.6837 19.4268 17.5155C18.3664 18.3541 16.9101 18.9385 15.4276 19.0264C13.9444 19.1267 12.5335 18.7999 11.3331 18.3084C10.1281 17.8097 9.08682 17.1544 8.16393 16.431C7.90911 16.2312 7.77231 16.1177 7.58412 15.9586L7.05853 15.4982C6.70447 15.2211 6.3614 14.8897 6.01089 14.615C5.31163 14.0306 4.61982 13.4451 3.86138 12.9376C3.47898 12.6796 3.08452 12.4404 2.63725 12.2284C2.41503 12.126 2.179 12.0307 1.92559 11.9555C1.66616 11.8708 1.40248 11.8205 1.09131 11.8099Z" fill="#FF4F0A"/>
<path d="M1.09131 11.8098C1.23697 10.5987 1.80155 9.46285 2.70636 8.49602C3.60656 7.5384 5.01287 6.80016 6.57334 6.70235C7.34347 6.65096 8.1253 6.73672 8.84405 6.9359C9.5596 7.13437 10.2301 7.42357 10.8344 7.76416C11.1364 7.93534 11.4188 8.12247 11.7002 8.31137L12.4502 8.87914L13.6208 9.80273C14.3807 10.4077 15.1058 10.9673 15.776 11.4295C16.4525 11.8923 17.0288 12.2304 17.5792 12.4286C18.1247 12.6448 18.8136 12.7 19.7245 12.4711C20.1767 12.3669 20.6484 12.1766 21.1517 11.9703C21.6521 11.7591 22.1717 11.5071 22.7398 11.2572C22.6714 11.8661 22.5477 12.4725 22.3127 13.0392C22.087 13.6137 21.7896 14.1758 21.3739 14.7C21.1612 14.9552 20.9334 15.2118 20.6676 15.4485C20.4017 15.6796 20.1072 15.899 19.7819 16.0914C19.133 16.4674 18.3632 16.7421 17.5735 16.8399C16.7839 16.9392 15.9911 16.8895 15.2692 16.7364C14.5433 16.5876 13.882 16.3476 13.2749 16.0705C12.0649 15.5077 11.0527 14.8003 10.1578 14.0514C9.70846 13.6775 9.28706 13.2869 8.88799 12.8904L8.41663 12.4172C8.27451 12.2801 8.13097 12.1422 7.98885 12.016C7.41613 11.5096 6.88451 11.1226 6.29902 10.8812C5.71779 10.6285 4.97388 10.5247 4.06127 10.6955C3.15221 10.8645 2.1549 11.2576 1.09131 11.8098Z" fill="#FAFAFA"/>
<path d="M5.88722 18.0549C5.88722 18.4132 5.5966 18.7039 5.23829 18.7039C4.87998 18.7039 4.58972 18.4132 4.58972 18.0549C4.58972 17.6966 4.87998 17.406 5.23829 17.406C5.5966 17.406 5.88722 17.6966 5.88722 18.0549Z" fill="#FAFAFA"/>
<path d="M5.88722 18.0549C5.88722 18.4132 5.5966 18.7039 5.23829 18.7039C4.87998 18.7039 4.58972 18.4132 4.58972 18.0549C4.58972 17.6966 4.87998 17.406 5.23829 17.406C5.5966 17.406 5.88722 17.6966 5.88722 18.0549Z" fill="#FAFAFA"/>
</svg>
