<svg width="24" height="24" viewBox="0 0 24 24" fill="none" xmlns="http://www.w3.org/2000/svg">
<circle cx="12" cy="12" r="12" fill="white"/>
<path fill-rule="evenodd" clip-rule="evenodd" d="M7.67678 16.3953C8.10882 17.1857 8.73685 17.8434 9.49651 18.3011C10.2562 18.7588 11.1202 19 12 19C12.8798 19 13.7438 18.7588 14.5035 18.3011C15.2632 17.8434 15.8912 17.1857 16.3232 16.3953C16.7666 15.6034 17 14.7051 17 13.7907C17 12.8763 16.7666 11.9781 16.3232 11.1862L12.5209 4.31379C12.4688 4.21857 12.3931 4.13933 12.3016 4.08419C12.2101 4.02906 12.106 4 12 4C11.894 4 11.7899 4.02906 11.6984 4.08419C11.6069 4.13933 11.5312 4.21857 11.4791 4.31379L7.67678 11.1862C7.23342 11.9781 7 12.8763 7 13.7907C7 14.7051 7.23342 15.6034 7.67678 16.3953ZM10.9289 7.5833L11.7396 6.11799C11.7656 6.07038 11.8034 6.03076 11.8492 6.00319C11.895 5.97562 11.947 5.96109 12 5.96109C12.053 5.96109 12.105 5.97562 12.1508 6.00319C12.1966 6.03076 12.2344 6.07038 12.2604 6.11799L15.3793 11.755C15.6592 12.2548 15.8328 12.8103 15.8884 13.3847C15.9441 13.959 15.8805 14.539 15.7019 15.086C15.6631 14.8996 15.6098 14.7167 15.5423 14.5391C15.1115 13.4045 14.1375 12.5291 12.6466 11.9368C11.6216 11.5311 10.9674 10.9344 10.7015 10.1631C10.3591 9.16929 10.7167 8.08531 10.9289 7.5833ZM9.54648 10.0819L8.62074 11.755C8.27415 12.374 8.09168 13.0761 8.09168 13.7909C8.09168 14.5057 8.27415 15.2078 8.62074 15.8268C8.90091 16.3386 9.28691 16.7806 9.75134 17.1213C10.2158 17.462 10.7472 17.6931 11.308 17.7981C11.8687 17.9032 12.4451 17.8796 12.996 17.7291C13.5469 17.5787 14.059 17.305 14.4958 16.9274C14.7372 16.291 14.7459 15.5857 14.5201 14.9432C14.2037 14.1235 13.4421 13.4692 12.2564 12.9979C10.9162 12.4673 10.0455 11.6391 9.66888 10.5369C9.61816 10.3883 9.57727 10.2362 9.54648 10.0819Z" fill="#6FBCF0"/>
</svg>
