<svg width="24" height="24" viewBox="0 0 24 24" fill="none" xmlns="http://www.w3.org/2000/svg">
<rect width="24" height="24" rx="12" fill="#2D7DF8"/>
<path fill-rule="evenodd" clip-rule="evenodd" d="M13.2498 18.1406C12.3548 18.1406 11.7026 17.9365 11.2929 17.5154C10.8833 17.0942 10.6852 16.6534 10.6852 16.1671C10.6852 15.9956 10.7186 15.8436 10.7965 15.7242C10.8633 15.6048 10.9612 15.5093 11.0837 15.4442C11.2061 15.379 11.3597 15.3356 11.5378 15.3356C11.7159 15.3356 11.8695 15.3682 11.992 15.4442C12.1144 15.5093 12.2124 15.6048 12.2791 15.7242C12.3459 15.8436 12.3904 15.9934 12.3904 16.1671C12.3904 16.3821 12.3348 16.5557 12.2346 16.6838C12.1344 16.8141 12.0031 16.9096 11.8584 16.953C11.9808 17.1137 12.179 17.2331 12.4439 17.3091C12.7088 17.3851 12.9737 17.4177 13.2409 17.4177C13.6171 17.4177 13.9488 17.32 14.2471 17.1267C14.5454 16.9335 14.7658 16.6426 14.9105 16.2648C15.0552 15.8871 15.1198 15.4572 15.1198 14.9709C15.1198 14.4433 15.0418 14.0004 14.8882 13.6335C14.7324 13.2557 14.512 12.9756 14.2137 12.8041C13.9154 12.6218 13.5948 12.5349 13.2409 12.5349C13.0093 12.5349 12.7333 12.6326 12.3904 12.815L11.7671 13.1059V12.8041L14.5855 9.13937H10.6852V12.9453C10.6852 13.2579 10.752 13.5162 10.8944 13.7225C11.0391 13.9266 11.2595 14.0243 11.5467 14.0243C11.7782 14.0243 11.9897 13.9483 12.199 13.7985C12.4083 13.6465 12.5864 13.4641 12.74 13.2601C12.7622 13.2166 12.7845 13.1841 12.8067 13.1732C12.8401 13.1515 12.8624 13.1407 12.8958 13.1407C12.9514 13.1407 13.0071 13.1624 13.0828 13.2166C13.1496 13.2926 13.183 13.3773 13.183 13.475C13.183 13.5184 13.1607 13.5835 13.1496 13.6682C12.9937 14.0243 12.7734 14.2935 12.4862 14.4759C12.199 14.6582 11.8896 14.7559 11.5467 14.7559C10.6963 14.7559 10.1197 14.5953 9.78803 14.2718C9.46746 13.9483 9.30272 13.5054 9.30272 12.9561V9.13937H7.3125V8.42726H9.31385V6.80981L8.8597 6.36691V6H10.1865L10.683 6.2475V8.4164L15.8455 8.40555L16.3531 8.90055L13.1941 11.9965C13.3811 11.9205 13.5815 11.8771 13.7907 11.8554C14.1336 11.8554 14.5209 11.9639 14.9394 12.1789C15.3713 12.3829 15.703 12.6739 15.9345 13.0408C16.1661 13.4077 16.3219 13.7529 16.3887 14.0872C16.4555 14.4216 16.5 14.7125 16.5 14.9817C16.5 15.5744 16.3664 16.1237 16.1126 16.6317C15.8589 17.1376 15.4715 17.5262 14.9417 17.7737C14.4207 18.0212 13.8575 18.1406 13.2498 18.1406Z" fill="#F8F8F8"/>
</svg>
