<svg width="24" height="24" viewBox="0 0 24 24" fill="none" xmlns="http://www.w3.org/2000/svg">
<path d="M12.0008 0H11.9992C5.37224 0 0 5.37224 0 11.9992C0 18.6262 5.37224 23.9985 11.9992 23.9985H12.0008C18.6278 23.9985 24 18.6262 24 11.9992C24 5.37224 18.6278 0 12.0008 0Z" fill="#141324"/>
<path fill-rule="evenodd" clip-rule="evenodd" d="M11.1559 13.0216C9.41535 13.0216 8.00436 11.6107 8.00436 9.87009C8.00436 8.12949 9.41535 6.71859 11.1559 6.71859C12.8964 6.71859 14.3074 8.12949 14.3074 9.87009C14.3074 11.6107 12.8964 13.0216 11.1559 13.0216ZM11.1559 5.14282C13.7666 5.14282 15.8831 7.25928 15.8831 9.87009C15.8831 12.4809 13.7666 14.5973 11.1559 14.5973C8.54505 14.5973 6.42859 12.4809 6.42859 9.87009C6.42859 7.25928 8.54505 5.14282 11.1559 5.14282ZM15.6524 14.8281C15.9601 15.1358 15.9601 15.6346 15.6524 15.9423L12.5008 19.0939C12.1931 19.4016 11.6943 19.4016 11.3866 19.0939C11.0789 18.7862 11.0789 18.2874 11.3866 17.9797L14.5382 14.8281C14.8459 14.5204 15.3447 14.5204 15.6524 14.8281ZM17.4589 5.93071C17.4589 6.36588 17.1062 6.71859 16.6711 6.71859C16.2359 6.71859 15.8832 6.36588 15.8832 5.93071C15.8832 5.49549 16.2359 5.14282 16.6711 5.14282C17.1062 5.14282 17.4589 5.49549 17.4589 5.93071Z" fill="white"/>
</svg>
