<svg width="24" height="24" viewBox="0 0 24 24" fill="none" xmlns="http://www.w3.org/2000/svg">
<path d="M0 12C0 5.37258 5.37258 0 12 0C18.6274 0 24 5.37258 24 12C24 18.6274 18.6274 24 12 24C5.37258 24 0 18.6274 0 12Z" fill="#7D00FF"/>
<path d="M18.8 8.05005H14.2673V9.56088H18.8V8.05005ZM11.2445 9.56088H9.73361V11.0726H11.2445V9.56088ZM9.73361 17.1168H11.2445V12.5834H9.73361V17.1168ZM12.7554 9.56088V11.0726H14.2673V9.56088H12.7554ZM12.7554 17.1168H14.2673V12.5834H12.7554V17.1168ZM12.7554 8.05005H11.2445V9.56088H12.7554V8.05005ZM5.19995 8.05005V9.56088H9.73361V8.05005H5.19995ZM18.8 12.5834V11.0726H14.2673V12.5834H18.8ZM11.2445 11.0726V12.5834H12.7554V11.0726H11.2445ZM5.19995 11.0726V12.5834H9.73361V11.0726H5.19995Z" fill="white"/>
</svg>
