<?xml version="1.0" encoding="UTF-8" standalone="no"?>
<!-- Created with Inkscape (http://www.inkscape.org/) -->

<svg
   width="512px"
   height="512px"
   viewBox="0 0 512 512"
   version="1.1"
   id="genzstaking-logo"
   xml:space="preserve"
   sodipodi:docname="logo.svg"
   inkscape:export-filename="logo.png"
   inkscape:export-xdpi="96"
   inkscape:export-ydpi="96"
   inkscape:version="1.2.1 (9c6d41e410, 2022-07-14)"
   xmlns:inkscape="http://www.inkscape.org/namespaces/inkscape"
   xmlns:sodipodi="http://sodipodi.sourceforge.net/DTD/sodipodi-0.dtd"
   xmlns="http://www.w3.org/2000/svg"
   xmlns:svg="http://www.w3.org/2000/svg"><sodipodi:namedview
     id="namedview243"
     pagecolor="#ffffff"
     bordercolor="#666666"
     borderopacity="1.0"
     inkscape:showpageshadow="2"
     inkscape:pageopacity="0.0"
     inkscape:pagecheckerboard="0"
     inkscape:deskcolor="#d1d1d1"
     showgrid="false"
     inkscape:zoom="1.0292969"
     inkscape:cx="182.16319"
     inkscape:cy="256.48577"
     inkscape:window-width="1366"
     inkscape:window-height="699"
     inkscape:window-x="0"
     inkscape:window-y="32"
     inkscape:window-maximized="1"
     inkscape:current-layer="genzstaking-logo" /><defs
     id="defs2" /><g
     id="layer1"><path
       style="fill:#fb0000;stroke:none;stroke-width:5.03146px;stroke-linecap:butt;stroke-linejoin:miter;stroke-opacity:1;fill-opacity:1"
       d="m 496.74028,500.07766 c 0,0 -159.10898,-47.37273 -344.34431,-84.33513 -185.235344,-36.96241 -62.103224,-68.78666 -12.15988,-78.06529 31.26869,-5.80921 111.86617,-20.70989 111.86617,-20.70989 l 160.25839,42.81516 c 71.99245,20.43742 81.73899,50.45759 83.95393,81.63727 z"
       id="path263" /><path
       style="fill:#fb0000;stroke:none;stroke-width:5.03146px;stroke-linecap:butt;stroke-linejoin:miter;stroke-opacity:1;fill-opacity:1"
       d="m 13.565764,14.354701 c 0,0 159.108976,47.372725 344.344316,84.335131 185.23534,36.962408 65.71626,68.844748 12.15987,78.065288 -53.76423,9.25632 -111.86616,20.70989 -111.86616,20.70989 L 97.945396,154.64984 C 25.952949,134.21243 16.20641,104.19226 13.991463,73.012574 Z"
       id="path263-3" /><path
       style="fill:#750000;stroke:none;stroke-width:5.03146px;stroke-linecap:butt;stroke-linejoin:miter;stroke-opacity:1;fill-opacity:1"
       d="M 61.242051,386.29224 C -7.0521929,349.0616 -1.7785377,255.29079 77.711569,235.69513 99.519294,230.31915 381.00281,175.70284 399.85045,171.34982 c 112.8255,-26.05812 25.43083,-60.02709 16.68067,-58.81953 92.5541,18.99424 133.13376,153.35872 -13.28366,177.73965 -17.02879,2.83558 -144.11163,23.98794 -258.6786,46.16333 -114.566969,22.17539 -88.734366,42.73378 -83.326809,49.85897 z"
       id="path265" /></g></svg>
