<?xml version="1.0" encoding="UTF-8" standalone="no"?>
<!-- Created with Inkscape (http://www.inkscape.org/) -->

<svg
   width="512px"
   height="100px"
   viewBox="0 0 512 100"
   version="1.1"
   id="genzstaking-logo"
   xml:space="preserve"
   inkscape:version="1.2.1 (9c6d41e410, 2022-07-14)"
   sodipodi:docname="logo-line.svg"
   xmlns:inkscape="http://www.inkscape.org/namespaces/inkscape"
   xmlns:sodipodi="http://sodipodi.sourceforge.net/DTD/sodipodi-0.dtd"
   xmlns="http://www.w3.org/2000/svg"
   xmlns:svg="http://www.w3.org/2000/svg"><sodipodi:namedview
     id="namedview7"
     pagecolor="#ffffff"
     bordercolor="#666666"
     borderopacity="1.0"
     inkscape:showpageshadow="2"
     inkscape:pageopacity="0.0"
     inkscape:pagecheckerboard="0"
     inkscape:deskcolor="#d1d1d1"
     inkscape:document-units="mm"
     showgrid="false"
     inkscape:zoom="0.5973674"
     inkscape:cx="-118.01782"
     inkscape:cy="195.85936"
     inkscape:window-width="1366"
     inkscape:window-height="699"
     inkscape:window-x="0"
     inkscape:window-y="32"
     inkscape:window-maximized="1"
     inkscape:current-layer="layer1" /><defs
     id="defs2"><rect
       x="-380.86424"
       y="124.17153"
       width="295.24949"
       height="89.843105"
       id="rect1218" /><rect
       x="-604.70542"
       y="122.38452"
       width="97.68431"
       height="64.218081"
       id="rect1212" /><rect
       x="-380.86423"
       y="124.17153"
       width="497.69746"
       height="78.596602"
       id="rect1218-6" /></defs><g
     inkscape:label="Layer 1"
     inkscape:groupmode="layer"
     id="layer1"><g
       id="g1335"
       transform="matrix(1,0,0,1.1324227,1.4591612,83.302932)"><g
         id="g1325"
         transform="translate(0,-80.101418)"><g
           id="g1156"
           transform="matrix(0.17122983,0,0,0.16491174,154.90933,9.4708402)"><path
             style="fill:#fb0000;fill-opacity:1;stroke:none;stroke-width:5.03146px;stroke-linecap:butt;stroke-linejoin:miter;stroke-opacity:1"
             d="m 496.74028,500.07766 c 0,0 -159.10898,-47.37273 -344.34431,-84.33513 -185.235344,-36.96241 -62.103224,-68.78666 -12.15988,-78.06529 31.26869,-5.80921 111.86617,-20.70989 111.86617,-20.70989 l 160.25839,42.81516 c 71.99245,20.43742 81.73899,50.45759 83.95393,81.63727 z"
             id="path263"
             sodipodi:nodetypes="czscccc" /><path
             style="fill:#fb0000;fill-opacity:1;stroke:none;stroke-width:5.03146px;stroke-linecap:butt;stroke-linejoin:miter;stroke-opacity:1"
             d="m 13.565764,14.354701 c 0,0 159.108976,47.372725 344.344316,84.335131 185.23534,36.962408 65.71626,68.844748 12.15987,78.065288 -53.76423,9.25632 -111.86616,20.70989 -111.86616,20.70989 L 97.945396,154.64984 C 25.952949,134.21243 16.20641,104.19226 13.991463,73.012574 Z"
             id="path263-3"
             sodipodi:nodetypes="czscccc" /><path
             style="fill:#750000;fill-opacity:1;stroke:none;stroke-width:5.03146px;stroke-linecap:butt;stroke-linejoin:miter;stroke-opacity:1"
             d="M 61.242051,386.29224 C -7.0521929,349.0616 -1.7785377,255.29079 77.711569,235.69513 99.519294,230.31915 381.00281,175.70284 399.85045,171.34982 c 112.8255,-26.05812 25.43083,-60.02709 16.68067,-58.81953 92.5541,18.99424 133.13376,153.35872 -13.28366,177.73965 -17.02879,2.83558 -144.11163,23.98794 -258.6786,46.16333 -114.566969,22.17539 -88.734366,42.73378 -83.326809,49.85897 z"
             id="path265"
             sodipodi:nodetypes="csscszc" /></g></g><text
         xml:space="preserve"
         id="text1216-7"
         style="font-style:normal;font-weight:normal;font-size:64px;line-height:1.25;font-family:sans-serif;white-space:pre;shape-inside:url(#rect1218-6);display:inline;fill:#000000;fill-opacity:1;stroke:none"
         transform="translate(389.87287,-186.55809)"><tspan
           x="-380.86328"
           y="183.02119"
           id="tspan1355"><tspan
             style="font-weight:bold;font-family:'Droid Serif';-inkscape-font-specification:'Droid Serif Bold'"
             id="tspan1353">Gen       Staking</tspan></tspan></text></g></g></svg>
