<?xml version="1.0" encoding="UTF-8" standalone="no"?>
<!-- Creator: CorelDRAW X7 -->

<svg
   width="256px"
   height="256px"
   viewBox="0 0 256 256"
   id="genz-bank-logo"
   sodipodi:docname="logo.svg"
   inkscape:version="1.1.2 (0a00cf5339, 2022-02-04)"
   version="1.1"
   xmlns:inkscape="http://www.inkscape.org/namespaces/inkscape"
   xmlns:sodipodi="http://sodipodi.sourceforge.net/DTD/sodipodi-0.dtd"
   xmlns="http://www.w3.org/2000/svg"
   xmlns:svg="http://www.w3.org/2000/svg"><sodipodi:namedview
   id="namedview61"
   pagecolor="#ffffff"
   borderopacity="0"
   inkscape:pageshadow="2"
   inkscape:pageopacity="0.0"
   inkscape:pagecheckerboard="0"
   inkscape:document-units="in"
   showgrid="false"
   inkscape:zoom="0.98674242"
   inkscape:cx="26.856046"
   inkscape:cy="147.45489"
   inkscape:window-width="1366"
   inkscape:window-height="736"
   inkscape:window-x="0"
   inkscape:window-y="-5"
   inkscape:window-maximized="1"
   inkscape:current-layer="Layer_x0020_1"
   bordercolor="#666666" />
<defs
   id="defs27" />
<g
   id="Layer_x0020_1"
   inkscape:label="Layer 1">
  <metadata
     id="CorelCorpID_0Corel-Layer" />
  <path
     class="fil0"
     d="m 23.961369,114.2213 c -3.33566,-0.57349 -8.48418,-5.4072 -16.3882451,-0.65542 -13.3426422,8.02887 -7.97657958,31.78778 7.6865221,30.88658 1.377773,-0.0819 3.480689,-0.40964 4.49589,-0.9012 2.102917,-1.06505 0.942687,-1.72047 3.98829,-1.55662 0.870173,1.8024 1.885374,9.50356 2.247945,11.87945 0.942687,6.22648 7.614008,27.52756 10.369554,30.88658 1.16023,-0.40963 7.32395,-4.99756 8.774237,-6.06262 2.030402,-1.39276 3.335661,-1.39276 4.568405,-2.62167 0.870172,-0.81927 0.580115,-0.9012 1.957888,-2.04818 0.797658,-0.65542 1.377773,-0.9012 2.175431,-1.55662 0.217543,-6.14454 -8.629209,-16.5493 -8.701724,-44.24072 -0.07251,-9.42163 0.507601,-15.97581 2.755546,-23.92276 1.015201,-3.68672 1.66783,-6.799961 2.900574,-10.486687 1.16023,-3.113236 3.118118,-7.127672 3.045604,-10.404762 L 36.361325,71.127562 c -2.175431,2.785527 -6.526293,15.402325 -7.541494,19.826397 -1.087715,4.505999 -2.17543,6.308399 -2.82806,11.060181 -0.5076,3.6048 -1.377772,8.52043 -2.030402,12.20716 z"
     id="path30"
     style="stroke-width:0.0770773;fill:#aa4400" />
  <path
     class="fil1"
     d="m 201.98412,83.498578 c 0.0725,3.27709 2.17543,6.799963 3.19063,9.585489 1.16023,3.195164 2.10292,6.88189 3.11812,10.240903 4.42338,14.82884 3.04561,43.2576 -2.82806,59.15149 -1.30526,3.35901 -3.40817,6.39032 -3.5532,10.07705 2.538,1.47469 6.38126,4.506 8.84675,6.14454 l 8.77424,6.06262 c 2.17543,-2.78553 6.38126,-15.15654 7.61401,-19.8264 1.0152,-3.85058 2.10291,-6.6361 2.90057,-11.06018 0.29006,-2.04818 0.72514,-3.85058 0.94269,-6.14454 0.36257,-3.44095 -0.0725,-3.85058 1.66783,-5.89876 1.88537,0.49156 2.32046,1.31083 4.35086,1.96625 4.35086,1.22891 1.16023,-0.49156 4.13332,2.13011 2.10291,-0.9012 0.14503,-0.73735 2.68303,-1.63855 1.45029,-0.57349 1.5228,-0.24578 3.11812,-1.14698 13.27012,-7.04574 10.73212,-25.72516 0.29005,-30.14923 -8.77423,-3.68673 -9.93446,0.40964 -14.93795,1.22891 -0.87018,-2.45782 -2.61052,-14.501125 -5.0035,-22.857705 -1.45028,-5.243345 -5.51109,-17.04087 -7.75903,-20.236033 -0.94269,0.327709 -16.31573,11.06018 -17.54848,12.371016 z"
     id="path32"
     style="stroke-width:0.0770773;fill:#552200" />
  <path
     class="fil0"
     d="m 42.815103,195.57507 c 0.290057,1.88433 1.885373,4.58793 3.118117,6.3084 1.305259,2.04818 1.740345,2.37589 3.190632,4.91563 1.812859,1.88433 1.305259,2.62168 8.48418,8.93008 2.102917,1.88432 8.049094,5.98069 8.774238,8.52043 -2.392974,2.04818 -7.686522,4.34215 -8.919266,13.19029 -0.942687,7.04574 3.698232,13.35414 6.526292,15.81196 6.163721,5.48913 17.258418,2.21204 20.811621,-5.89876 1.957888,-4.42407 1.522802,-4.83371 1.740345,-10.07705 3.190632,0.0819 24.944938,9.99512 35.677068,8.93007 0.43508,-3.93251 0.72514,-21.46495 -0.14503,-24.49625 -13.56019,-1.4747 -26.032657,-5.81684 -36.329696,-12.69873 -7.468979,-4.99756 -13.922757,-11.06018 -19.506363,-17.94207 -7.106407,-8.84814 -2.755546,-10.15898 -14.647901,-1.63854 -2.465488,1.80239 -6.453778,4.17829 -8.774237,6.14454 z"
     id="path34"
     style="stroke-width:0.0770773;fill:#aa4400" />
  <path
     class="fil0"
     d="m 66.164727,31.392841 c -0.725144,3.604799 -2.755546,3.686726 -6.018692,6.881889 -4.060804,4.096364 -15.663102,16.631234 -17.403446,21.383015 0.580114,1.065055 7.83155,6.308399 8.701723,6.88189 13.197613,9.175853 5.076005,8.930072 20.521564,-7.783089 3.553203,-3.768654 7.904065,-7.701163 13.560185,-11.633671 4.350862,-3.031309 11.384754,-6.226472 16.533279,-8.028872 7.68652,-2.621672 6.67132,-2.785527 14.28532,-3.932508 0.94269,-0.163855 5.00349,-0.409637 5.58361,-1.065055 1.5228,-1.884327 0.65263,-25.8070867 -0.29006,-23.513123 l -1.59531,-0.163855 c -0.43509,0 -1.66783,0.245782 -2.39298,0.327709 -1.66783,0.163855 -3.48069,0.08193 -5.22103,0.327709 l -16.895847,4.505999 c -3.045604,1.392764 -5.511092,2.7036 -8.846752,2.867455 C 86.903834,4.5206994 75.446565,-4.737081 64.424382,2.5544451 57.463004,7.224299 55.07003,17.383279 60.291064,26.149496 c 2.102916,3.522872 1.957887,3.522872 5.873663,5.243345 z"
     id="path36"
     style="stroke-width:0.0770773;fill:#aa4400" />
  <path
     class="fil1"
     d="m 169.35266,18.612188 c -2.24794,0.08193 -6.23623,-1.8024 -8.19412,-2.703599 -4.78595,-2.130109 -22.11688,-6.3903268 -27.55546,-5.243345 l -0.0725,23.758905 c 3.69823,0.737346 7.39646,0.655418 10.80464,1.392764 12.32744,2.621672 29.94843,12.043307 39.30278,22.611923 2.39297,2.7036 4.13332,4.260218 6.16372,6.799963 1.81286,2.375891 3.33566,5.325272 5.43858,7.455381 1.95789,-0.163855 16.46076,-10.732471 17.98356,-13.026435 -0.58012,-1.228909 -4.20583,-6.062617 -5.36606,-7.619235 -2.10292,-2.785527 -3.69824,-4.587926 -5.94618,-7.127671 -2.32046,-2.7036 -3.48069,-4.260218 -6.09121,-6.799963 -1.81286,-1.638545 -5.65612,-4.260218 -6.23623,-6.472254 3.33566,-2.539745 3.11812,-0.655418 5.65612,-4.751781 1.45028,-2.293963 2.75554,-4.751781 3.11812,-8.35658 C 199.01103,11.07488 196.03795,5.5038265 191.7596,2.7182997 179.93976,-5.06479 168.99009,5.0122629 169.35266,18.612188 Z"
     id="path38"
     style="stroke-width:0.0770773;fill:#552200" />
  <path
     class="fil1"
     d="m 133.6756,221.95565 -0.21755,24.16854 c 5.22104,0.57349 21.46425,-3.52287 27.2654,-5.98069 2.68303,-1.06506 6.30875,-2.86745 8.62921,-2.86745 0.36257,8.84814 1.66783,11.96138 6.59881,15.97581 9.06429,7.37345 23.85722,-0.81927 22.55196,-15.89389 -0.58011,-6.96381 -5.14852,-9.9132 -8.99178,-13.10836 0.72515,-2.21204 5.00349,-5.24334 6.38127,-6.39033 2.75554,-2.21203 16.6783,-18.59748 17.40344,-22.44806 -4.35086,-2.21204 -15.30053,-11.30597 -18.05607,-11.79753 -2.61052,2.29396 -9.0643,14.74691 -25.08997,25.39745 -14.50287,9.58549 -21.82682,9.83127 -36.47472,12.94451 z"
     id="path40"
     style="stroke-width:0.0770773;fill:#552200" />
  <path
     class="fil1"
     d="m 160.68932,94.88078 v 12.90241 c -1.22046,1.0834 -4.2716,1.0834 -4.79466,0.49246 -0.17435,-0.59096 -0.78458,-4.03816 -0.95894,-5.02307 l -2.78962,-9.25822 c -1.22045,-2.3638 -2.44091,-5.61403 -4.35877,-7.583858 -0.61022,-0.59095 -0.69741,-0.886425 -1.30763,-1.575866 -1.30763,-1.378883 -4.88183,-4.530615 -6.53818,-5.121566 -2.26656,-0.886424 -3.5742,-2.166816 -6.27664,-2.265307 -1.74351,-0.09849 -3.22549,-0.590951 -4.79466,-0.689442 -1.83068,-0.196982 -8.97908,0.393967 -10.11237,0.984917 -1.91786,0.984916 -5.3177,3.250223 -6.7997,4.727598 -2.17938,2.3638 -3.31266,5.121564 -3.31266,8.765754 0,1.96984 0.3487,5.61402 0.95893,6.99291 l 1.30763,2.3638 c 0.95893,1.77285 0.17435,1.1819 1.56916,2.46229 0.95894,0.78793 0.43588,1.1819 1.65633,1.96983 l 4.09726,3.6442 c 1.30763,1.37888 5.84077,4.03814 6.62535,4.72759 0.78458,0.68944 1.13328,0.88643 2.17939,1.47737 1.13329,0.49246 1.30763,0.98493 2.17939,1.57587 0.6974,0.59095 1.48198,0.68944 2.26656,1.28039 l 4.53314,3.25022 c 0.95893,0.68944 1.56916,0.78794 2.35374,1.37888 l 4.2716,3.25023 c 0.6974,0.49246 1.56916,0.68945 2.35374,1.1819 0.87176,0.59095 1.13328,1.2804 2.1794,1.77285 1.30762,0.68944 1.22045,0.19699 2.17938,1.37888 l 4.09725,3.5457 c 1.22046,0.78793 0.95894,1.2804 2.00504,1.96984 0.87175,0.59094 2.87679,2.85625 3.5742,4.03816 0.61023,0.78793 1.30763,1.18189 1.65634,1.96982 3.66137,6.99291 5.05618,13.98581 3.39985,22.16063 -0.17436,0.88642 -0.52305,1.87133 -0.78459,2.46229 -0.26152,0.88642 -0.26152,1.67435 -0.61022,2.75776 -1.83069,5.61403 -6.18947,11.42503 -10.98413,13.98581 -1.48198,0.78794 -1.7435,1.57587 -3.74855,2.26531 -1.30763,0.39397 -3.05115,1.87135 -4.01008,2.06832 -5.23054,0.88643 -3.83573,0.59096 -3.9229,8.86426 0,2.1668 0,4.33362 0,6.50044 -0.0872,2.26531 0.17436,3.05324 3.74856,1.67436 1.56915,-0.59096 3.05114,-0.49246 4.70747,-1.2804 l 4.35879,-1.77285 c 1.39481,-0.49245 2.26656,-1.57585 3.83572,-2.06832 l 5.92794,-3.25022 5.31771,-4.03816 c 0.95893,-0.68944 0.78458,-0.88642 1.48199,-1.47738 0.61023,-0.68944 1.22046,-0.59094 1.83069,-1.28038 l 10.11236,-11.52353 c 0.61024,-0.78793 0.52306,-1.1819 1.22047,-2.06832 2.26656,-3.05324 4.09725,-6.59894 5.75358,-10.04614 l 2.8768,-6.59895 c 0.87175,-2.26531 1.39481,-5.12156 2.35375,-7.18989 0.43587,-0.88641 0.43587,-1.47737 0.61022,-2.65928 0.17434,-1.96982 0.3487,-1.28038 0.6974,-2.46228 0.17436,-0.49245 0.52306,-2.16682 0.61023,-2.75777 0.95894,-5.9095 0.34871,-8.37179 0.95894,-12.50843 0.3487,-2.85626 -0.0872,-9.5537 -0.26153,-12.70543 -0.17435,-2.26531 -0.61023,-6.30346 -1.48199,-8.27329 -0.61023,-1.47738 -0.52305,-3.6442 -0.95893,-5.41705 -0.26153,-1.18189 -1.13328,-2.65926 -1.65634,-4.7276 -0.43587,-1.67435 -3.83572,-9.75066 -4.70747,-11.22804 l -2.17939,-4.038154 c -1.482,-2.3638 -3.31268,-5.515532 -5.14337,-7.386873 -0.61023,-0.689442 -0.78458,-1.083408 -1.39481,-1.871341 -2.61526,-3.151732 -5.92794,-6.598939 -8.97909,-9.455197 l -8.80473,-6.598939 c -1.13329,-0.886426 -2.70245,-1.280393 -4.01008,-2.265308 l -9.32779,-4.136649 c -3.31267,-1.280392 -2.44091,-0.984917 -5.92793,-1.575866 -1.22046,-0.196984 -1.74352,-0.393966 -1.74352,1.083408 -0.17435,4.038157 0.43588,9.159722 -0.0872,13.197878 -0.52304,4.530616 3.22551,2.95475 8.6304,6.204974 2.35373,1.280391 0.87175,-0.59095 3.92289,2.265308 0.78458,0.689442 1.22046,0.590949 1.91787,1.181899 0.95893,0.886425 3.83572,3.939665 4.2716,5.023073 2.5281,5.220057 2.26657,7.977827 2.17939,14.379777 z"
     id="path42"
     style="stroke-width:0.0926611;fill:#552200" />
  <path
     class="fil0"
     d="m 114.57342,205.28991 c 0.69741,-2.95475 0.26154,-8.76576 0.26154,-12.31146 0,-1.57587 0.3487,-3.05324 -0.52306,-3.74269 -0.43588,-0.39395 -2.00504,-0.78792 -2.70244,-1.0834 -1.65634,-0.78793 -4.35878,-0.68944 -5.84077,-1.96983 -2.35374,-1.87134 -3.39985,-0.39397 -5.31771,-2.56078 -0.95893,-0.98492 -1.65633,-0.78794 -2.5281,-1.47738 -1.30762,-1.1819 0.26154,-1.1819 -2.00503,-1.77285 -2.00504,-0.59094 -0.6974,-1.37888 -2.00504,-2.26531 -2.00504,-1.28039 -0.6974,-0.19698 -1.83069,-2.16682 -0.78458,-1.37888 -0.87175,-0.49245 -1.30763,-2.85625 -1.13328,-5.22005 -0.69741,-20.0923 -0.69741,-25.21386 0.87176,-0.0985 1.13329,-0.19698 2.09222,-0.19698 4.01008,-0.19698 1.56916,-0.39397 4.01008,8.2733 0.26152,1.0834 0.0872,0.29547 0.34869,1.0834 l 1.13329,5.02308 c 0.17435,0.68944 0.26152,0.98491 0.6974,1.47737 1.13329,1.08341 0.34871,0.29548 1.04612,1.67436 0.43587,0.98492 0.78458,0.59095 1.30762,1.37888 0.43588,0.78793 0.0872,1.08341 0.78459,1.87134 0.78458,0.88643 0.43587,0.19699 1.22045,1.47738 l 2.5281,2.85625 c 0.61023,0.49247 1.0461,0.49247 1.48198,1.18191 0.61023,0.88642 0.17435,1.08341 1.13329,1.47737 0.61023,0.19698 1.56916,0.29548 2.09221,0.59095 0.87176,1.77285 0.61022,1.57587 2.8768,1.77285 1.7435,0.19699 2.26656,0.68944 3.66137,1.08341 1.13329,0.49246 2.09222,0.98491 3.66137,1.0834 3.13833,0.0985 6.88688,0.59096 10.0252,-0.29547 0.3487,-0.0985 0.95893,-0.29547 1.39481,-0.49246 0.78457,-0.29547 0.17435,0 0.6974,-0.29547 1.30764,-0.68944 2.09221,-0.78794 3.66137,-1.18191 1.74352,-0.29547 0.95894,-0.98491 2.35375,-1.77285 1.74351,-0.88641 0.95893,0.0985 2.35374,-1.47736 0.52305,-0.68945 1.56917,-1.37889 2.09221,-2.06833 2.00504,-3.05324 1.83069,-2.3638 1.83069,-6.89442 0,-3.84117 0.17435,-5.61402 -1.30763,-9.06122 -0.17435,-0.29549 -0.26152,-0.68944 -0.43588,-1.08341 -0.43587,-1.08341 -1.22045,-2.56078 -2.09222,-3.25022 -0.95893,-0.68944 -0.52304,-0.68944 -1.13327,-1.47738 -0.61023,-0.78793 -0.95894,-0.78793 -1.65635,-1.2804 -1.0461,-0.98491 -0.0872,-0.78792 -1.22045,-1.57586 -0.61023,-0.39396 -0.95894,-0.29547 -1.56917,-0.98491 -0.52304,-0.49246 -0.43587,-1.08341 -1.22045,-1.47738 -0.87176,-0.39396 -1.22046,0 -1.91786,-0.88643 -0.61023,-0.78793 -0.26153,-0.88641 -1.30764,-1.37888 -0.87175,-0.49246 -1.30763,-0.29547 -1.91786,-0.98491 -0.43588,-0.59096 -0.43588,-1.08341 -1.22046,-1.47738 -0.6974,-0.39396 -1.56916,-0.19699 -2.17938,-0.68944 -0.52306,-0.49246 -0.34871,-0.88643 -1.22047,-1.47737 -0.52305,-0.29547 -1.13328,-0.39397 -1.74351,-0.78794 -0.69741,-0.39397 -0.87176,-0.78793 -1.48199,-1.28038 l -3.31266,-2.16682 c -0.78459,-0.68945 -0.78459,-0.39397 -1.65635,-0.88643 -1.7435,-0.98491 -0.0872,-1.47738 -3.31267,-2.26531 -1.56916,-0.39397 -1.65633,-1.57586 -3.13832,-2.16682 -2.17939,-0.78792 -1.39481,-1.67435 -3.05114,-2.36379 -2.09222,-0.88643 -1.48198,-1.37888 -3.31268,-2.3638 -0.6974,-0.39396 -0.87175,-0.59095 -1.39481,-1.28039 -0.78458,-0.98492 -0.78458,-0.59095 -1.56915,-1.28039 -0.69741,-0.59096 -0.69741,-0.98493 -1.22047,-1.57587 -0.34869,-0.39397 -1.04611,-0.78794 -1.39481,-1.1819 -0.61023,-0.59095 -0.43588,-0.98492 -1.04611,-1.67436 -1.65633,-1.96984 -2.00503,-2.85625 -3.31266,-5.02307 -0.52306,-0.98491 -0.95894,-3.25023 -1.48199,-4.33363 -1.39481,-3.05324 -1.22046,-6.00799 -1.65634,-9.65218 -0.26152,-1.77285 0.52306,-8.96274 1.04611,-10.44012 l 1.56916,-3.939662 c 0.61023,-1.575866 -0.17435,-0.689442 0.95893,-1.77285 1.04611,-0.886424 0.6974,-1.674357 1.65634,-2.560783 0.69741,-0.787933 1.13328,-1.674357 2.00504,-2.363799 1.0461,-0.886424 0.43587,-0.689441 1.13328,-1.477374 0.52305,-0.689442 1.30763,-0.590949 1.91786,-0.984917 0.69741,-0.492458 0.43589,-0.886424 1.22047,-1.477374 0.52304,-0.492459 1.0461,-0.393966 1.7435,-0.886425 1.91787,-1.280391 0.69741,-1.575866 3.5742,-1.871341 1.22046,-0.196983 2.61527,-1.280391 3.66137,-1.871341 1.482,-0.689441 2.78962,-0.196983 4.27162,-1.083407 l 0.0871,-15.660171 c -2.70243,-0.393967 -6.45099,-0.295475 -8.28167,1.477374 -1.39481,1.378884 -3.39985,0.492458 -4.70749,1.378884 -1.13328,0.886424 -0.0872,1.181899 -2.26656,1.772848 -1.39481,0.393967 -1.48198,1.083409 -2.44092,1.674359 -0.95893,0.689442 -2.00503,0.492458 -3.05115,0.984915 -0.95893,0.49246 -1.30763,1.477375 -2.26656,1.871342 -4.445956,1.575867 -1.22046,1.181899 -3.5742,2.3638 -0.52305,0.295474 -0.958932,0.393966 -1.39481,0.787933 -0.78458,0.689441 -0.348703,0.590949 -0.871756,1.083408 -0.610229,0.787933 -1.481985,0.886424 -2.266565,1.87134 -0.08717,0.09849 -0.174352,0.295475 -0.435879,0.492459 l -7.584226,7.977822 c -0.435879,0.59095 -0.435879,0.787933 -0.871757,1.378882 l -2.702443,3.348716 c -1.220459,2.3638 -0.61023,0.984917 -1.656337,2.560783 -0.435878,0.59095 -0.348702,0.886424 -0.78458,1.477375 -0.78458,1.083408 -0.958931,1.083408 -1.656336,2.46229 -0.261527,0.689444 -0.261527,0.984914 -0.523054,1.477374 l -2.78962,5.71252 c -0.348701,0.59095 -0.435877,0.88642 -0.697403,1.57586 -0.697405,2.06833 -2.00504,3.93966 -2.353742,6.10648 -0.261526,1.67437 -0.348703,2.26531 -0.697405,3.64419 -0.348703,0.88643 -0.261526,1.77285 -0.697405,2.56079 l -0.348702,0.78793 c -0.610229,2.16682 -0.784581,5.41704 -1.133283,7.48536 -0.174351,1.37889 -0.08717,0.49247 -0.435878,1.47738 -0.697405,2.16682 -1.046107,14.18279 -0.523053,17.13754 0.08717,0.39397 0.348702,1.1819 0.435878,1.77285 0.17435,1.47738 0,2.65928 0.348702,4.03816 0.958931,3.64419 0.61023,5.51554 2.266566,10.63709 0.78458,2.4623 1.307634,4.92459 2.17939,7.28839 0.697404,1.87134 0.523053,2.06832 1.56916,3.74268 l 1.220459,3.05324 c 0.261526,0.98492 0.348703,0.59095 0.78458,1.47737 0.261526,0.49247 0.348703,0.88643 0.610229,1.2804 l 2.440917,4.03815 c 0.08717,0.29548 0.08717,0.39397 0.261527,0.68944 l 2.876795,4.53062 c 0.348702,0.39397 0.78458,0.59095 1.046107,1.08341 0.610229,0.88642 0.08717,0.78794 0.78458,1.47738 0.435878,0.39396 0.784581,0.39396 1.133283,0.78793 0.61023,0.68944 0.261527,0.68944 0.78458,1.47737 0.261527,0.59095 0.348703,0.39396 0.784581,1.1819 0.958932,1.77285 0.78458,0.98491 2.266565,1.87134 0.697405,0.49246 0.435879,0.59095 0.871757,1.28039 0.78458,1.08341 1.133282,0.39397 2.17939,1.96984 0.78458,1.28038 1.481985,0.88641 2.17939,1.96982 0.523053,0.78794 -0.08717,0.49247 0.871755,1.08341 0.435878,0.39397 0.958932,0.39397 1.39481,0.78794 0.958933,0.59095 0.871753,1.37888 2.179393,1.96983 2.26656,0.98492 0.95893,0.59095 2.26656,1.77285 0.87176,0.68944 2.1794,0.49245 2.87679,1.08341 1.13329,1.08341 0.0872,1.28039 2.35375,1.77285 0.61023,0.19698 0.95893,0.19698 1.39481,0.49245 1.74351,0.98493 0,0.68945 4.01008,2.16682 0.95893,0.39396 1.3948,1.08341 2.52809,1.57587 2.17939,0.78793 3.74854,0.39397 6.71252,1.77285 l 1.22045,0.39396 c 0.52306,0.0985 1.13329,0.19698 1.83069,0.0985 z"
     id="path44"
     style="stroke-width:0.0926611" />
  <path
     class="fil3"
     d="m 125.04639,194.10038 c 1.16023,0.0819 2.32046,0 3.33566,0.24578 1.16023,0.16386 1.81286,-0.32771 2.82806,-0.40964 0.0725,-1.2289 0.29006,-1.72047 0.29006,-3.27709 -0.0725,-3.11323 0.21754,-9.66741 0.0725,-11.46981 -1.74035,-0.98313 -3.11812,-0.16386 -5.22103,-0.32771 -2.53801,-0.24578 -1.95789,0.24578 -1.66783,3.6048 0.21754,1.88433 -0.0725,4.42407 0,6.47225 0.0725,1.63855 -0.14503,1.72047 -0.29006,2.86746 -0.14503,1.2289 0.43508,1.55661 0.65263,2.29396 z"
     id="path50"
     style="stroke-width:0.0770773;fill:#aa4400" />
  <path
     class="fil1"
     d="m 130.78809,66.810666 c 0.43588,-2.560783 0.3487,-9.750672 0.26153,-13.099388 0,-2.265307 0.17435,-2.363799 -0.43588,-4.038156 l -6.71253,-0.09849 c -0.61022,2.265308 -0.26152,9.750672 -0.26152,12.705422 0.0872,2.856258 -0.78458,4.136648 1.74352,4.333631 1.7435,0.196984 3.39984,0.492459 5.40488,0.196984 z"
     id="path52"
     style="stroke-width:0.0926611;fill:#aa4400" />
  <path
     class="fil1"
     d="m 123.72686,199.67588 c 0.0872,7.38688 -1.0461,6.59894 5.14336,6.50045 l 1.48199,-0.19698 c 0.95893,-0.29547 0.43588,-6.40195 0.43588,-7.87933 0.0872,-2.16682 0.26153,-6.30347 0,-8.2733 h -5.84077 c -1.04611,0 -1.13328,-0.0985 -1.22046,0.98492 -0.17435,2.26531 0,6.50044 0,8.86424 z"
     id="path54"
     style="stroke-width:0.0926611;fill:#aa4400" />
</g>

</svg>
