<svg xmlns="http://www.w3.org/2000/svg" xmlns:xlink="http://www.w3.org/1999/xlink" width="64" height="64" viewBox="0 0 64 64"><script xmlns=""/>
    <defs>
        <path id="a" d="M37.398 17.318L64 0v33.38a3.012 3.012 0 0 1-3.012 3.012H3.012A3.012 3.012 0 0 1 0 33.38V0l26.602 17.318h10.796z"/>
        <path id="c" d="M13.547.544l10.668 6.123c.592.34.957.97.957 1.652v12.225c0 .682-.365 1.312-.957 1.652L13.547 28.32a1.905 1.905 0 0 1-1.897 0L.982 22.196a1.905 1.905 0 0 1-.957-1.652V8.319c0-.683.365-1.313.957-1.652L11.65.544a1.905 1.905 0 0 1 1.897 0z"/>
    </defs>
    <g fill="none" fill-rule="evenodd">
        <path fill="none" d="M-18-18H82V82H-18z"/>
        <path fill="#1C6BD4" fill-rule="nonzero" d="M64 27.608v20.078H0V27.608l32-22.84 32 22.84z"/>
        <path fill="#105EE6" fill-rule="nonzero" d="M32 47.686V4.77l32 22.839v20.078H32zm-32 0V27.608v20.078z"/>
        <path fill="#EBEDF0" fill-rule="nonzero" d="M14.098 0h35.804a3.012 3.012 0 0 1 3.011 3.012v39.906a3.012 3.012 0 0 1-3.011 3.011H14.098a3.012 3.012 0 0 1-3.011-3.011V3.012A3.012 3.012 0 0 1 14.098 0z"/>
        <path fill="#F5F7F9" fill-rule="nonzero" d="M14.098 0H32v45.93H14.098a3.012 3.012 0 0 1-3.011-3.012V3.012A3.012 3.012 0 0 1 14.098 0z"/>
        <g transform="translate(0 27.608)">
            <mask id="b" fill="#fff">
                <use xlink:href="#a"/>
            </mask>
            <use fill="#136BFF" fill-rule="nonzero" xlink:href="#a"/>
            <path fill="#105EE6" fill-rule="nonzero" d="M32 0h32v36.392H32z" mask="url(#b)"/>
            <path fill="#FFF" fill-rule="nonzero" d="M32 13.553l32 22.84H0z" mask="url(#b)" opacity=".3" style="mix-blend-mode:overlay"/>
        </g>
        <g transform="translate(19.402 8.031)">
            <mask id="d" fill="#fff">
                <use xlink:href="#c"/>
            </mask>
            <use fill="#FFC107" fill-rule="nonzero" xlink:href="#c"/>
            <path fill="#F57C00" fill-rule="nonzero" d="M12.478-.954h13.198v30.532H12.478z" mask="url(#d)"/>
            <path fill="#FFF" fill-rule="nonzero" d="M2.495-3.101h20.157l-4.411 15.652-15.746 4.385z" mask="url(#d)" opacity=".5" style="mix-blend-mode:overlay" transform="rotate(45 12.574 6.918)"/>
            <path fill="#FFF" fill-rule="nonzero" d="M11.086 7.633H16.5l-1.767 4.26h2.528L9.12 23.29l1.549-7.66h-1.55z" mask="url(#d)"/>
        </g>
    </g>
</svg>