<svg xmlns="http://www.w3.org/2000/svg" xmlns:xlink="http://www.w3.org/1999/xlink" width="64" height="64" viewBox="0 0 64 64"><script xmlns=""/>
    <defs>
        <path id="a" d="M14.118.571L25.225 6.96c.618.355.999 1.014.999 1.727v12.76c0 .714-.381 1.372-1 1.728L14.119 29.56a1.992 1.992 0 0 1-1.986 0L1.025 23.174a1.992 1.992 0 0 1-.999-1.727V8.686c0-.713.381-1.372 1-1.727L12.131.57a1.992 1.992 0 0 1 1.986 0z"/>
    </defs>
    <g fill="none" fill-rule="evenodd">
        <path fill="none" d="M-18-18H82V82H-18z"/>
        <path fill="#136BFF" fill-rule="nonzero" d="M32 35.86v13.198c-4.142 0-7.5-3.344-7.5-7.47 0-3.526 2.452-6.482 5.75-7.267v-7.426H32v8.965zm-22.5.498v12.7c-4.142 0-7.5-3.344-7.5-7.47 0-3.526 2.452-6.482 5.75-7.267V16.934c0-.825.669-1.494 1.494-1.494H25.25v3.735h-14v17.183H9.5zm0 12.7V64H1.992C.892 64 0 63.108 0 62.008v-5.479a7.47 7.47 0 0 1 7.47-7.47H9.5zm45-14.941v14.941c-4.142 0-7.5-3.344-7.5-7.47 0-4.126 3.358-7.471 7.5-7.471zm0 14.941V64h-7.508c-1.1 0-1.992-.892-1.992-1.992v-5.479a7.47 7.47 0 0 1 7.47-7.47h2.03zm-22.5 0V64h-7.508c-1.1 0-1.992-.892-1.992-1.992v-5.479a7.47 7.47 0 0 1 7.47-7.47H32z"/>
        <path fill="#105EE6" fill-rule="nonzero" d="M33.75 34.321c3.298.785 5.75 3.74 5.75 7.267 0 4.126-3.358 7.47-7.5 7.47V26.895h1.75v7.426zm22.5 0c3.298.785 5.75 3.74 5.75 7.267 0 4.126-3.358 7.47-7.5 7.47v-12.7h-1.75V19.175h-14V15.44h16.006c.825 0 1.494.669 1.494 1.494V34.32zM9.5 34.117c4.142 0 7.5 3.345 7.5 7.47 0 4.127-3.358 7.471-7.5 7.471V34.117zm0 14.941h2.03A7.47 7.47 0 0 1 19 56.53v5.479c0 1.1-.892 1.992-1.992 1.992H9.5V49.058zm45 0h2.03A7.47 7.47 0 0 1 64 56.53v5.479c0 1.1-.892 1.992-1.992 1.992H54.5V49.058zm-22.5 0h2.03a7.47 7.47 0 0 1 7.47 7.471v5.479c0 1.1-.892 1.992-1.992 1.992H32V49.058z"/>
        <g transform="translate(19)">
            <mask id="b" fill="#fff">
                <use xlink:href="#a"/>
            </mask>
            <use fill="#FFC107" fill-rule="nonzero" xlink:href="#a"/>
            <path fill="#F57C00" fill-rule="nonzero" d="M13-.996h13.75v31.875H13z" mask="url(#b)"/>
            <path fill="#FFF" fill-rule="nonzero" d="M2.6-3.237h21l-4.597 16.34L2.599 17.68z" mask="url(#b)" opacity=".5" style="mix-blend-mode:overlay" transform="rotate(45 13.1 7.222)"/>
            <path fill="#FFF" fill-rule="nonzero" d="M11.55 7.969h5.64l-1.842 4.447h2.635L9.5 24.315l1.614-7.998H9.5z" mask="url(#b)"/>
        </g>
    </g>
</svg>