<svg xmlns="http://www.w3.org/2000/svg" xmlns:xlink="http://www.w3.org/1999/xlink" width="64" height="63" viewBox="0 0 64 63"><script xmlns=""/>
    <defs>
        <path id="a" d="M13.755 4.953c-.906 1.067-2.19 1.853-3.85 2.36-1.66.506-3.316.76-4.966.76v10.224c0 4.77 2.939 8.72 8.816 11.85 5.878-3.13 8.816-7.08 8.816-11.85V8.072c-1.65 0-3.306-.253-4.966-.76-1.66-.506-2.944-1.292-3.85-2.359zm3.048-2.59c.38.447 1.004.83 1.969 1.124 1.287.392 2.55.585 3.8.585a4 4 0 0 1 4 4v10.225c0 6.424-3.862 11.614-10.937 15.38a4 4 0 0 1-3.76 0C4.8 29.912.94 24.722.94 18.298V8.072a4 4 0 0 1 4-4c1.25 0 2.512-.193 3.8-.585.964-.295 1.589-.677 1.968-1.124a4 4 0 0 1 6.096 0z"/>
    </defs>
    <g fill="none" fill-rule="evenodd">
        <path fill="#FFF" fill-opacity="0" fill-rule="nonzero" d="M-18-18H82V82H-18z"/>
        <path fill="#136BFF" fill-rule="nonzero" d="M45.061 51.844v-4.219a3 3 0 0 1 3-3h6.47V63h-6.47a3 3 0 0 1-3-3v-4.219H18.94v-3.937H45.06zm-37.55-7.219v-26.25H3a3 3 0 0 1-3-3V3a3 3 0 0 1 3-3h6.47v18.375h1.959v26.25h-1.96V63H3a3 3 0 0 1-3-3V47.625a3 3 0 0 1 3-3h4.51zM45.06 7.219V3a3 3 0 0 1 3-3h6.47v18.375h-6.47a3 3 0 0 1-3-3v-4.219H18.94V7.22H45.06z"/>
        <path fill="#105EE6" fill-rule="nonzero" d="M54.53 44.625h-1.959v-26.25h1.96V0H61a3 3 0 0 1 3 3v12.375a3 3 0 0 1-3 3h-4.51v26.25H61a3 3 0 0 1 3 3V60a3 3 0 0 1-3 3h-6.47V44.625zM32 7.219h13.061v3.937H32V7.22zm0 44.625h13.061v3.937H32v-3.937zM9.47 0h6.469a3 3 0 0 1 3 3v12.375a3 3 0 0 1-3 3h-6.47V0zm0 44.625h6.469a3 3 0 0 1 3 3V60a3 3 0 0 1-3 3h-6.47V44.625z"/>
        <g fill-rule="nonzero">
            <path fill="#FFD400" d="M32 19.031v25.194c-5.878-3.13-8.816-7.08-8.816-11.85V22.15c1.65 0 3.306-.253 4.966-.76 1.66-.506 2.944-1.292 3.85-2.359z"/>
            <path fill="#FEBF00" d="M32 19.031v25.194c5.878-3.13 8.816-7.08 8.816-11.85V22.15c-1.65 0-3.306-.253-4.966-.76-1.66-.506-2.944-1.292-3.85-2.359z"/>
        </g>
        <g transform="translate(18.245 14.078)">
            <mask id="b" fill="#fff">
                <use xlink:href="#a"/>
            </mask>
            <use fill="#FF9800" fill-rule="nonzero" xlink:href="#a"/>
            <path fill="#F57C00" fill-rule="nonzero" d="M13.755.688h14.082v33.141H13.755z" mask="url(#b)"/>
        </g>
        <path fill="#FFEB3B" fill-rule="nonzero" d="M32 19.031v25.194c-5.878-3.13-8.816-7.08-8.816-11.85V22.15c1.65 0 3.306-.253 4.966-.76 1.66-.506 2.944-1.292 3.85-2.359z"/>
        <path fill="#FFC107" fill-rule="nonzero" d="M32 19.031c.906 1.067 2.19 1.853 3.85 2.36 1.66.506 3.316.76 4.966.76v10.224c0 4.77-2.938 8.72-8.816 11.85V19.031z"/>
        <path fill="#FFEB3B" fill-rule="nonzero" d="M32 19.031v25.194c-5.878-3.13-8.816-7.08-8.816-11.85V22.15c1.65 0 3.306-.253 4.966-.76 1.66-.506 2.944-1.292 3.85-2.359z"/>
        <path fill="#FFC107" fill-rule="nonzero" d="M32 19.031c.906 1.067 2.19 1.853 3.85 2.36 1.66.506 3.316.76 4.966.76v10.224c0 4.77-2.938 8.72-8.816 11.85V19.031z"/>
    </g>
</svg>