<svg width="368" height="298" viewBox="0 0 368 298" fill="none" xmlns="http://www.w3.org/2000/svg">
<path d="M181.741 5.48465V14.4974C109.197 14.4974 50.3573 73.3171 50.3534 145.885H41.3367C40.9042 145.883 40.4757 145.968 40.0763 146.134C39.6769 146.299 39.3147 146.543 39.0107 146.851C38.7067 147.159 38.4672 147.524 38.306 147.925C38.1449 148.327 38.0654 148.756 38.0722 149.188C39.8069 225.911 101.698 287.81 178.429 289.545C178.861 289.552 179.291 289.472 179.693 289.311C180.094 289.15 180.46 288.911 180.767 288.607C181.075 288.303 181.32 287.941 181.486 287.541C181.653 287.142 181.738 286.713 181.737 286.281V277.264C254.28 277.264 313.12 218.444 313.12 145.885H322.125C322.558 145.886 322.987 145.8 323.387 145.634C323.787 145.467 324.149 145.223 324.454 144.914C324.758 144.606 324.998 144.24 325.159 143.838C325.32 143.436 325.4 143.006 325.393 142.573C323.658 65.8537 261.783 3.95097 185.037 2.21623C184.604 2.21048 184.174 2.29081 183.773 2.45254C183.372 2.61426 183.007 2.85416 182.699 3.15829C182.391 3.46242 182.147 3.8247 181.98 4.22408C181.814 4.62345 181.728 5.05195 181.729 5.48465" fill="#B880FF"/>
<path d="M181.741 5.48465V14.4974C109.197 14.4974 50.3573 73.3171 50.3534 145.885H41.3367C40.9042 145.883 40.4757 145.968 40.0763 146.134C39.6769 146.299 39.3147 146.543 39.0107 146.851C38.7067 147.159 38.4672 147.524 38.306 147.925C38.1449 148.327 38.0654 148.756 38.0722 149.188C39.8069 225.911 101.698 287.81 178.429 289.545C178.861 289.552 179.291 289.472 179.693 289.311C180.094 289.15 180.46 288.911 180.767 288.607C181.075 288.303 181.32 287.941 181.486 287.541C181.653 287.142 181.738 286.713 181.737 286.281V277.264C254.28 277.264 313.12 218.444 313.12 145.885H322.125C322.558 145.886 322.987 145.8 323.387 145.634C323.787 145.467 324.149 145.223 324.454 144.914C324.758 144.606 324.998 144.24 325.159 143.838C325.32 143.436 325.4 143.006 325.393 142.573C323.658 65.8537 261.783 3.95097 185.037 2.21623C184.604 2.21048 184.174 2.29081 183.773 2.45254C183.372 2.61426 183.007 2.85416 182.699 3.15829C182.391 3.46242 182.147 3.8247 181.98 4.22408C181.814 4.62345 181.728 5.05195 181.729 5.48465" stroke="white" stroke-width="2" stroke-linecap="round" stroke-linejoin="round"/>
<path d="M87.7243 107.608L31.1535 142.519C28.3073 144.276 27.4239 148.007 29.1804 150.853L58.487 198.341C60.2434 201.188 63.9746 202.071 66.8208 200.315L123.392 165.403C126.238 163.647 127.121 159.915 125.365 157.069L96.0582 109.581C94.3017 106.734 90.5705 105.851 87.7243 107.608Z" fill="#B880FF"/>
<path d="M49.0298 183.114L56.1176 166.193L79.0399 165.456L87.1774 137.274L114.801 140.097L123.33 154.015L125.838 158.029L126.34 161.541L124.835 164.551L66.1361 200.674L62.1225 201.175L59.1123 199.168L49.0298 183.114Z" fill="white"/>
<path d="M87.7243 107.608L31.1535 142.519C28.3073 144.276 27.4239 148.007 29.1804 150.853L58.487 198.341C60.2434 201.188 63.9746 202.071 66.8208 200.315L123.392 165.403C126.238 163.647 127.121 159.915 125.365 157.069L96.0582 109.581C94.3017 106.734 90.5705 105.851 87.7243 107.608Z" stroke="black" stroke-width="1.2" stroke-linecap="round" stroke-linejoin="round"/>
<path d="M328.291 164.655L207.892 238.961C205.508 240.43 202.639 240.893 199.915 240.248C197.191 239.602 194.834 237.902 193.363 235.52L116.088 110.322L254.269 24.5747L331.749 150.111C333.218 152.498 333.679 155.372 333.031 158.099C332.382 160.826 330.677 163.185 328.291 164.655V164.655Z" fill="white" stroke="black" stroke-width="1.2" stroke-linecap="round" stroke-linejoin="round"/>
<path d="M270.716 88.5766L214.061 123.54C211.209 125.3 210.324 129.038 212.084 131.89L241.434 179.449C243.194 182.301 246.932 183.186 249.784 181.426L306.439 146.463C309.291 144.703 310.176 140.964 308.416 138.113L279.066 90.5536C277.306 87.7018 273.567 86.8167 270.716 88.5766Z" fill="#B880FF"/>
<path d="M235.096 166.981L244.172 148.191L272.168 145.881L278.575 118.779L304.616 121.239L317.717 138.796V148.727L249.739 187.073L235.096 166.981Z" stroke="white" stroke-width="1.2" stroke-linecap="round" stroke-linejoin="round"/>
<path d="M270.716 88.5766L214.061 123.54C211.209 125.3 210.324 129.038 212.084 131.89L241.434 179.449C243.194 182.301 246.932 183.186 249.784 181.426L306.439 146.463C309.291 144.703 310.176 140.964 308.416 138.113L279.066 90.5536C277.306 87.7018 273.567 86.8167 270.716 88.5766Z" stroke="black" stroke-width="1.2" stroke-linecap="round" stroke-linejoin="round"/>
<path d="M130.704 177.25L74.1332 212.161C71.287 213.918 70.4036 217.649 72.1601 220.495L101.467 267.984C103.223 270.83 106.954 271.713 109.801 269.957L166.371 235.045C169.218 233.289 170.101 229.558 168.345 226.711L139.038 179.223C137.281 176.377 133.55 175.493 130.704 177.25Z" fill="white" stroke="black" stroke-width="1.2" stroke-linecap="round" stroke-linejoin="round"/>
<path d="M277.002 123.995C277.002 123.995 269.72 123.652 257.722 127.339C250.874 129.444 249.443 127.24 251.919 124.685C254.395 122.13 258.901 120.159 258.901 120.159L253.196 105.209L242.031 107.247C242.031 107.247 242.031 101.861 253.295 99.9927C262.757 98.4156 276.753 99.5984 276.753 99.5984L289.886 110.042L277.002 123.995Z" fill="#B880FF" stroke="black" stroke-width="1.2" stroke-linecap="round" stroke-linejoin="round"/>
<path d="M134.142 185.811C134.768 187.533 135.567 189.187 136.527 190.747L139.638 195.81L139.417 196.373L136.799 198.041L136.172 198.065C134.401 195.594 133.291 194.191 132.845 193.854C132.006 193.265 130.823 193.36 129.296 194.138C128.702 194.43 126.082 196.058 121.435 199.023L115.872 202.571C116.261 203.305 118.006 206.103 121.108 210.965L131.973 228.005C135.009 232.765 137.166 235.751 138.443 236.963C138.95 237.451 139.656 237.521 140.56 237.172C141.026 236.985 142.708 236.053 145.607 234.376L146.214 234.412L147.495 236.418L147.275 236.986C144.454 238.611 140.154 241.267 134.374 244.954C128.453 248.731 124.229 251.509 121.703 253.289L121.159 253.257L119.858 251.215L120.082 250.651C122.827 248.733 124.381 247.6 124.747 247.253C125.448 246.582 125.682 245.914 125.448 245.246C124.891 243.574 123.095 240.358 120.059 235.598L109.189 218.558C106.035 213.62 104.221 210.866 103.748 210.299L97.8107 214.084C92.8588 217.238 90.0372 219.191 89.3459 219.942C89.0515 220.226 88.8367 220.582 88.723 220.975C88.6757 221.454 88.8755 222.226 89.3223 223.294C89.8165 224.499 90.3881 225.671 91.0334 226.802L90.8126 227.366L88.1947 229.034H87.5481L84.193 223.96C83.2005 222.48 82.0805 221.089 80.8457 219.804L81.0271 219.268C82.7881 218.427 88.8019 214.733 99.0684 208.186L115.876 197.47C125.338 191.424 131.224 187.53 133.535 185.788L134.142 185.811Z" fill="black"/>
<path d="M193.214 121.283L193.107 121.677C189.012 124.042 186.544 125.488 185.703 126.014C182.354 128.056 179.27 130.002 176.45 131.853L176.055 131.774L175.172 130.327L175.294 129.909L177.597 128.332C178.572 127.672 178.891 127.068 178.555 126.518C178.358 126.2 177.664 125.638 176.473 124.831L171.304 121.338C168.773 122.839 166.198 124.391 163.577 125.994C162.158 126.861 160.055 128.166 157.269 129.909L157.777 133.457C158.164 136.138 158.521 137.747 158.85 138.283C159.205 138.863 159.843 138.949 160.762 138.532C161.275 138.303 162.24 137.797 163.66 137.014L164.074 137.077L164.969 138.547L164.839 138.942C161.422 140.905 159.227 142.182 158.254 142.774C157.505 143.226 155.685 144.399 152.794 146.294L152.4 146.255L151.489 144.765L151.651 144.351C153.468 143.113 154.41 142.1 154.529 141.299C154.647 140.499 154.288 136.335 153.508 128.789L151.485 109.471C151.304 107.988 151.041 105.747 150.697 102.748L154.572 100.383L186.507 120.159C187.737 120.9 188.62 121.201 189.157 121.062C190.132 120.754 191.061 120.314 191.916 119.753L192.311 119.855L193.214 121.283ZM168.375 119.508L155.191 111.056L156.934 126.495C158.456 125.633 160.408 124.472 162.792 123.013C165.095 121.602 166.952 120.434 168.363 119.508H168.375Z" fill="black"/>
<path d="M91.0883 203.376C91.0883 203.376 79.9741 182.618 77.7347 175.221C75.4717 167.73 76.6111 166.816 78.0068 167.376C79.7928 168.093 83.9207 177.8 83.9207 177.8L94.0532 174.106C94.0532 174.106 87.6583 159.857 90.1106 157.941C92.9137 155.725 101.619 176.333 101.619 176.333C101.619 176.333 98.8355 161.071 100.566 160.397C103.192 159.376 105.207 166.792 106.918 171.476C109.126 177.524 114.109 188.63 114.109 188.63L110.715 207.16L91.0883 203.376Z" fill="#B880FF"/>
<path d="M78.9214 168.211C76.8634 171.961 80.1634 181.392 80.1634 181.392C80.1634 181.392 75.5348 170.53 76.4573 168.708C77.8451 165.948 78.9214 168.211 78.9214 168.211Z" fill="white"/>
<path d="M91.9754 158.962C90.5482 160.287 92.9571 170.979 92.9571 170.979C92.9571 170.979 88.9711 161.489 89.5625 159.364C90.1539 157.239 91.9754 158.962 91.9754 158.962Z" fill="white"/>
<path d="M91.0883 203.376C91.0883 203.376 79.9741 182.618 77.7347 175.221C75.4717 167.73 76.6111 166.816 78.0068 167.376C79.7928 168.093 83.9207 177.8 83.9207 177.8L94.0532 174.106C94.0532 174.106 87.6583 159.857 90.1106 157.941C92.9137 155.725 101.619 176.333 101.619 176.333C101.619 176.333 98.8355 161.071 100.566 160.397C103.192 159.376 105.207 166.792 106.918 171.476C109.126 177.524 114.109 188.63 114.109 188.63L110.715 207.16L91.0883 203.376Z" stroke="black" stroke-width="1.2" stroke-linecap="round" stroke-linejoin="round"/>
<path d="M269.625 189.214C269.625 189.214 294.771 177.508 304.758 160.299C313.124 145.885 303.598 135.744 297.953 131.668C289.101 125.273 277.002 123.995 277.002 123.995C277.002 123.995 277.983 115.929 277.983 110.322C277.947 106.709 277.535 103.11 276.753 99.5826C276.753 99.5826 301.347 99.5314 321.656 113.007C349.695 131.616 352.546 180.875 304.754 221.082C286.815 236.174 268.738 245.873 250.74 253.837C232.742 261.801 190.54 269.185 150.113 255.611C109.686 242.037 91.0923 203.376 91.0923 203.376C91.0923 203.376 97.2901 203.967 104.667 199.244C112.043 194.52 114.129 188.622 114.129 188.622C114.129 188.622 121.226 208.394 155.739 221.082C190.253 233.769 222.432 210.165 222.432 210.165L269.625 189.214Z" fill="white"/>
<path d="M147.491 254.681C147.491 254.681 198.556 267.411 243.411 248.822C288.266 230.233 314.034 207.141 329.825 184.321C344.325 163.354 340.817 142.502 340.817 142.502C340.817 142.502 354.671 187.55 293.111 230.138C231.551 272.726 202.589 263.283 186.527 264.462C170.465 265.641 147.491 254.681 147.491 254.681Z" fill="#B880FF"/>
<path d="M279.97 124.468C279.97 124.468 296.198 122.726 304.994 132.559C313.79 142.391 306.24 157.397 306.24 157.397C306.24 157.397 312.973 143.981 301 135.011C291.558 127.24 279.97 124.468 279.97 124.468Z" fill="#B880FF"/>
<path d="M269.625 189.214C269.625 189.214 294.771 177.508 304.758 160.299C313.124 145.885 303.598 135.744 297.953 131.668C289.101 125.273 277.002 123.995 277.002 123.995C277.002 123.995 277.983 115.929 277.983 110.322C277.947 106.709 277.535 103.11 276.753 99.5826C276.753 99.5826 301.347 99.5314 321.656 113.007C349.695 131.616 352.546 180.875 304.754 221.082C286.815 236.174 268.738 245.873 250.74 253.837C232.742 261.801 190.54 269.185 150.113 255.611C109.686 242.037 91.0923 203.376 91.0923 203.376C91.0923 203.376 97.2901 203.967 104.667 199.244C112.043 194.52 114.129 188.622 114.129 188.622C114.129 188.622 121.226 208.394 155.739 221.082C190.253 233.769 222.432 210.165 222.432 210.165L269.625 189.214Z" stroke="black" stroke-width="1.2" stroke-linecap="round" stroke-linejoin="round"/>
<path d="M248.954 296.922C248.954 296.922 244.68 293.243 245.489 286.15C246.151 280.323 249.77 277.626 249.77 277.626C249.77 277.626 247.038 283.497 249.987 287.921C252.936 292.344 256.922 291.907 256.922 291.907C256.922 291.907 247.184 284.81 261.937 262.988C276.69 241.165 284.662 225.509 276.99 196.295C269.318 167.08 240.69 147.899 223.28 148.195C205.869 148.491 196.723 160.882 199.38 174.457C202.037 188.031 209.41 196.886 218.856 212.526C228.303 228.167 224.463 272.134 231.248 285.413C238.033 298.692 248.954 296.922 248.954 296.922Z" fill="black"/>
<path d="M84.6701 180.875C84.6701 180.875 79.6314 168.819 79.0282 165.456C78.425 162.093 80.0612 159.356 83.7987 164.77C87.5363 170.183 89.6023 177.753 89.6023 177.753" fill="#B880FF"/>
<path d="M82.0203 162.621C82.0203 162.621 80.8809 162.227 80.8376 164.77C80.7942 167.312 82.864 176.444 82.864 176.444C82.864 176.444 78.4207 166.078 78.9214 164.127C79.4221 162.175 78.677 161.564 80.1634 161.568C81.6497 161.572 82.0203 162.621 82.0203 162.621Z" fill="white"/>
<path d="M84.6701 180.875C84.6701 180.875 79.6314 168.819 79.0282 165.456C78.425 162.093 80.0612 159.356 83.7987 164.77C87.5363 170.183 89.6023 177.753 89.6023 177.753" stroke="black" stroke-width="1.2" stroke-linecap="round" stroke-linejoin="round"/>
<path d="M89.6139 178.048C89.6139 178.048 84.4648 166.098 83.8774 162.755C83.2899 159.412 84.9892 157.235 88.7268 162.652C92.4644 168.07 94.5303 175.639 94.5303 175.639" fill="#B880FF"/>
<path d="M86.2193 160.291C84.5476 160.981 86.8225 171.291 86.8225 171.291C86.8225 171.291 83.4201 164.32 83.7631 161.568C84.1061 158.816 85.9946 159.672 86.2627 159.881C86.5308 160.09 86.2193 160.291 86.2193 160.291Z" fill="white"/>
<path d="M89.6139 178.048C89.6139 178.048 84.4648 166.098 83.8774 162.755C83.2899 159.412 84.9892 157.235 88.7268 162.652C92.4644 168.07 94.5303 175.639 94.5303 175.639" stroke="black" stroke-width="1.2" stroke-linecap="round" stroke-linejoin="round"/>
<path d="M87.1772 188.327C87.1772 188.327 94.1123 188.402 102.376 181.392Z" fill="#B880FF"/>
<path d="M87.1772 188.327C87.1772 188.327 94.1123 188.402 102.376 181.392" stroke="black" stroke-width="1.2" stroke-linecap="round" stroke-linejoin="round"/>
<path d="M256.788 103.486C256.788 103.486 238.12 105.627 238.12 109.534C238.12 113.646 254.943 110.937 254.943 110.937" fill="#B880FF"/>
<path d="M246.044 105.37C246.044 105.37 242.942 106.317 241.049 108.946C240.332 109.94 240.754 111.489 240.754 111.489C240.754 111.489 237.051 111.344 238.12 109.203C239.188 107.062 246.044 105.37 246.044 105.37Z" fill="white"/>
<path d="M256.788 103.486C256.788 103.486 238.12 105.627 238.12 109.534C238.12 113.646 254.943 110.937 254.943 110.937" stroke="black" stroke-width="1.2" stroke-linecap="round" stroke-linejoin="round"/>
<path d="M257.892 108.651C257.892 108.651 239.228 110.791 239.228 114.699C239.228 120.218 258.054 115.732 258.054 115.732" fill="#B880FF"/>
<path d="M247.771 110.385C247.771 110.385 244.531 111.422 242.516 113.677C240.501 115.933 241.25 116.954 241.25 116.954C241.25 116.954 237.615 115.708 239.673 113.677C241.731 111.647 247.771 110.385 247.771 110.385Z" fill="white"/>
<path d="M257.892 108.651C257.892 108.651 239.228 110.791 239.228 114.699C239.228 120.218 258.054 115.732 258.054 115.732" stroke="black" stroke-width="1.2" stroke-linecap="round" stroke-linejoin="round"/>
<path d="M258.416 114.837C258.416 114.837 250.081 115.365 245.011 116.914C239.941 118.464 240.954 121.338 242.795 121.709C244.637 122.079 264.338 120.896 264.338 120.896" fill="#B880FF"/>
<path d="M249.77 115.842C249.77 115.842 243.068 119.272 243.162 121.046C243.257 122.82 240.008 121.882 241.258 119.568C242.508 117.253 249.77 115.842 249.77 115.842Z" fill="white"/>
<path d="M258.416 114.837C258.416 114.837 250.081 115.365 245.011 116.914C239.941 118.464 240.954 121.338 242.795 121.709C244.637 122.079 264.338 120.896 264.338 120.896" stroke="black" stroke-width="1.2" stroke-linecap="round" stroke-linejoin="round"/>
<path d="M263.542 99.2239C263.542 99.2239 264.33 110.803 265.119 114.837" stroke="black" stroke-width="1.2" stroke-linecap="round" stroke-linejoin="round"/>
<path d="M254.257 24.5747L116.088 110.322L105.049 92.4229C103.577 90.0376 103.113 87.1655 103.758 84.4381C104.404 81.7106 106.106 79.3512 108.491 77.8786L228.874 3.57242C231.261 2.10183 234.134 1.63872 236.861 2.28483C239.589 2.93093 241.949 4.6334 243.422 7.01825L254.257 24.5747Z" fill="#B880FF" stroke="black" stroke-width="1.2" stroke-linecap="round" stroke-linejoin="round"/>
<path d="M115.174 205.962C116.988 205.962 118.458 204.492 118.458 202.678C118.458 200.864 116.988 199.394 115.174 199.394C113.36 199.394 111.89 200.864 111.89 202.678C111.89 204.492 113.36 205.962 115.174 205.962Z" fill="black"/>
<path d="M285.36 121.582C286.908 121.582 288.163 120.327 288.163 118.779C288.163 117.231 286.908 115.976 285.36 115.976C283.812 115.976 282.557 117.231 282.557 118.779C282.557 120.327 283.812 121.582 285.36 121.582Z" fill="black"/>
<path d="M48.7409 158.962C52.8148 158.962 56.1175 155.659 56.1175 151.585C56.1175 147.511 52.8148 144.209 48.7409 144.209C44.6669 144.209 41.3643 147.511 41.3643 151.585C41.3643 155.659 44.6669 158.962 48.7409 158.962Z" fill="white"/>
<path d="M234.181 142.506C239.374 142.506 243.584 138.296 243.584 133.103C243.584 127.909 239.374 123.7 234.181 123.7C228.988 123.7 224.778 127.909 224.778 133.103C224.778 138.296 228.988 142.506 234.181 142.506Z" fill="white"/>
<path d="M232.155 25.3552C235.09 25.3552 237.469 22.9758 237.469 20.0406C237.469 17.1054 235.09 14.726 232.155 14.726C229.22 14.726 226.84 17.1054 226.84 20.0406C226.84 22.9758 229.22 25.3552 232.155 25.3552Z" fill="white" stroke="black" stroke-width="1.2" stroke-linecap="round" stroke-linejoin="round"/>
<path d="M219.014 33.2208C221.949 33.2208 224.328 30.8414 224.328 27.9062C224.328 24.971 221.949 22.5916 219.014 22.5916C216.079 22.5916 213.699 24.971 213.699 27.9062C213.699 30.8414 216.079 33.2208 219.014 33.2208Z" fill="black" stroke="black" stroke-width="1.2" stroke-linecap="round" stroke-linejoin="round"/>
<path d="M205.862 41.5279C208.797 41.5279 211.176 39.1485 211.176 36.2133C211.176 33.2781 208.797 30.8987 205.862 30.8987C202.926 30.8987 200.547 33.2781 200.547 36.2133C200.547 39.1485 202.926 41.5279 205.862 41.5279Z" fill="black" stroke="black" stroke-width="1.2" stroke-linecap="round" stroke-linejoin="round"/>
<path d="M253.055 45.9836L185.317 88.1958L190.088 95.8516L257.825 53.6394L253.055 45.9836Z" fill="black" stroke="black" stroke-width="1.2" stroke-linecap="round" stroke-linejoin="round"/>
<path d="M194.408 101.889L251.84 66.1376" stroke="black" stroke-width="1.2" stroke-linecap="round" stroke-linejoin="round"/>
<path d="M197.168 107.082L255.026 71.0304" stroke="black" stroke-width="1.2" stroke-linecap="round" stroke-linejoin="round"/>
<path d="M200.279 111.943L240.387 87.2581" stroke="black" stroke-width="1.2" stroke-linecap="round" stroke-linejoin="round"/>
<path d="M160.703 158.887L188.597 142.502" stroke="black" stroke-width="1.2" stroke-linecap="round" stroke-linejoin="round"/>
<path d="M163.613 164.036L191.506 147.655" stroke="black" stroke-width="1.2" stroke-linecap="round" stroke-linejoin="round"/>
<path d="M166.416 169.02L206.638 144.568" stroke="black" stroke-width="1.2" stroke-linecap="round" stroke-linejoin="round"/>
<path d="M169.676 173.763L197.566 157.377" stroke="black" stroke-width="1.2" stroke-linecap="round" stroke-linejoin="round"/>
<path d="M172.586 178.912L200.48 162.53" stroke="black" stroke-width="1.2" stroke-linecap="round" stroke-linejoin="round"/>
<path d="M176.351 184.321L204.245 167.935" stroke="black" stroke-width="1.2" stroke-linecap="round" stroke-linejoin="round"/>
<path d="M179.261 189.47L207.155 173.089" stroke="black" stroke-width="1.2" stroke-linecap="round" stroke-linejoin="round"/>
<path d="M297.862 158.852L265.099 179.073" stroke="black" stroke-width="1.2" stroke-linecap="round" stroke-linejoin="round"/>
<path d="M290.616 170.25L263.364 187.065" stroke="black" stroke-width="1.2" stroke-linecap="round" stroke-linejoin="round"/>
</svg>
