<?xml version="1.0" encoding="UTF-8" standalone="no"?>
<!-- Created with Inkscape (http://www.inkscape.org/) -->

<svg
   width="512px"
   height="512px"
   viewBox="0 0 512 512"
   version="1.1"
   id="genzstaking-logo"
   xml:space="preserve"
   sodipodi:docname="dashboard-logo.svg"
   inkscape:export-filename="logo.png"
   inkscape:export-xdpi="96"
   inkscape:export-ydpi="96"
   inkscape:version="1.2.1 (9c6d41e410, 2022-07-14)"
   xmlns:inkscape="http://www.inkscape.org/namespaces/inkscape"
   xmlns:sodipodi="http://sodipodi.sourceforge.net/DTD/sodipodi-0.dtd"
   xmlns="http://www.w3.org/2000/svg"
   xmlns:svg="http://www.w3.org/2000/svg"><sodipodi:namedview
     id="namedview243"
     pagecolor="#ffffff"
     bordercolor="#666666"
     borderopacity="1.0"
     inkscape:showpageshadow="2"
     inkscape:pageopacity="0.0"
     inkscape:pagecheckerboard="0"
     inkscape:deskcolor="#d1d1d1"
     showgrid="false"
     inkscape:zoom="0.90509668"
     inkscape:cx="388.3563"
     inkscape:cy="336.98058"
     inkscape:window-width="1920"
     inkscape:window-height="1024"
     inkscape:window-x="0"
     inkscape:window-y="27"
     inkscape:window-maximized="1"
     inkscape:current-layer="genzstaking-logo" /><defs
     id="defs2"><style
       type="text/css"
       id="style552">
   <![CDATA[
    .fil0 {fill:none}
    .fil2 {fill:black;fill-rule:nonzero}
    .fil4 {fill:#ACD4F7;fill-rule:nonzero}
    .fil3 {fill:#DEDEDE;fill-rule:nonzero}
    .fil1 {fill:white;fill-rule:nonzero}
   ]]>
  </style><style
       type="text/css"
       id="style669">
   <![CDATA[
    .fil0 {fill:none}
    .fil2 {fill:black;fill-rule:nonzero}
    .fil3 {fill:#ACD4F7;fill-rule:nonzero}
    .fil4 {fill:#DEDEDE;fill-rule:nonzero}
    .fil1 {fill:white;fill-rule:nonzero}
   ]]>
  </style><style
       type="text/css"
       id="style807">
   <![CDATA[
    .fil0 {fill:none}
    .fil2 {fill:black;fill-rule:nonzero}
    .fil4 {fill:#ACD4F7;fill-rule:nonzero}
    .fil3 {fill:#DEDEDE;fill-rule:nonzero}
    .fil1 {fill:white;fill-rule:nonzero}
   ]]>
  </style></defs><path
     style="fill:#fb0000;fill-opacity:1;stroke:none;stroke-width:5.03146px;stroke-linecap:butt;stroke-linejoin:miter;stroke-opacity:1"
     d="m 496.74028,500.07766 c 0,0 -159.10898,-47.37273 -344.34431,-84.33513 -185.235344,-36.96241 -62.103224,-68.78666 -12.15988,-78.06529 31.26869,-5.80921 111.86617,-20.70989 111.86617,-20.70989 l 160.25839,42.81516 c 71.99245,20.43742 81.73899,50.45759 83.95393,81.63727 z"
     id="path263" /><path
     style="fill:#fb0000;fill-opacity:1;stroke:none;stroke-width:5.03146px;stroke-linecap:butt;stroke-linejoin:miter;stroke-opacity:1"
     d="m 13.565764,14.354701 c 0,0 159.108976,47.372725 344.344316,84.335131 185.23534,36.962408 65.71626,68.844748 12.15987,78.065288 -53.76423,9.25632 -111.86616,20.70989 -111.86616,20.70989 L 97.945396,154.64984 C 25.952949,134.21243 16.20641,104.19226 13.991463,73.012574 Z"
     id="path263-3" /><g
     id="Layer_x0020_1"
     style="clip-rule:evenodd;fill-rule:evenodd;image-rendering:optimizeQuality;shape-rendering:geometricPrecision;text-rendering:geometricPrecision"
     transform="matrix(0.01197057,0.00518831,-0.00518831,0.01197057,270.49456,-32.379057)"><rect
       class="fil0"
       height="16666.66"
       width="16666.66"
       x="0"
       y="0"
       id="rect117"
       style="fill:none" /><g
       id="_1316253524592"><polygon
         class="fil1"
         points="1169.33,8970.82 2498.11,8970.82 2498.11,3491.03 1169.33,3491.03 "
         id="polygon119"
         style="fill:#ffffff;fill-rule:nonzero" /><path
         class="fil2"
         d="M 1264.22,8875.89 H 2403.18 V 3585.96 H 1264.22 Z m 1233.86,189.83 H 1169.32 c -52.35,0 -94.81,-42.55 -94.81,-94.9 V 3491.07 c 0,-52.35 42.46,-94.9 94.81,-94.9 h 1328.76 c 52.35,0 94.81,42.55 94.81,94.9 v 5479.75 c 0,52.35 -42.46,94.9 -94.81,94.9 z"
         id="path121"
         style="fill:#000000;fill-rule:nonzero" /><polygon
         class="fil1"
         points="4016.55,7152.48 5344.72,7152.48 5344.72,1672.76 4016.55,1672.76 "
         id="polygon123"
         style="fill:#ffffff;fill-rule:nonzero" /><path
         class="fil2"
         d="M 4111.44,7057.46 H 5250.16 V 1767.66 H 4111.44 Z m 1233.3,189.83 H 4016.42 c -52.35,0 -94.9,-42.45 -94.9,-94.8 V 1672.77 c 0,-52.38 42.55,-94.9 94.9,-94.9 h 1328.32 c 52.35,0 94.9,42.52 94.9,94.9 v 5479.72 c 0,52.35 -42.55,94.8 -94.9,94.8 z"
         id="path125"
         style="fill:#000000;fill-rule:nonzero" /><polygon
         class="fil1"
         points="6911.2,8184.86 8239.84,8184.86 8239.84,2705.2 6911.2,2705.2 "
         id="polygon127"
         style="fill:#ffffff;fill-rule:nonzero" /><path
         class="fil2"
         d="M 7006.1,8089.96 H 8144.94 V 2800.13 H 7006.1 Z m 1233.74,189.8 H 6911.21 c -52.38,0 -94.9,-42.55 -94.9,-94.9 V 2705.23 c 0,-52.47 42.52,-94.9 94.9,-94.9 h 1328.63 c 52.35,0 94.9,42.43 94.9,94.9 v 5479.63 c 0,52.35 -42.55,94.9 -94.9,94.9 z"
         id="path129"
         style="fill:#000000;fill-rule:nonzero" /><path
         class="fil1"
         d="m 3563.08,10460.03 c 2580.15,28.69 5159.99,57.36 7740.92,86.06 707.98,7.88 1424.65,14.84 2112.96,-150.53 688.35,-165.28 1357.02,-523.5 1754.09,-1109.83 397.06,-586.3 462.52,-1422.79 40.35,-1991.31 -339.24,-457.82 -941.37,-676.87 -1509.71,-639.8 -569.42,36.98 -787.6,176.41 -1233.74,531.91 101.45,-324.21 171.24,-499.72 143.97,-888.16 -27.28,-388.56 -221.43,-750.62 -475.61,-1045.05 C 11467.63,4482.01 10337.52,4146.02 9356.84,4427.25 8376.19,4708.45 7595.15,5592.16 7436.99,6600.29 7177.34,5600.32 5919.61,5037.46 4963.49,5427.75 4006.93,5817.95 3493.48,7001.19 3767.82,7997.23 3542.68,7565.91 2995.96,7362.6 2518.5,7456.63 c -477.37,94 -877.92,439.49 -1131.76,854.55 -139.21,227.68 -242.61,491.53 -211.85,756.62 50.62,437.42 442.98,752.44 835.47,951.95 622.54,316.48 1324.83,437.79 1552.72,440.29 z"
         id="path131"
         style="fill:#ffffff;fill-rule:nonzero" /><path
         class="fil2"
         d="m 3564.04,10365.1 7741.07,85.99 c 691.59,7.85 1408.26,15.8 2088.96,-147.83 749.39,-179.75 1352.63,-560.02 1698.43,-1070.75 398.14,-587.85 415.61,-1379.16 42.55,-1881.61 -303.25,-408.63 -849.79,-639.02 -1426.81,-601.61 -539.98,35.03 -741.78,160.91 -1181.39,511.41 -31.63,26.07 -78.54,27.7 -112.37,4.15 -34.91,-23.56 -49.07,-66.89 -37.07,-106.68 l 25.07,-78.54 c 86.18,-272.17 138.53,-436.58 114.54,-774.62 -29.44,-419.88 -262.9,-769.91 -452.69,-989.52 -640.32,-738.59 -1742.09,-1066.39 -2681.29,-796.97 -939.21,269.23 -1700.62,1131.2 -1852.26,2096.51 -6.52,44.41 -43.63,77.89 -88.34,80.06 -44.71,2.84 -86.18,-27.28 -97.09,-70.91 -110.17,-426.19 -428.7,-798.18 -872.67,-1020.69 -474.52,-238.03 -1025.39,-270.87 -1473.41,-87.94 -885.1,361.2 -1407.3,1486.06 -1139.92,2456.37 12.77,46.79 -11.66,95.76 -56.71,113.55 -45.06,18 -96.54,-1.3 -119.02,-44.41 -193.5,-370.87 -686.8,-582.28 -1146.69,-491.41 -414.31,81.57 -803.96,377.21 -1069.24,810.92 -155.78,254.82 -222.67,489.15 -198.54,696.17 48.64,421.3 453.34,710.26 784.32,878.48 587.07,298.45 1273.66,427.27 1510.58,429.87 z m 8189.4,279.19 c -151.64,0 -301.08,-1.67 -450.52,-3.28 l -7740.95,-86.09 c -226.87,-2.5 -943.35,-119.54 -1594.59,-450.53 -372.3,-189.36 -828.48,-520.87 -886.86,-1025.82 -29,-250.25 46.81,-525.02 225.26,-816.92 292.89,-479 728.26,-806.37 1194.37,-898.21 405.78,-80.09 822.48,35 1107.08,282.53 -92.27,-967.38 447.68,-1950.1 1320.38,-2306.16 497.84,-203.34 1107.64,-168.21 1630.15,94.03 383.95,192.21 682.87,487.04 855.19,834.17 260.73,-913.05 998.15,-1668.55 1917.72,-1932.01 1023.19,-293.32 2179.5,50.31 2876.53,855.23 209.46,241.41 465.8,628.23 498.52,1100.43 19.63,276.44 -7.64,450.87 -58.91,637.51 324,-236.83 567.26,-337.94 1048.3,-369.27 642.52,-41.99 1251.21,218.06 1592.65,677.96 419.98,564.96 403.62,1448.55 -38.19,2101.11 -371.98,549.97 -1015.59,957.92 -1810.79,1148.83 -555.22,133.33 -1124.65,156.46 -1685.35,156.46 z"
         id="path133"
         style="fill:#000000;fill-rule:nonzero" /><path
         class="fil3"
         d="m 7697.69,10605.21 c -14.19,0 -27.28,-1.61 -39.27,-4.83 l 174.52,1.98 c -43.63,1.02 -87.26,1.89 -130.89,2.85 -1.08,0 -2.17,0 -4.36,0 z"
         id="path135"
         style="fill:#dedede;fill-rule:nonzero" /><path
         class="fil3"
         d="m 11752.34,10454.47 c -149.44,0 -298.89,-1.64 -447.22,-3.37 l -3768.87,-41.81 c 0,-3.99 1.08,-7.85 2.16,-11.75 -109.06,1.73 -218.15,4.67 -326.16,8.16 l -3038.41,-33.83 c -95.46,-7.3 -190.91,-15.24 -286.46,-20.41 -228.98,-4.48 -458.94,-2.04 -685.72,-39.24 -129.16,-25.45 -258.75,-54.54 -388.87,-85.31 -243.04,-68.96 -510.2,-165.03 -759.34,-291.68 -96.66,-49.14 -199.54,-108.57 -298.02,-178.48 9.93,-62.8 44.71,-121.18 106.46,-154.98 34.35,-22.08 71.12,-29.78 108.66,-29.78 50.15,0 101.76,13.91 150.74,26.37 146.81,34.05 296.04,57.27 443.2,89.98 435.25,89.7 649.94,146.5 808.87,156.43 332.93,16.7 666.17,15.19 998.67,43.07 513.67,5.91 1027.24,0.46 1541.04,19.63 153.8,10.27 307.61,13.85 461.41,13.85 350.15,0 700.31,-18.86 1051.58,-22.02 161.44,-1.55 322.88,-2.2 485.41,-2.2 635.96,0 1271.92,10.52 1909,22.26 423.22,5.78 848.67,-7.85 1270.81,28.91 69.82,4.79 139.64,6.65 209.43,6.65 221.46,0 441.81,-18.65 663.24,-19.51 628.32,-15.06 1414.84,3.81 1866.45,-92.64 181.07,-41.65 367.59,-68.18 542.15,-133.49 l 9.8,-4.61 c 43.63,-30.86 91.65,-45.24 136.36,-45.24 50.19,0 97.09,18.18 128.73,51.58 -333.8,270.28 -761.41,474.33 -1253.37,592.21 -534.54,128.6 -1091.96,151.2 -1641.74,151.2 z"
         id="path137"
         style="fill:#dedede;fill-rule:nonzero" /><path
         class="fil3"
         d="m 14476.18,10065.04 c 46.91,-29.65 93.82,-60.42 139.64,-92.18 -38.19,33.8 -85.09,64.47 -139.64,92.18 z"
         id="path139"
         style="fill:#dedede;fill-rule:nonzero" /><path
         class="fil2"
         d="m 7832.94,10602.36 -174.52,-1.98 c -86.18,-21.24 -132,-110.36 -122.17,-191.09 l 3768.87,41.81 c 148.33,1.73 297.78,3.37 447.22,3.37 549.78,0 1107.2,-22.6 1641.74,-151.2 491.96,-117.87 919.57,-321.93 1253.37,-592.21 37.07,37.72 55.63,94.9 41.43,167 -16.35,34.05 -41.43,65.68 -73.07,94.81 -45.82,31.76 -92.73,62.52 -139.64,92.18 -201.79,101.89 -500.68,164.69 -770.13,203.22 -29.47,54.54 -85.09,95.36 -149.44,108.72 -96.01,37.2 -195.27,66.7 -296.72,87.2 -356.68,71.68 -724.31,66.3 -1087.57,87.48 -239.98,18.31 -479.96,24.68 -719.95,24.68 -382.87,0 -765.77,-16.14 -1149.75,-25.51 -822.48,14.69 -1646.08,33.98 -2469.67,51.55 z m -1461.72,-174 c -578.14,-20.16 -1155.97,-38.03 -1734.42,-38.03 -25.67,0 -51.39,0 -76.93,0.06 -1.73,0 -3.37,0 -5.01,0 -127.39,0 -254.17,-8.81 -381.01,-18.52 l 3038.41,33.83 c -280.33,8.81 -560.67,20.72 -841.04,22.67 z M 2812.8,10226.91 c -295.64,-69.91 -593.76,-148.24 -896.69,-210.33 -120.65,-29.01 -178.02,-150.96 -160.67,-259.83 98.49,69.91 201.36,129.34 298.02,178.48 249.13,126.65 516.3,222.72 759.34,291.68 z"
         id="path141"
         style="fill:#000000;fill-rule:nonzero" /><polygon
         class="fil4"
         points="9293.58,12696.15 8334.73,12696.15 10038.63,14993.9 11743.62,12696.15 10783.69,12696.15 10846.95,6325.86 9356.84,6325.86 "
         id="polygon143"
         style="fill:#acd4f7;fill-rule:nonzero" /><path
         class="fil2"
         d="m 8523.45,12791.05 1515.18,2043.57 1516.27,-2043.57 h -771.21 c -25.11,0 -49.1,-10.17 -67.63,-28.04 -17.47,-18.12 -27.27,-42.39 -27.27,-67.72 l 62.15,-6274.53 H 9451.77 l -63.26,6276.36 c 0,52.04 -42.55,93.94 -94.93,93.94 h -770.13 z m 1515.18,2297.75 c -29.44,0 -57.82,-14.19 -76.34,-38.41 l -1703.9,-2297.62 c -21.83,-28.82 -25.11,-67.19 -8.72,-99.29 16.35,-31.94 49.07,-52.23 85.06,-52.23 h 865.03 l 62.18,-6276.38 c 1.11,-52.04 43.63,-93.94 94.9,-93.94 h 1490.11 c 25.07,0 50.19,10.14 67.62,28.05 17.47,18.12 27.28,42.43 27.28,67.75 l -62.19,6274.53 h 863.95 c 35.99,0 68.74,20.28 84.01,52.23 16.36,32.09 13.08,70.47 -7.64,99.29 L 10115,15050.4 c -17.47,24.21 -45.83,38.41 -76.38,38.41 z"
         id="path145"
         style="fill:#000000;fill-rule:nonzero" /><path
         class="fil2"
         d="m 5158.85,5023.6 -22.67,-9.59 c -317.87,-328.35 -631.6,-669.7 -932.56,-1014.5 -11.47,-13.2 -10.14,-33.15 3.03,-44.71 13.11,-11.35 33.18,-10.14 44.62,3.06 300.22,344.03 613.17,684.6 930.28,1012.18 12.21,12.56 11.78,32.62 -0.74,44.71 l -21.95,8.84 z"
         id="path147"
         style="fill:#000000;fill-rule:nonzero" /><path
         class="fil2"
         d="m 5142.4,4505.79 -23.13,-9.93 c -308.5,-327.8 -615.03,-665.99 -911.2,-1005.32 -11.44,-13.2 -10.02,-33.18 3.06,-44.74 13.08,-11.35 33.18,-10.14 44.74,3.06 295.61,338.81 601.58,676.53 909.53,1003.59 12,12.74 11.35,32.71 -1.42,44.71 l -21.59,8.63 z"
         id="path149"
         style="fill:#000000;fill-rule:nonzero" /><path
         class="fil2"
         d="m 5138.9,3930.8 -21.83,-8.85 c -307.73,-295.17 -605.5,-607.82 -885.31,-929.28 -11.47,-13.2 -10.05,-33.27 3.06,-44.62 13.2,-11.57 33.15,-10.14 44.62,3.06 278.57,320.04 575.08,631.36 881.39,925.24 12.65,12 13.08,32.06 0.86,44.62 z"
         id="path151"
         style="fill:#000000;fill-rule:nonzero" /><path
         class="fil2"
         d="m 5121.99,3417.44 -23.78,-10.8 c -280.77,-320.72 -576.19,-636.09 -877.8,-937.6 -12.43,-12.31 -12.43,-32.28 0,-44.71 12.34,-12.34 32.28,-12.34 44.71,0 302.72,302.5 598.89,618.95 880.65,940.63 11.47,13.2 10.14,33.18 -2.94,44.62 l -20.84,7.85 z"
         id="path153"
         style="fill:#000000;fill-rule:nonzero" /><path
         class="fil2"
         d="m 5107.27,2830.33 -23.04,-9.93 c -269.76,-286.55 -553.93,-567.01 -844.84,-833.61 -12.86,-11.78 -13.85,-31.73 -1.98,-44.62 11.78,-12.99 31.85,-13.73 44.74,-1.95 292.02,267.57 577.37,549.14 848.12,836.77 12,12.77 11.35,32.84 -1.3,44.84 l -21.71,8.5 z"
         id="path155"
         style="fill:#000000;fill-rule:nonzero" /><path
         class="fil2"
         d="m 5080.22,2315.37 -23.47,-10.36 c -107.11,-118.37 -220.44,-234.45 -336.83,-344.93 -12.68,-12.12 -13.2,-32.07 -1.11,-44.74 12,-12.74 32.09,-13.08 44.74,-1.08 117.47,111.59 231.91,228.76 340.23,348.21 11.66,12.98 10.7,33.06 -2.29,44.83 l -21.28,8.07 z"
         id="path157"
         style="fill:#000000;fill-rule:nonzero" /><path
         class="fil2"
         d="m 4771.62,5197.25 -23.25,-10.15 c -171.03,-185.22 -340.76,-375.14 -504.39,-564.72 -11.44,-13.2 -10.05,-33.18 3.28,-44.62 13.2,-11.44 33.15,-9.93 44.5,3.28 163.3,188.93 332.5,378.42 503.09,563.2 11.91,12.74 11.04,32.71 -1.73,44.62 l -21.49,8.38 z"
         id="path159"
         style="fill:#000000;fill-rule:nonzero" /><path
         class="fil2"
         d="m 4480.25,5451.31 -24.21,-11.22 -233.98,-277.18 c -11.22,-13.3 -9.49,-33.27 3.8,-44.5 13.33,-11.26 33.4,-9.62 44.62,3.8 l 233.89,277.09 c 11.35,13.42 9.58,33.27 -3.71,44.59 z"
         id="path161"
         style="fill:#000000;fill-rule:nonzero" /><path
         class="fil3"
         d="m 1264.22,8332.57 v -513.91 c 33.92,-46.48 67.19,-90.63 92.73,-131.67 178.79,-260.61 447.78,-440.48 744.28,-542.15 50.83,-15.71 104.48,-33.37 158.07,-33.37 18.86,0 37.72,2.17 56.5,7.52 33.61,8.84 63.05,25.76 87.38,47.99 v 219.05 c -429.25,115.61 -824.89,430.02 -1097.4,875.63 -14.5,23.78 -28.36,47.43 -41.56,70.9 z"
         id="path163"
         style="fill:#dedede;fill-rule:nonzero" /><path
         class="fil2"
         d="m 1253.43,8352.21 c -43.97,-12.68 -85.53,-42.55 -118.15,-93.51 -73.62,-149.23 29.9,-304.11 128.94,-440.04 v 513.91 c -3.59,6.53 -7.2,13.08 -10.79,19.64 z m 1149.75,-966.17 v -219.05 c 54.85,50.41 83.12,128.17 71.21,201.83 -23.87,5.1 -47.65,10.88 -71.21,17.22 z"
         id="path165"
         style="fill:#000000;fill-rule:nonzero" /><path
         class="fil2"
         d="m 1304.82,8359.38 c -17.25,0 -34.48,-2.38 -51.39,-7.17 3.59,-6.56 7.2,-13.11 10.79,-19.64 13.2,-23.47 27.06,-47.12 41.56,-70.9 272.51,-445.61 668.15,-760.02 1097.4,-875.63 23.56,-6.34 47.34,-12.12 71.21,-17.22 -4.14,25.29 -12.96,50.06 -27.15,73.19 -28.69,48.86 -76.59,85.96 -131.44,101.02 -21.83,4.89 -49.85,14.5 -66.33,20.28 -214.01,97.96 -342.86,161.32 -431.2,254.7 -164.07,174.77 -182.28,186.21 -285.04,351.92 -29.47,112.24 -128.94,189.46 -228.42,189.46 z"
         id="path167"
         style="fill:#000000;fill-rule:nonzero" /><path
         class="fil3"
         d="m 3921.52,5970.23 c -29.13,-40.14 -43.75,-91.84 -33.48,-151.86 4.79,-33.49 17,-64.35 33.48,-93.48 v 245.33 z"
         id="path169"
         style="fill:#dedede;fill-rule:nonzero" /><path
         class="fil3"
         d="m 4111.44,5959.1 v -477.46 c 67.29,-69.91 143.76,-129.68 225.26,-183.06 l 119.33,141.5 24.21,11.22 20.41,-7.42 c 13.3,-11.32 15.06,-31.17 3.71,-44.59 l -113.67,-134.72 c 92.95,-56.52 190.79,-105.94 287.88,-153.5 23.22,25.42 46.44,50.74 69.79,76.04 l 23.25,10.15 21.49,-8.38 c 12.77,-11.91 13.64,-31.88 1.73,-44.62 -18.99,-20.63 -38.07,-41.34 -57.05,-62.09 0.87,-0.43 1.85,-0.87 2.85,-1.3 109.09,-37.85 219.48,-114.87 335.74,-128.73 19.88,20.75 39.83,41.34 59.8,61.87 l 22.67,9.59 21.95,-8.84 c 12.52,-12.09 12.96,-32.16 0.74,-44.71 -4.24,-4.48 -8.5,-8.84 -12.87,-13.33 32.93,10.17 60.11,27.06 81.48,48.33 v 238.9 c -111.04,21.83 -219.26,53.68 -322.54,95.89 -322.57,131.54 -599.66,348.85 -816.17,619.26 z"
         id="path171"
         style="fill:#dedede;fill-rule:nonzero" /><path
         class="fil2"
         d="m 4040.98,6051.83 c -47.46,-13.63 -90.54,-41.9 -119.45,-81.6 V 5724.9 c 38.28,-67.62 99.26,-126.44 141.69,-189.48 15.49,-18.65 31.54,-36.55 48.24,-53.78 v 477.46 c -24.33,30.33 -47.68,61.19 -70.47,92.73 z m 1209.18,-807.89 v -238.9 c 59.68,59.89 74.95,154.48 43.32,230.95 -14.19,2.5 -28.69,5.1 -43.32,7.94 z"
         id="path173"
         style="fill:#000000;fill-rule:nonzero" /><path
         class="fil2"
         d="m 4105.88,6061.11 c -21.92,0 -43.85,-3.19 -64.9,-9.28 22.79,-31.54 46.13,-62.4 70.47,-92.73 216.51,-270.41 493.6,-487.72 816.17,-619.26 103.28,-42.21 211.5,-74.06 322.54,-95.89 14.63,-2.84 29.13,-5.44 43.32,-7.94 -20.96,53 -64.38,97.4 -129.71,115.4 -437.85,197 -750.71,383 -877.24,604.64 -41.68,73.1 -111.17,105.07 -180.65,105.07 z"
         id="path175"
         style="fill:#000000;fill-rule:nonzero" /><path
         class="fil2"
         d="m 5158.85,5023.6 -22.67,-9.59 c -19.98,-20.53 -39.92,-41.12 -59.8,-61.87 11.78,-1.42 23.69,-2.16 35.59,-2.16 16.14,0 32.37,1.42 48.73,4.45 2.75,0.68 5.35,1.42 7.98,2.29 4.36,4.48 8.63,8.84 12.87,13.33 12.21,12.56 11.78,32.62 -0.74,44.71 l -21.95,8.84 z"
         id="path177"
         style="fill:#000000;fill-rule:nonzero" /><path
         class="fil2"
         d="m 4771.62,5197.25 -23.25,-10.15 c -23.35,-25.29 -46.57,-50.62 -69.79,-76.04 19.72,-9.71 39.48,-19.3 59.21,-28.91 18.98,20.75 38.06,41.46 57.05,62.09 11.91,12.74 11.04,32.71 -1.73,44.62 l -21.49,8.38 z"
         id="path179"
         style="fill:#000000;fill-rule:nonzero" /><path
         class="fil2"
         d="m 4480.25,5451.31 -24.21,-11.22 -119.33,-141.5 c 17.78,-11.66 35.78,-22.88 53.99,-34.01 l 113.67,134.72 c 11.35,13.42 9.58,33.27 -3.71,44.59 z"
         id="path181"
         style="fill:#000000;fill-rule:nonzero" /><path
         class="fil3"
         d="m 8334.73,4866.3 v -24.77 c 3.28,5.35 6.56,10.8 9.83,16.48 -3.28,2.72 -6.56,5.44 -9.83,8.29 z"
         id="path183"
         style="fill:#dedede;fill-rule:nonzero" /><path
         class="fil3"
         d="M 7412.96,6268.03 C 7315.9,6071.34 7177.34,5891.47 7006.1,5737.45 v -333.37 c 7.64,-0.86 15.28,-1.3 23.99,-1.3 13.08,0 26.19,1.08 39.27,3.37 82.9,5.35 146.17,72.54 209.43,119.76 21.83,19.33 42.55,40.17 62.18,61.66 78.54,-153.15 163.64,-280.46 268.34,-394.12 146.2,-166.79 303.28,-348.86 513.79,-432.87 7.64,-2.29 14.19,-3.93 21.83,-5.23 v 283.4 c -341.44,339.27 -598.89,763.82 -731.98,1229.28 z"
         id="path185"
         style="fill:#dedede;fill-rule:nonzero" /><path
         class="fil2"
         d="m 7006.1,5737.45 c -57.82,-51.82 -118.89,-100.68 -184.35,-146.29 15.28,-92.06 83.98,-175.42 184.35,-187.08 z m 1138.84,-698.7 v -283.4 c 8.72,-1.52 18.55,-2.29 28.35,-2.29 63.26,0 125.45,35.99 161.44,88.46 v 24.77 c -66.54,54.64 -129.81,112.24 -189.8,172.45 z"
         id="path187"
         style="fill:#000000;fill-rule:nonzero" /><path
         class="fil2"
         d="m 7352.98,6279.69 c -53.43,0 -107.98,-19.73 -147.25,-61.72 -27.28,-20.53 -60.02,-101.79 -64.38,-118.8 -10.88,-22.48 -21.8,-44.96 -32.71,-67.63 -80.74,-149.01 -31.63,-76.04 -124.37,-174.33 l -9.8,-8.84 c -16.36,-10.57 -31.63,-20.59 -47.99,-30.65 -89.45,-51.05 -118.92,-142.45 -104.73,-226.56 65.46,45.61 126.53,94.46 184.35,146.29 171.24,154.02 309.8,333.89 406.86,530.58 133.09,-465.46 390.54,-890.02 731.98,-1229.28 59.99,-60.2 123.25,-117.81 189.8,-172.45 3.28,-2.85 6.56,-5.57 9.83,-8.29 18.52,33.92 26.16,73.19 18.52,113.45 -1.08,52.78 -37.07,96.63 -75.26,130.77 -121.09,98.08 -44.71,26.84 -148.36,119.45 -248.7,260.3 -347.96,350.19 -479.96,623.87 l -9.8,22.91 -2.19,4.24 c -41.44,98.17 -57.83,205.07 -105.81,300.52 -38.16,68.83 -113.45,106.46 -188.71,106.46 z"
         id="path189"
         style="fill:#000000;fill-rule:nonzero" /></g></g><g
     style="clip-rule:evenodd;fill-rule:evenodd;image-rendering:optimizeQuality;shape-rendering:geometricPrecision;text-rendering:geometricPrecision"
     id="g667"
     transform="matrix(0.00758575,-0.0094254,0.0094254,0.00758575,48.334133,404.28164)"><g
       id="Layer_x0020_1-3"><rect
         class="fil0"
         height="16666.66"
         width="16666.66"
         x="0"
         y="0"
         id="rect556" /><g
         id="_1314996868928"><path
           class="fil1"
           d="m 9036.57,10440.77 c 706.81,695.3 1413.54,1390.61 2120.35,2085.92 373.25,367.21 747.42,735.21 1154.17,1053.78 219.46,171.86 463.55,334.3 730.46,334.39 266.92,0.13 550.45,-224.9 548.48,-526.48 -1.65,-235.39 -164.05,-424.43 -316.26,-585.02 -1125.31,-1186.89 -2301.52,-2312.2 -3522.93,-3370.76 -223.98,328 -447.85,656.09 -714.27,1008.17 z"
           id="path558" /><path
           class="fil2"
           d="m 9170.84,10430.77 2057.06,2023.78 c 365.2,359.3 742.9,730.66 1145.69,1046.22 207.32,162.43 431.76,312.72 667.96,312.86 h 0.23 c 115.63,0 237.36,-52.94 325.56,-141.59 78.99,-79.58 122.16,-180.11 121.47,-283.07 -1.42,-196.76 -143.24,-362.66 -288.55,-515.92 -1092.3,-1152.19 -2245.91,-2258.34 -3429.99,-3289.43 -187.43,274.37 -380.47,554.28 -599.43,847.15 z m 3870.95,3585.3 h -0.36 c -297.39,-0.1 -556.72,-171.14 -792.67,-355.9 -411.9,-322.52 -793.63,-698.11 -1162.81,-1061.36 L 8965.6,10512.89 c -36.18,-35.58 -40.5,-92.71 -9.66,-133.21 263.75,-348.57 489.83,-679.7 708.43,-999.92 16.29,-23.85 43.4,-41.76 72.03,-45.48 28.63,-3.6 58.87,2.9 80.74,21.87 1219.14,1056.48 2406.82,2192.84 3530.06,3377.65 165.46,174.5 342.18,383.37 344.06,653.75 1.06,157.42 -62.96,309.03 -180.34,427.14 -125.33,126.12 -300.76,201.38 -469.12,201.38 z"
           id="path560" /><path
           class="fil1"
           d="m 6278.6,10507.09 c -1848.91,0 -3347.74,-1498.82 -3347.74,-3347.74 0,-1848.78 1498.82,-3347.61 3347.74,-3347.61 1848.82,0 3347.61,1498.82 3347.61,3347.61 0,1848.92 -1498.79,3347.74 -3347.61,3347.74 z m 0,0 c -1848.91,0 -3347.74,-1498.82 -3347.74,-3347.74 0,-1848.78 1498.82,-3347.61 3347.74,-3347.61 1848.82,0 3347.61,1498.82 3347.61,3347.61 0,1848.92 -1498.79,3347.74 -3347.61,3347.74 z m 0,-7755.39 c -2434.26,0 -4407.68,1973.39 -4407.68,4407.65 0,2434.3 1973.42,4407.68 4407.68,4407.68 2434.26,0 4407.55,-1973.39 4407.55,-4407.68 0,-2434.26 -1973.29,-4407.65 -4407.55,-4407.65 z"
           id="path562" /><path
           class="fil2"
           d="m 3032.11,7159.35 c 0,1790.18 1456.34,3246.52 3246.48,3246.52 1790.05,0 3246.39,-1456.35 3246.39,-3246.52 0,-1790.04 -1456.34,-3246.39 -3246.39,-3246.39 -1790.14,0 -3246.48,1456.34 -3246.48,3246.39 z m 3246.48,3448.96 c -1901.72,0 -3448.96,-1547.21 -3448.96,-3448.96 0,-1901.72 1547.24,-3448.82 3448.96,-3448.82 1901.62,0 3448.86,1547.11 3448.86,3448.82 0,1901.75 -1547.24,3448.96 -3448.86,3448.96 z m 0,-7755.39 c -2374.57,0 -4306.43,1931.86 -4306.43,4306.43 0,2374.6 1931.86,4306.46 4306.43,4306.46 2374.47,0 4306.46,-1931.86 4306.46,-4306.46 0,-2374.57 -1932,-4306.43 -4306.46,-4306.43 z m 0,8815.33 c -2486.27,0 -4508.9,-2022.63 -4508.9,-4508.9 0,-2486.14 2022.63,-4508.77 4508.9,-4508.77 2486.18,0 4508.9,2022.63 4508.9,4508.77 0,2486.28 -2022.72,4508.9 -4508.9,4508.9 z"
           id="path564" /><path
           class="fil2"
           d="m 9604.93,10567.02 -9.3,-1.28 c -17.94,-5.11 -28.3,-23.85 -23.15,-41.76 l 77.7,-271.33 c 5.01,-17.81 23.38,-28.63 41.65,-23.05 17.91,5.14 28.26,23.74 23.15,41.65 l -77.61,271.33 c -4.29,14.91 -17.81,24.44 -32.45,24.44 z"
           id="path566" /><path
           class="fil2"
           d="m 9975.84,11042.31 -4.42,-0.23 c -18.5,-2.44 -31.53,-19.43 -29.19,-37.83 41.52,-317.38 91.56,-637.69 148.68,-952.33 3.4,-18.37 21.17,-30.11 39.35,-27.11 18.27,3.39 30.47,20.84 27.11,39.21 -56.89,313.45 -106.83,632.71 -148.12,948.83 -2.21,16.98 -16.76,29.45 -33.41,29.45 z"
           id="path568" /><path
           class="fil2"
           d="m 10457.29,11503.65 c -18.6,0 -33.74,-15.14 -33.74,-33.77 0,-158.8 24.34,-425.03 45.98,-659.82 13.13,-143.2 24.44,-267.02 28.4,-344.72 0.92,-18.64 14.51,-34.33 35.35,-32.03 18.6,0.96 32.91,16.76 31.99,35.39 -3.96,79.12 -15.37,203.49 -28.63,347.42 -21.4,233.51 -45.61,498.08 -45.61,653.75 0,18.63 -15.11,33.77 -33.74,33.77 z"
           id="path570" /><path
           class="fil2"
           d="m 10950.29,11958.09 c -18.4,0 -33.41,-14.64 -33.77,-32.91 l -25.46,-1125.81 c -0.37,-18.63 14.31,-34.1 32.91,-34.43 h 0.82 c 18.27,0 33.38,14.54 33.74,32.91 l 25.5,1125.68 c 0.33,18.63 -14.44,34.1 -33.05,34.56 z"
           id="path572" /><path
           class="fil2"
           d="m 11419.38,12455.94 c -18.01,0 -33.02,-14.31 -33.74,-32.46 l -44.2,-1178.84 c -0.59,-18.63 13.85,-34.33 32.59,-35.03 19.43,0.1 34.2,13.95 34.89,32.46 l 44.23,1178.87 c 0.69,18.6 -13.85,34.3 -32.49,35 z"
           id="path574" /><path
           class="fil2"
           d="m 11896.78,12875.62 c -17.91,0 -32.68,-13.85 -33.64,-31.89 l -59.67,-1101.11 c -1.06,-18.73 13.26,-34.56 31.86,-35.62 20.94,-2.08 34.56,13.26 35.48,31.89 l 59.6,1101.24 c 1.02,18.64 -13.29,34.43 -31.8,35.49 h -1.85 z"
           id="path576" /><path
           class="fil2"
           d="m 12369.4,13263.55 c -17.35,0 -32.22,-13.39 -33.51,-31.2 l -82.72,-1072.05 c -1.42,-18.6 12.43,-34.8 31.04,-36.18 16.89,-2.8 34.8,12.46 36.21,31.07 l 82.72,1072.05 c 1.39,18.6 -12.46,34.8 -31.07,36.18 z"
           id="path578" /><path
           class="fil2"
           d="m 12816.89,13612.22 c -17.12,0 -31.66,-12.89 -33.51,-30.34 l -96.7,-940.22 c -1.85,-18.64 11.51,-35.16 30.14,-37.01 17.22,-2.21 35.13,11.41 37.01,30.15 l 96.67,940.22 c 1.88,18.47 -11.51,35.12 -30.15,36.97 z"
           id="path580" /><path
           class="fil2"
           d="m 13255.04,13562.19 c -16.16,0 -30.61,-11.84 -33.15,-28.36 l -67.94,-420.15 c -3.04,-18.37 9.53,-35.72 27.9,-38.62 18.4,-3.4 35.72,9.4 38.65,27.8 l 67.94,420.15 c 3,18.5 -9.57,35.72 -27.94,38.72 l -5.47,0.46 z"
           id="path582" /><path
           class="fil3"
           d="m 6278.6,10405.88 c -1790.14,0 -3246.48,-1456.35 -3246.48,-3246.52 0,-154.15 10.81,-305.86 31.76,-454.44 32.69,112.73 69.23,224.54 108.67,335.09 -0.23,176.48 19.52,249.2 83.31,456.79 43.27,151.12 84.56,302.63 139.38,450.16 54.22,143.56 144.62,458.86 408.27,819.57 l 0.1,0.23 c 245.15,296.57 605.73,614.2 767.7,727.86 381.03,256.69 557.31,356.63 922.28,441.55 236.44,58.64 443.99,79.94 631.19,79.94 225.16,0 420.84,-30.84 601.44,-64.57 696.93,-128.33 1111,-273.88 1662.05,-672.62 18.37,-11.41 37.46,-18.5 56.53,-22.33 108.11,-82.29 214.21,-169.29 324.73,-268.07 127.87,-121.47 354.05,-375.95 371.4,-407.94 65.04,-76.68 109.59,-172.43 167.54,-255.14 -469.35,1215.71 -1650.54,2080.44 -3029.87,2080.44 z M 3578.61,9303.12 c -5.61,-6.07 -11.18,-12.24 -16.75,-18.4 -244.13,-274.34 -381.16,-550.09 -474.5,-817.11 124.37,302.37 290.53,583.14 491.25,835.51 z m 5442.7,-55.04 c 141.02,-184.76 264.01,-384.3 365.82,-595.47 -8.28,22.92 -16.52,45.84 -24.8,68.76 -48.52,112.63 -100.4,224.2 -153.93,334.96 -51.32,58.64 -114.71,123.58 -187.1,191.75 z"
           id="path584" /><path
           class="fil2"
           d="m 6167.62,10514.54 c -125.89,0 -251.68,-10.12 -375.95,-32.81 l -3.37,-0.69 c -201.88,-23.74 -405.37,-47.46 -600.81,-104.25 -358.14,-116.36 -680.99,-316.59 -984.68,-535.55 -127.87,-105.31 -330.2,-218.76 -624.2,-538.12 -200.72,-252.37 -366.88,-533.14 -491.25,-835.51 -50.13,-143.83 -87.73,-285.06 -122.39,-422.26 -57.59,-453.52 -65.96,-910.31 -7.09,-1365.81 4.78,-0.36 9.53,-0.59 14.31,-0.59 30.94,0 61.68,7.22 89.94,20.02 0.56,1.98 1.15,3.96 1.75,5.94 -20.94,148.58 -31.76,300.3 -31.76,454.44 0,1790.18 1456.34,3246.52 3246.48,3246.52 1379.33,0 2560.52,-864.73 3029.87,-2080.44 25.82,-36.78 54.22,-70.98 88.32,-99.83 25.69,-15.37 54.22,-22.46 82.58,-22.46 22,0 44.09,4.32 64.58,12.34 -51.65,145.91 -104.26,291.58 -156.83,437.13 -101.81,211.18 -224.8,410.71 -365.82,595.47 -218.5,206.06 -518.43,441.91 -811.4,624.23 -60.39,45.35 -105.08,76.41 -233.87,155.9 -317.28,167.78 -664.24,274.11 -1011.8,359.4 -167.54,45.02 -334.26,95.87 -507.97,110.19 -95.87,10.81 -192.21,16.75 -288.65,16.75 z"
           id="path586" /><path
           class="fil3"
           d="m 9236.56,10779.35 c -24.54,-18.04 -46.54,-39.68 -65.04,-63.89 z"
           id="path588" /><path
           class="fil3"
           d="M 9548.04,10801.91 9271,10529.32 c 259.83,-230.83 492.64,-491.12 693.46,-775.58 109.59,96.43 218.96,193.6 327.96,291.22 -3.69,7.78 -7.88,15.47 -12.43,23.02 -46.9,77.28 -102.5,149.04 -161.51,217.71 12.57,-74.11 25.5,-148.02 38.89,-221.67 3.36,-18.37 -8.84,-35.82 -27.11,-39.21 -1.98,-0.33 -3.86,-0.56 -5.7,-0.56 -16.06,0 -30.61,11.28 -33.64,27.67 -19.89,109.86 -39.08,220.51 -57.22,331.39 -129.98,167.41 -290.07,310.88 -476.24,413.25 -3.13,1.88 -6.27,3.63 -9.4,5.34 z m 134.13,-573.84 c -14.78,0 -27.9,9.89 -31.99,24.57 l -77.7,271.33 c -5.15,17.91 5.21,36.64 23.15,41.76 l 9.3,1.28 c 14.65,0 28.17,-9.53 32.45,-24.44 l 77.61,-271.33 c 5.11,-17.91 -5.24,-36.51 -23.15,-41.65 -3.26,-1.02 -6.53,-1.52 -9.67,-1.52 z"
           id="path590" /><path
           class="fil2"
           d="m 9409.92,10838.22 c -63.62,0 -123.78,-22.23 -173.35,-58.87 l -65.04,-63.89 c -15.93,-20.81 -29.22,-43.5 -39.45,-67.48 47.13,-38.62 93.44,-78.17 138.92,-118.67 l 277.04,272.59 c -46.07,25.13 -92.97,36.31 -138.12,36.31 z m 882.5,-793.26 c -109,-97.62 -218.37,-194.79 -327.96,-291.22 23.48,-33.28 46.54,-66.79 69.09,-100.76 2.21,0 4.42,-0.13 6.63,-0.13 23.84,0 48.88,3.5 75.39,11.18 161.28,42.58 248.05,233.04 176.84,380.93 z"
           id="path592" /><path
           class="fil2"
           d="m 9132.08,10647.99 c -37.83,-88.75 -33.04,-194.98 42.35,-287.72 30.01,-52.24 86.91,-75.86 134.73,-109 l 3.03,-2.47 c 241.56,-218.5 282.94,-204.06 429.31,-375 l 11.31,-13.35 c 68.41,-105.9 157.06,-204.09 280.74,-207.45 -22.56,33.97 -45.61,67.48 -69.09,100.76 -200.82,284.46 -433.63,544.74 -693.46,775.58 -45.48,40.5 -91.79,80.05 -138.92,118.67 z"
           id="path594" /><path
           class="fil2"
           d="m 9604.93,10567.02 -9.3,-1.28 c -17.94,-5.11 -28.3,-23.85 -23.15,-41.76 l 77.7,-271.33 c 4.09,-14.68 17.21,-24.57 31.99,-24.57 3.13,0 6.4,0.5 9.67,1.52 17.91,5.14 28.26,23.74 23.15,41.65 l -77.61,271.33 c -4.29,14.91 -17.81,24.44 -32.45,24.44 z"
           id="path596" /><path
           class="fil2"
           d="m 10033.68,10383.32 c 18.14,-110.89 37.33,-221.54 57.22,-331.39 3.04,-16.39 17.58,-27.67 33.64,-27.67 1.85,0 3.72,0.23 5.7,0.56 18.27,3.39 30.47,20.84 27.11,39.21 -13.39,73.65 -26.32,147.56 -38.89,221.67 -23.48,27.34 -47.46,54.09 -71.67,80.51 -4.29,5.8 -8.71,11.51 -13.13,17.12 z"
           id="path598" /><path
           class="fil4"
           d="m 6371.21,6903.62 c 0,-523.57 424.47,-948.01 948.04,-948.01 523.57,0 948.01,424.43 948.01,948.01 0,523.57 -424.43,948.04 -948.01,948.04 -523.57,0 -948.04,-424.46 -948.04,-948.04 z"
           id="path600" /><path
           class="fil2"
           d="m 7319.25,6056.83 c -467.04,0 -846.92,379.87 -846.92,846.79 0,467.04 379.87,846.79 846.92,846.79 466.91,0 846.79,-379.74 846.79,-846.79 0,-466.91 -379.88,-846.79 -846.79,-846.79 z m 0,1896.04 c -578.62,0 -1049.35,-470.64 -1049.35,-1049.26 0,-578.49 470.74,-1049.22 1049.35,-1049.22 578.49,0 1049.23,470.74 1049.23,1049.22 0,578.62 -470.74,1049.26 -1049.23,1049.26 z"
           id="path602" /><path
           class="fil2"
           d="m 1980.78,12388.82 c -23.88,0 -47.82,-8.38 -67.15,-25.49 -41.75,-37.11 -45.61,-101.09 -8.48,-142.87 491.55,-553.82 974.66,-1128.81 1435.86,-1708.81 34.89,-43.63 98.55,-50.96 142.28,-16.19 43.77,34.8 50.96,98.45 16.2,142.18 -463.42,582.91 -948.96,1160.6 -1442.99,1717.22 -20.02,22.56 -47.82,33.97 -75.72,33.97 z"
           id="path604" /><path
           class="fil2"
           d="m 12856.1,9450.28 c -17.81,0 -35.39,-4.65 -50.99,-13.72 L 10609.27,8157.43 c -48.28,-28.17 -64.71,-90.07 -36.54,-138.36 28.17,-48.38 90.17,-64.67 138.45,-36.54 l 2104.19,1225.77 1722.2,-3299.59 c 25.96,-49.57 87.04,-68.63 136.61,-42.91 49.54,25.93 68.73,87 42.91,136.71 l -1771.31,3393.45 c -12.8,24.54 -35.13,42.71 -61.64,50.36 z"
           id="path606" /><path
           class="fil1"
           d="m 1162.58,12582.42 c 0,-335.32 271.8,-607.11 607.11,-607.11 335.32,0 607.11,271.8 607.11,607.11 0,335.32 -271.8,607.11 -607.11,607.11 -335.31,0 -607.11,-271.8 -607.11,-607.11 z"
           id="path608" /><path
           class="fil2"
           d="m 1769.7,12076.53 c -278.89,0 -505.89,226.87 -505.89,505.89 0,279.02 227.01,505.9 505.89,505.9 278.89,0 505.9,-226.88 505.9,-505.9 0,-279.02 -227.01,-505.89 -505.9,-505.89 z m 0,1214.23 c -390.59,0 -708.33,-317.87 -708.33,-708.33 0,-390.59 317.74,-708.33 708.33,-708.33 390.59,0 708.33,317.74 708.33,708.33 0,390.46 -317.74,708.33 -708.33,708.33 z"
           id="path610" /><path
           class="fil1"
           d="m 14289.85,5348.5 c 0,-335.32 271.8,-607.11 607.11,-607.11 335.32,0 607.11,271.8 607.11,607.11 0,335.32 -271.8,607.11 -607.11,607.11 -335.32,0 -607.11,-271.8 -607.11,-607.11 z"
           id="path612" /><path
           class="fil2"
           d="m 14896.96,4842.61 c -278.98,0 -505.89,226.87 -505.89,505.89 0,279.02 226.91,505.9 505.89,505.9 279.02,0 505.9,-226.88 505.9,-505.9 0,-279.02 -226.88,-505.89 -505.9,-505.89 z m 0,1214.23 c -390.46,0 -708.33,-317.74 -708.33,-708.33 0,-390.46 317.87,-708.33 708.33,-708.33 390.59,0 708.33,317.87 708.33,708.33 0,390.59 -317.74,708.33 -708.33,708.33 z"
           id="path614" /><path
           class="fil1"
           d="m 12248.99,9349.06 c 0,-335.19 271.76,-606.98 607.11,-606.98 335.19,0 606.98,271.8 606.98,606.98 0,335.31 -271.8,607.11 -606.98,607.11 -335.35,0 -607.11,-271.8 -607.11,-607.11 z"
           id="path616" /><path
           class="fil2"
           d="m 12856.1,8843.3 c -279.02,0 -505.89,226.87 -505.89,505.76 0,279.02 226.87,505.89 505.89,505.89 278.89,0 505.76,-226.87 505.76,-505.89 0,-278.89 -226.87,-505.76 -505.76,-505.76 z m 0,1214.09 c -390.59,0 -708.37,-317.74 -708.37,-708.33 0,-390.46 317.77,-708.2 708.37,-708.2 390.46,0 708.2,317.74 708.2,708.2 0,390.59 -317.74,708.33 -708.2,708.33 z"
           id="path618" /><path
           class="fil2"
           d="m 4770.84,10108.02 c -21.9,0 -44,-7.09 -62.6,-21.77 -43.86,-34.56 -51.45,-98.19 -16.75,-142.05 L 6557.26,7576.23 c 34.56,-43.87 98.31,-51.42 142.18,-16.85 43.87,34.67 51.42,98.19 16.76,142.18 L 4850.43,10069.5 c -20.02,25.26 -49.7,38.52 -79.58,38.52 z"
           id="path620" /><path
           class="fil2"
           d="m 9403.29,8307.03 c -18.04,0 -36.28,-4.75 -52.8,-14.88 L 8071.68,7506.21 c -47.72,-29.32 -62.59,-91.59 -33.28,-139.28 29.19,-47.59 91.69,-62.37 139.28,-33.28 l 1278.67,785.94 c 47.69,29.32 62.6,91.69 33.28,139.28 -19.09,31.07 -52.24,48.15 -86.34,48.15 z"
           id="path622" /></g></g></g><g
     style="clip-rule:evenodd;fill-rule:evenodd;image-rendering:optimizeQuality;shape-rendering:geometricPrecision;text-rendering:geometricPrecision"
     id="g805"
     transform="matrix(0.0110916,0.00483303,-0.00483303,0.0110916,305.17361,165.56091)"><g
       id="Layer_x0020_1-6"><rect
         class="fil0"
         height="16666.66"
         width="16666.66"
         x="0"
         y="0"
         id="rect673" /><g
         id="_1315271410912"><polygon
           class="fil1"
           points="11862,11686.86 1404,11686.86 1404,15044.35 11862,15044.35 "
           id="polygon675" /><path
           class="fil2"
           d="M 1497.6,14950.74 H 11768.37 V 11780.31 H 1497.6 Z m 10364.37,187.2 H 1404 c -51.76,0 -93.6,-41.96 -93.6,-93.6 V 11686.7 c 0,-51.64 41.85,-93.6 93.6,-93.6 h 10457.97 c 51.67,0 93.6,41.96 93.6,93.6 v 3357.64 c 0,51.64 -41.94,93.6 -93.6,93.6 z"
           id="path677" /><polygon
           class="fil1"
           points="11862,2827.98 1404,2827.98 1404,6185.56 11862,6185.56 "
           id="polygon679" /><path
           class="fil2"
           d="M 1497.6,6091.96 H 11768.37 V 2921.65 H 1497.6 Z m 10364.37,187.2 H 1404 c -51.63,0 -93.6,-41.96 -93.6,-93.6 V 2828.01 c 0,-51.63 41.97,-93.6 93.6,-93.6 h 10457.97 c 51.67,0 93.6,41.97 93.6,93.6 v 3357.55 c 0,51.64 -41.94,93.6 -93.6,93.6 z"
           id="path681" /><polygon
           class="fil1"
           points="11862,7257.41 1404,7257.41 1404,10614.95 11862,10614.95 "
           id="polygon683" /><path
           class="fil2"
           d="M 1497.6,10521.35 H 11768.37 V 7351.04 H 1497.6 Z m 10364.37,187.2 H 1404 c -51.63,0 -93.6,-41.96 -93.6,-93.6 V 7257.44 c 0,-51.67 41.97,-93.63 93.6,-93.63 h 10457.97 c 51.67,0 93.6,41.97 93.6,93.63 v 3357.51 c 0,51.64 -41.94,93.6 -93.6,93.6 z"
           id="path685" /><path
           class="fil1"
           d="m 2713.98,8936.14 c 0,-228.75 185.47,-414.24 414.33,-414.24 228.75,0 414.25,185.5 414.25,414.24 0,228.84 -185.5,414.34 -414.25,414.34 -228.87,0 -414.33,-185.5 -414.33,-414.34 z"
           id="path687" /><path
           class="fil2"
           d="m 3128.32,8615.49 c -176.78,0 -320.73,143.87 -320.73,320.64 0,176.9 143.96,320.73 320.73,320.73 176.78,0 320.65,-143.83 320.65,-320.73 0,-176.78 -143.87,-320.64 -320.65,-320.64 z m 0,828.61 c -280.07,0 -507.97,-227.89 -507.97,-507.97 0,-279.96 227.89,-507.85 507.97,-507.85 279.96,0 507.85,227.89 507.85,507.85 0,280.08 -227.89,507.97 -507.85,507.97 z"
           id="path689" /><path
           class="fil1"
           d="m 2713.98,13365.53 c 0,-228.75 185.47,-414.24 414.33,-414.24 228.75,0 414.25,185.5 414.25,414.24 0,228.87 -185.5,414.34 -414.25,414.34 -228.87,0 -414.33,-185.47 -414.33,-414.34 z"
           id="path691" /><path
           class="fil2"
           d="m 3128.32,13044.89 c -176.78,0 -320.73,143.87 -320.73,320.64 0,176.78 143.96,320.64 320.73,320.64 176.78,0 320.65,-143.87 320.65,-320.64 0,-176.78 -143.87,-320.64 -320.65,-320.64 z m 0,828.61 c -280.07,0 -507.97,-227.89 -507.97,-507.97 0,-279.96 227.89,-507.85 507.97,-507.85 279.96,0 507.85,227.89 507.85,507.85 0,280.08 -227.89,507.97 -507.85,507.97 z"
           id="path693" /><path
           class="fil1"
           d="m 2713.98,13365.53 c 0,-228.75 185.47,-414.24 414.33,-414.24 228.75,0 414.25,185.5 414.25,414.24 0,228.87 -185.5,414.34 -414.25,414.34 -228.87,0 -414.33,-185.47 -414.33,-414.34 z"
           id="path695" /><path
           class="fil2"
           d="m 3128.32,13044.89 c -176.78,0 -320.73,143.87 -320.73,320.64 0,176.78 143.96,320.64 320.73,320.64 176.78,0 320.65,-143.87 320.65,-320.64 0,-176.78 -143.87,-320.64 -320.65,-320.64 z m 0,828.61 c -280.07,0 -507.97,-227.89 -507.97,-507.97 0,-279.96 227.89,-507.85 507.97,-507.85 279.96,0 507.85,227.89 507.85,507.85 0,280.08 -227.89,507.97 -507.85,507.97 z"
           id="path697" /><path
           class="fil1"
           d="m 4839.2,13365.53 c 0,-228.75 185.41,-414.24 414.24,-414.24 228.87,0 414.37,185.5 414.37,414.24 0,228.87 -185.5,414.34 -414.37,414.34 -228.84,0 -414.24,-185.47 -414.24,-414.34 z"
           id="path699" /><path
           class="fil2"
           d="m 5253.44,13044.89 c -176.78,0 -320.73,143.87 -320.73,320.64 0,176.78 143.96,320.64 320.73,320.64 176.9,0 320.73,-143.87 320.73,-320.64 0,-176.78 -143.83,-320.64 -320.73,-320.64 z m 0,828.61 c -280.08,0 -507.97,-227.89 -507.97,-507.97 0,-279.96 227.89,-507.85 507.97,-507.85 280.08,0 507.97,227.89 507.97,507.85 0,280.08 -227.89,507.97 -507.97,507.97 z"
           id="path701" /><path
           class="fil1"
           d="m 2713.98,4506.74 c 0,-228.75 185.47,-414.24 414.33,-414.24 228.75,0 414.25,185.5 414.25,414.24 0,228.84 -185.5,414.34 -414.25,414.34 -228.87,0 -414.33,-185.5 -414.33,-414.34 z"
           id="path703" /><path
           class="fil2"
           d="m 3128.32,4186.1 c -176.78,0 -320.73,143.96 -320.73,320.64 0,176.9 143.96,320.73 320.73,320.73 176.78,0 320.65,-143.83 320.65,-320.73 0,-176.68 -143.87,-320.64 -320.65,-320.64 z m 0,828.61 c -280.07,0 -507.97,-227.89 -507.97,-507.97 0,-279.96 227.89,-507.85 507.97,-507.85 279.96,0 507.85,227.89 507.85,507.85 0,280.08 -227.89,507.97 -507.85,507.97 z"
           id="path705" /><path
           class="fil1"
           d="m 4839.2,4506.74 c 0,-228.75 185.41,-414.24 414.24,-414.24 228.87,0 414.37,185.5 414.37,414.24 0,228.84 -185.5,414.34 -414.37,414.34 -228.84,0 -414.24,-185.5 -414.24,-414.34 z"
           id="path707" /><path
           class="fil2"
           d="m 5253.44,4186.1 c -176.78,0 -320.73,143.96 -320.73,320.64 0,176.9 143.96,320.73 320.73,320.73 176.9,0 320.73,-143.83 320.73,-320.73 0,-176.68 -143.83,-320.64 -320.73,-320.64 z m 0,828.61 c -280.08,0 -507.97,-227.89 -507.97,-507.97 0,-279.96 227.89,-507.85 507.97,-507.85 280.08,0 507.97,227.89 507.97,507.85 0,280.08 -227.89,507.97 -507.97,507.97 z"
           id="path709" /><path
           class="fil1"
           d="M 7988.09,3568.51 C 9106.45,1718.5 11514.97,1073.59 13367.55,2127.89 15220.03,3182.32 15815.26,5536.74 14696.81,7386.75 13578.33,9236.76 11169.93,9881.67 9317.32,8827.34 7464.75,7773.03 6869.64,5418.49 7988.09,3568.51 Z"
           id="path711" /><path
           class="fil2"
           d="m 8068.16,3616.92 c -533.13,881.87 -686.58,1905.43 -432.21,2882.06 249.18,956.74 862.8,1754.67 1727.77,2247.03 587.24,334.31 1232.94,493.02 1874.2,493.02 1330.63,0.09 2642.76,-683.34 3378.71,-1900.7 533.16,-881.83 686.7,-1905.4 432.33,-2881.94 C 14799.78,3499.65 14186.16,2701.5 13321.19,2209.24 11515.4,1181.28 9158.85,1813.08 8068.16,3616.92 Z m 3168.78,5808.98 c -672.67,0 -1349.79,-166.56 -1965.97,-517.21 C 8361.78,8391.26 7716.74,7552.13 7454.75,6546.22 7187.48,5520.18 7348.46,4445.53 7907.94,3519.99 9050.61,1630.05 11520.37,969 13413.82,2046.55 c 909.31,517.55 1554.23,1356.56 1816.34,2362.59 267.15,1025.94 106.2,2100.6 -453.32,3026.14 -770.69,1274.91 -2145.67,1990.62 -3539.9,1990.62 z"
           id="path713" /><path
           class="fil1"
           d="m 14507.74,3126.27 c -508.92,304.2 -1017.83,608.47 -1524.19,916.94 -763.19,464.93 -1503.66,1027.22 -2247.36,1523.12 428.13,424.49 1901.22,1825.06 2454.48,2383.48 176.14,177.75 352.15,355.59 528.07,533.56 381,-295.14 715.4,-662.15 978.06,-1096.61 840.75,-1390.57 713.02,-3066.27 -189.07,-4260.49 z"
           id="path715" /><path
           class="fil2"
           d="m 10883.6,5580.11 c 188.4,184.65 489.79,474.82 831.3,803.63 569.18,547.99 1214.22,1169.14 1542.28,1500.22 156.55,157.96 312.89,315.88 469.24,473.96 355.47,-287.3 654.7,-629.87 890.22,-1019.6 783.41,-1295.56 728.42,-2890.75 -133.74,-4088.11 -477.5,285.48 -969.22,579.65 -1450.71,872.93 -472.56,287.95 -944.36,618.9 -1400.57,938.99 -245.09,171.96 -497.63,349.16 -748,517.97 z m 2835.06,2996.86 c -24.22,0 -48.31,-9.37 -66.52,-27.88 -175.89,-177.84 -351.81,-355.68 -527.95,-533.44 -326.56,-329.46 -970.74,-949.76 -1539.07,-1497.1 -396.8,-381.95 -739.49,-711.95 -914.86,-885.71 -19.92,-19.92 -29.92,-47.58 -27.24,-75.55 2.68,-27.97 17.87,-53.37 41.2,-68.87 279.65,-186.44 564.45,-386.37 839.9,-579.61 458.68,-321.71 932.95,-654.4 1410.7,-945.55 506.66,-308.68 1024.3,-618.13 1524.83,-917.37 41.11,-24.52 94.06,-14.09 122.79,23.88 956.07,1265.89 1032.47,2979.44 194.4,4365.5 -261.65,432.85 -598.34,810.41 -1000.84,1122.02 -16.9,13.24 -37.12,19.67 -57.34,19.67 z"
           id="path717" /><path
           class="fil3"
           d="m 10736.19,5566.33 c 592.76,-337.63 1193.24,-661.69 1802.56,-968.45 580.37,-292.25 1167.31,-571.14 1760.25,-836.57 160.12,-71.76 320.85,-143.96 482.47,-214.96 -321.28,-572.3 -797.5,-1067.58 -1413.93,-1418.44 -587.03,-334.09 -1229.93,-496.99 -1869.78,-505.59 -126.2,608.04 -239.72,1218.21 -359.93,1827.29 -139.23,704.75 -271.14,1410.61 -401.65,2116.73 z"
           id="path719" /><path
           class="fil2"
           d="m 11573.62,1717.74 c -76.61,372.28 -149.78,750.38 -220.57,1116.74 -40.9,211.12 -81.77,422.33 -123.4,633.2 -129.01,653.97 -251.13,1304.5 -364.87,1918.12 554.21,-312.26 1102.32,-605.02 1631.91,-871.53 578.42,-291.27 1171.82,-573.27 1764.03,-838.49 l 76.37,-34.22 c 103.39,-46.27 206.91,-92.63 310.97,-138.68 -321.07,-535.42 -777.92,-981.3 -1326.89,-1293.64 -529.9,-301.58 -1132.54,-470.82 -1747.56,-491.5 z m -837.43,3942.22 c -19.15,0 -38.09,-5.83 -54.32,-17.32 -29.61,-21.11 -44.35,-57.59 -37.79,-93.3 124.07,-671.3 258.67,-1392.28 401.89,-2117.8 41.63,-210.78 82.41,-421.78 123.19,-632.68 75.85,-392.07 154.3,-797.47 236.92,-1195.58 9.03,-43.46 47.33,-74.57 91.68,-74.57 h 1.19 c 673.22,9.03 1335.37,188.09 1914.86,517.85 608.68,346.48 1109.85,849.14 1449.22,1453.94 13.02,23.03 15.5,50.48 7.2,75.43 -8.39,25.07 -26.99,45.41 -51.09,56.06 -135.69,59.6 -270.83,120.2 -405.43,180.44 l -76.4,34.22 c -589.62,264.04 -1180.52,544.87 -1756.38,834.83 -582.42,293.19 -1187.54,618.26 -1798.47,966.2 -14.43,8.2 -30.35,12.29 -46.27,12.29 z"
           id="path721" /><path
           class="fil2"
           d="m 11309.47,5800.78 -16.04,-4.39 c -14.73,-8.94 -19.58,-28.09 -10.65,-42.82 l 224.57,-374.23 c 8.94,-14.73 28.18,-19.58 42.7,-10.77 14.85,8.85 19.7,28.09 10.77,42.82 l -224.54,374.35 c -5.82,9.67 -16.26,15.04 -26.81,15.04 z"
           id="path723" /><path
           class="fil2"
           d="m 11623.34,6121.85 -15.61,-4.09 c -14.94,-8.6 -20.13,-27.76 -11.5,-42.61 l 600.26,-1041.74 c 8.6,-14.94 27.66,-20.01 42.61,-11.41 14.94,8.63 20.13,27.66 11.53,42.61 l -600.3,1041.74 c -5.8,9.91 -16.26,15.5 -26.99,15.5 z"
           id="path725" /><path
           class="fil2"
           d="m 11998.39,6447.43 -14.52,-3.54 c -15.28,-8.08 -21.07,-26.9 -13.11,-42.06 287.15,-545.42 568.54,-1104.48 836.45,-1661.71 7.53,-15.61 26.14,-22.17 41.63,-14.55 15.62,7.44 22.05,26.05 14.64,41.54 -268.24,557.9 -550.03,1117.72 -837.43,1663.75 -5.7,10.56 -16.47,16.56 -27.66,16.56 z"
           id="path727" /><path
           class="fil2"
           d="m 12340.87,6828.34 -13.54,-3.02 c -15.49,-7.54 -22.05,-26.14 -14.64,-41.63 l 1108.23,-2312.78 c 7.44,-15.58 26.26,-22.05 41.63,-14.64 15.5,7.44 22.08,26.05 14.64,41.66 l -1108.23,2312.66 c -5.37,11.19 -16.47,17.75 -28.09,17.75 z"
           id="path729" /><path
           class="fil2"
           d="m 12734.8,7183.51 -12.81,-2.8 c -15.71,-6.98 -22.72,-25.5 -15.62,-41.2 l 1331.06,-2957.36 c 7.11,-15.83 25.83,-22.72 41.33,-15.71 15.7,7.07 22.69,25.59 15.61,41.3 l -1331.09,2957.39 c -5.15,11.5 -16.56,18.39 -28.48,18.39 z"
           id="path731" /><path
           class="fil2"
           d="m 13136.02,7585.37 -12.17,-2.47 c -15.83,-6.68 -23.33,-24.95 -16.56,-40.9 L 14637.4,3907.34 c 6.68,-15.7 24.98,-23.24 40.9,-16.59 15.8,6.68 23.33,24.98 16.69,40.9 l -1530.22,3634.57 c -5.06,11.96 -16.59,19.16 -28.73,19.16 z"
           id="path733" /><path
           class="fil2"
           d="m 13527.34,7867.83 -12.26,-2.59 c -15.83,-6.77 -23.12,-25.19 -16.35,-40.99 l 1347.63,-3146 c 6.89,-15.92 25.19,-23.12 40.99,-16.35 15.83,6.77 23.15,25.17 16.38,40.99 l -1347.66,3146 c -5.06,11.83 -16.56,18.94 -28.73,18.94 z"
           id="path735" /><path
           class="fil2"
           d="m 14222.85,7511.01 -12.6,-2.69 c -15.83,-6.98 -22.91,-25.5 -15.92,-41.2 254.25,-570.37 509.89,-1152.33 759.84,-1729.91 6.77,-15.95 25.19,-23.24 40.99,-16.38 15.83,6.89 23.03,25.28 16.26,41.11 -250.07,577.79 -505.71,1159.99 -759.96,1730.58 -5.28,11.62 -16.68,18.48 -28.61,18.48 z"
           id="path737" /><path
           class="fil4"
           d="m 11042.41,9794.42 c -561.53,0 -1120.61,-113.52 -1629.65,-356.14 C 8728.14,9107.63 8091.18,8614.94 7695.54,7957.13 7644.88,7870.3 7584.49,7788.41 7546,7695.02 l -9.82,-22.27 c -39.59,-71.76 -72.28,-145.79 -49.38,-229.39 9.06,-35.11 27.11,-66.52 51.21,-92.32 h 225.64 c 336.35,647.17 853.56,1185.58 1507.32,1557.65 616.18,350.65 1293.3,517.21 1965.97,517.21 177.87,0 355.41,-11.62 531.43,-34.65 v 364.99 c -37.55,8.69 -77.56,10.74 -115.87,13.67 -136,11.19 -272.45,17.2 -408.88,19.67 -67.04,3.23 -134.04,4.85 -201.2,4.85 z"
           id="path739" /><path
           class="fil2"
           d="m 11768.36,9756.24 v -364.99 c 28.94,-3.75 57.89,-7.84 86.71,-12.26 89.21,78.02 113,230.15 16.38,320.98 -28.64,31.3 -64.57,47.33 -103.09,56.27 z M 7763.64,7351.04 H 7538 c 43.7,-46.91 106.87,-75.85 171.1,-75.85 5.49,0 10.95,0.21 16.44,0.64 12.5,25.28 25.07,50.35 38.09,75.21 z"
           id="path741" /><path
           class="fil4"
           d="m 11238.34,9239.03 c -0.09,0 -0.3,0 -0.43,0 -641.26,0 -1286.96,-158.72 -1874.2,-493.02 -656.56,-373.68 -1168.17,-923.37 -1485.7,-1584.97 0.34,-0.21 0.64,-0.43 0.85,-0.67 -1.07,-1.37 -2.13,-2.78 -3.2,-4.18 -99.64,-208.62 -180.13,-428.46 -239.73,-657.2 -28.3,-108.67 -51.54,-217.77 -69.72,-327.29 9.15,-1.52 18.51,-2.38 27.85,-2.38 27.33,0 54.69,6.98 79.3,22.17 36.39,21.29 63.8,56.7 75,97.35 38.95,107.08 30.56,86.19 49.63,130.33 144.26,298.47 253.36,393.35 458.77,649.12 l 8.6,5.7 c 129.13,130.81 50.78,76.28 174.3,198.4 147.83,152.04 311.61,287.49 468.38,430.04 207,196.81 891.96,595.23 1158.68,717.68 116.2,45.72 237.38,77.35 359.04,104.68 148.72,34.13 300.33,51.67 450.3,79.08 l -2.9,-0.21 c 236.4,31.75 232.19,46.06 523.34,64.44 18.51,0.34 36.26,0.43 53.25,0.43 227.59,0 323.66,-19.58 457.4,-43.04 560.25,-138.38 744.55,-250.8 1136.41,-427.48 62.62,-30.1 120.96,-58.95 175.41,-86.62 119.41,120.63 238.84,241.25 358.18,361.85 -681.42,498.3 -1506.46,765.78 -2338.83,765.78 z"
           id="path743" /><path
           class="fil2"
           d="m 11236.94,9425.9 c -672.67,0 -1349.79,-166.56 -1965.97,-517.21 C 8617.21,8536.62 8100,7998.22 7763.65,7351.04 c -13.02,-24.86 -25.59,-49.93 -38.09,-75.21 14.21,1.19 28.52,3.75 42.39,7.84 15.19,3.45 28.85,8.63 41.54,14.76 1.62,-55.2 27.88,-104.58 68.53,-137.4 317.53,661.6 829.13,1211.29 1485.7,1584.97 587.24,334.31 1232.94,493.02 1874.2,493.02 0.12,0 0.33,0 0.43,0 832.37,0 1657.41,-267.48 2338.83,-765.78 24.95,25.29 50.02,50.57 74.97,75.85 6.37,6.46 13.45,11.86 20.98,16.04 -161.16,119.98 -336.87,219.93 -517.52,307.53 -377.04,174.39 -775.33,312.65 -1180.55,404.33 -233.17,35.93 -471.37,22.6 -706.8,28.4 -220.02,-5.58 -437.49,-44.01 -656.99,-57.34 -188.91,-15.16 -381.73,-18.94 -570.89,-41.11 345.28,104.8 703.9,150.12 1101.77,150.12 182.81,0 374.02,-9.58 575.98,-27.33 2.26,0 4.39,-0.12 6.65,-0.12 51.12,0 95.68,19.15 130.3,49.38 -28.82,4.42 -57.76,8.51 -86.71,12.26 -176.02,23.03 -353.55,34.65 -531.43,34.65 z M 8042.44,7679.95 c 26.47,46.05 53.34,91.89 78.87,138.37 127.7,189.59 132.86,190.99 316.95,396.07 l 26.69,24.95 c -84.88,-105.65 -164.73,-219.5 -232.29,-337.2 -64.99,-72.74 -127.73,-147.41 -190.22,-222.19 z m -166.77,-523.77 c -60.6,-79.3 -118.8,-160.55 -173.24,-244.79 -86.5,-133.96 -168.51,-271.91 -227.13,-420.59 -22.81,-64.44 -61.46,-131.79 -41.42,-201.97 16.56,-62.83 71.65,-106.63 132.34,-117.15 18.18,109.52 41.42,218.62 69.72,327.29 59.6,228.75 140.09,448.59 239.73,657.2 z"
           id="path745" /><path
           class="fil4"
           d="m 13726.41,8357.92 c -111.48,-112.67 -222.95,-225.33 -334.43,-337.87 212.31,-117.57 358.52,-222.61 487.84,-352.79 86.95,-83.17 64.66,-57.34 193.03,-188.3 99.52,-105.1 193.33,-214.96 233.59,-263.82 -37.33,84.15 -74.78,168.3 -112.12,251.99 -6.98,15.7 0.09,34.22 15.92,41.2 l 12.6,2.69 c 11.93,0 23.33,-6.86 28.61,-18.48 71.56,-160.64 143.23,-322.14 214.87,-484.3 18.18,-27.63 40.02,-61.21 70.27,-106.29 60.45,-96.2 113.06,-197.03 157.07,-301.82 37.45,-91.65 64.02,-216.27 184.86,-216.27 1.19,0 2.26,0 3.44,0 62.74,3.44 105.13,30.89 128.25,70.06 -91.35,304.3 -222.5,601.45 -393.6,884.43 -53.77,89 -110.8,175.49 -171.17,259.43 -97.26,114.04 -192.18,214.02 -229.93,256.71 -77.59,93.09 -178.3,193.03 -296.64,292.89 6.44,9.03 12.14,18.72 16.9,28.82 -67.46,62.83 -137.31,123.43 -209.38,181.74 z"
           id="path747" /><path
           class="fil2"
           d="m 13673.12,8565.14 c -7.54,-4.18 -14.61,-9.58 -20.98,-16.04 -24.95,-25.28 -50.02,-50.57 -74.97,-75.85 -119.35,-120.59 -238.78,-241.22 -358.18,-361.85 62.4,-31.63 119.74,-61.97 172.99,-91.35 111.48,112.54 222.95,225.21 334.43,337.87 72.07,-58.31 141.91,-118.92 209.38,-181.74 21.07,44.86 24.31,98.57 1.71,142.58 -20.86,60.24 -82.62,92.51 -126.33,135.33 -44.53,38.86 -90.67,75.89 -138.04,111.05 z m 772.34,-967.39 c 60.36,-83.94 117.39,-170.43 171.17,-259.43 171.1,-282.98 302.25,-580.13 393.6,-884.43 31.32,52.83 27.97,127.19 -7.11,192.82 -50.23,133.53 -106.93,264.89 -177.2,389.17 -82.41,137.28 -165.28,274.59 -255.43,406.71 -38.95,51.97 -82.2,105.01 -125.02,155.15 z"
           id="path749" /><path
           class="fil2"
           d="m 14222.85,7511.01 -12.6,-2.69 c -15.83,-6.98 -22.91,-25.5 -15.92,-41.2 37.33,-83.69 74.79,-167.84 112.12,-251.99 13.54,-16.56 21.07,-26.05 20.56,-26.05 -0.12,0 -0.55,0.33 -1.19,0.98 72.41,-80.91 95.56,-113.52 140.51,-181.84 -71.64,162.17 -143.31,323.66 -214.87,484.3 -5.28,11.62 -16.68,18.48 -28.61,18.48 z"
           id="path751" /><polygon
           class="fil4"
           points="10876.28,8603.99 10876.07,8603.87 "
           id="polygon753" /></g></g></g><g
     style="clip-rule:evenodd;fill-rule:evenodd;image-rendering:optimizeQuality;shape-rendering:geometricPrecision;text-rendering:geometricPrecision"
     id="g949"
     transform="translate(-27320.271,-13628.207)"><g
       id="Layer_x0020_1-7"
       transform="matrix(0.01188108,-0.00228507,0.00228507,0.01188108,27351.889,13780.808)"><rect
         class="fil0"
         height="16666.66"
         width="16666.66"
         x="0"
         y="0"
         id="rect811" /><g
         id="_1316253505344"><path
           class="fil1"
           d="m 2729.05,12792.19 c 20.89,-3548.6 -12.14,-7097.59 -99.18,-10645.22 3349.86,-40.28 6740.39,-48.03 10139.73,-32.84 -28.89,2476.94 -25.94,4954.27 8.83,7431.13 20.67,1472.2 17.25,3062.8 -852.33,4250.89 -113.2,154.57 -240.69,300.56 -393.87,415.71 -456.99,343.34 -1082.05,368.15 -1694.28,241.41 -1271.4,-226.19 -2582.89,-97.54 -3860.27,-286.86 -579.78,-86.04 -1147.81,-236.74 -1712.61,-393.37 -568.92,-157.79 -1169.98,-342.76 -1536.01,-980.85 z"
           id="path813" /><path
           class="fil2"
           d="m 2814.41,12769.47 c 362.7,613.39 977.99,784.02 1473.48,921.42 567.06,157.21 1124,305.5 1702.22,391.12 598.81,88.81 1217.7,107.54 1816.29,125.57 673.4,20.31 1369.8,41.37 2046.42,161.8 476.1,98.43 1142.92,138.96 1628.13,-225.69 128.87,-96.84 248.44,-223.24 376.23,-397.9 878.2,-1199.78 854.78,-2862.89 835.97,-4199.28 -34.31,-2436.94 -37.53,-4908.37 -9.81,-7347.51 -3568.8,-15.47 -6830.96,-5.08 -9966.19,32.14 84.87,3497.07 117.63,7041.78 97.23,10538.32 z m 7660.93,1838.88 c -204.83,0 -423.76,-23.75 -654.65,-71.56 -662.12,-117.79 -1352.17,-138.6 -2019.48,-158.76 -603.39,-18.25 -1227.4,-37.06 -1836.1,-127.32 -587.34,-87.01 -1173.09,-243.05 -1722.78,-395.54 -530.8,-147.13 -1191.34,-330.26 -1587.27,-1020.49 -7.44,-13.06 -11.39,-27.83 -11.28,-42.98 20.78,-3531.01 -12.56,-7111.79 -99.29,-10642.67 -0.47,-22.72 8.14,-44.78 23.92,-61.26 15.89,-16.44 37.64,-25.78 60.37,-26.06 3187.68,-38.33 6504.9,-49.2 10141.23,-32.83 22.64,0.11 44.39,9.31 60.37,25.47 15.86,16.17 24.78,38.03 24.5,60.76 -28.81,2465.58 -25.89,4964.97 8.81,7428.96 19.22,1361.88 43.03,3056.66 -868.89,4302.37 -137.98,188.66 -268.72,326.37 -411.43,433.6 -289.89,217.83 -666.23,328.31 -1108.03,328.31 z"
           id="path815" /><path
           class="fil1"
           d="m 11461.47,14265.9 c -195.05,110.12 -449.54,69.78 -635.76,-54.78 -186.1,-124.46 -313.42,-319.89 -409.65,-521.97 -197.88,-415.24 -285.19,-882.54 -306.64,-1353.83 -2992.66,-107.51 -6073.49,-139.24 -9040.06,-139.24 0,1916.13 993.85,2296.31 1313.93,2296.67 1520.82,1.5 4857.65,44.22 7261.97,65.78 613.89,5.47 1251.13,6.14 1816.21,-292.64 z"
           id="path817" /><path
           class="fil2"
           d="m 1155.31,12281.31 c 28.22,1731.84 914.37,2125.82 1228.09,2126.13 1004.43,1.06 2830.61,20.25 4596.76,38.95 924.37,9.72 1848.94,19.53 2665.88,26.89 416.13,3.64 872.92,7.72 1304.82,-103.4 -59.48,-21.75 -117.51,-51.06 -172.49,-87.81 -172.18,-115.15 -315.87,-297.17 -439.35,-556.25 -175.43,-368.51 -279.89,-808.17 -310.56,-1307.96 -2566.53,-91.18 -5470.88,-135.85 -8873.16,-136.54 z m 8725.36,2363.85 c -79.87,0 -158.68,-0.7 -236.19,-1.36 -816.97,-7.36 -1741.62,-17.17 -2666.18,-26.87 -1765.65,-18.69 -3591.44,-37.92 -4595.1,-38.86 -389.09,-0.44 -1399.11,-429.21 -1399.11,-2381.99 0,-47.06 38.22,-85.26 85.26,-85.26 3475.98,0 6433.94,45.56 9043.09,139.35 44.28,1.64 80.07,36.94 82.12,81.34 23.22,509.52 123.68,953.96 298.42,1320.88 109.87,230.72 234.24,390.37 380.15,487.99 165.35,110.51 370.95,134.82 521.58,64.06 8.92,-4.5 17.94,-9.22 26.86,-13.92 41.26,-21.75 92.31,-6.47 114.65,34.48 22.44,40.89 7.75,92.23 -32.81,115.09 -11.28,6.47 -22.75,12.31 -34.42,17.92 -507.35,257.25 -1069.11,287.14 -1588.32,287.14 z"
           id="path819" /><path
           class="fil2"
           d="m 1494.2,13064.67 -20.09,-8.36 c -11.08,-11.06 -11.08,-29.09 0,-40.14 l 511.58,-511.58 c 11.09,-11.09 29.11,-11.09 40.17,0 11.08,11.06 11.08,29.11 0,40.17 l -511.58,511.55 -20.09,8.36 z"
           id="path821" /><path
           class="fil2"
           d="m 1693.05,13661.48 -19.81,-7.98 c -11.25,-11 -11.44,-29.03 -0.47,-40.2 l 1080,-1108.44 c 11.08,-11.19 29,-11.44 40.17,-0.58 11.28,11 11.47,29.03 0.5,40.2 l -1080,1108.39 z"
           id="path823" /><path
           class="fil2"
           d="m 2097.7,14026.68 -20.09,-8.36 c -11.08,-11.06 -11.08,-29.09 0,-40.14 L 3569.9,12485.76 c 11.2,-11.06 29.11,-11.06 40.2,0 11.08,11.19 11.08,29.08 0,40.28 l -1492.31,1492.29 -20.09,8.36 z"
           id="path825" /><path
           class="fil2"
           d="m 2982.29,14153.58 -18.42,-6.75 c -11.97,-10.28 -13.33,-28.11 -3.25,-40.06 481.69,-565.53 992.68,-1118.44 1518.87,-1643.44 11.06,-11.19 29.11,-11.19 40.17,0 11.08,11.17 11.08,29.09 0,40.14 -525.11,523.94 -1035.02,1075.83 -1515.71,1640.11 l -21.67,10 z"
           id="path827" /><path
           class="fil2"
           d="m 3803.65,14166.13 -18.72,-6.86 c -11.75,-10.42 -13.03,-28.31 -2.72,-40.2 l 1426.72,-1642.44 c 10.39,-11.75 28.23,-13.11 40.09,-2.83 11.86,10.31 13.14,28.23 2.83,40.09 l -1426.72,1642.44 -21.47,9.8 z"
           id="path829" /><path
           class="fil2"
           d="m 4606.51,14178.08 -17.95,-6.47 c -12.14,-9.89 -13.92,-27.73 -4,-39.89 447.46,-547.33 912.59,-1091.86 1382.42,-1618.63 10.39,-11.64 28.33,-12.75 40.2,-2.25 11.67,10.42 12.64,28.45 2.25,40.12 -469.35,526.08 -933.98,1070.08 -1380.97,1616.74 l -21.94,10.39 z"
           id="path831" /><path
           class="fil2"
           d="m 5310.94,14186.06 -18.11,-6.61 c -12.06,-9.97 -13.83,-27.94 -3.83,-39.94 453.46,-549.33 917.81,-1099.64 1380,-1635.72 10.2,-11.94 28.22,-13.11 39.98,-3 11.97,10.28 13.22,28.2 3.06,40.06 -461.91,535.78 -925.95,1085.78 -1379.11,1634.8 l -21.98,10.42 z"
           id="path833" /><path
           class="fil2"
           d="m 6046.26,14205.22 -17.83,-6.36 c -12.14,-9.81 -14.11,-27.75 -4.31,-39.89 l 1310.1,-1627.74 c 9.81,-12.36 27.76,-14.2 40,-4.39 12.14,9.89 14.11,27.72 4.31,39.98 l -1310.1,1627.72 -22.17,10.7 z"
           id="path835" /><path
           class="fil2"
           d="m 6772.78,14233.06 -18.53,-6.86 c -11.94,-10.31 -13.33,-28.22 -3.03,-40.09 l 1390.75,-1616.24 c 10.31,-11.97 28.22,-13.14 40.09,-3.06 11.86,10.28 13.33,28.2 3.06,40.06 l -1390.78,1616.3 z"
           id="path837" /><path
           class="fil2"
           d="m 7546.22,14223.86 -18.03,-6.47 c -12.17,-9.92 -13.92,-27.83 -3.92,-40 454.24,-555.17 937.59,-1097.83 1436.73,-1612.91 10.97,-11.31 29,-11.5 40.17,-0.69 11.28,10.97 11.58,28.89 0.69,40.25 -497.96,513.94 -980.32,1055.41 -1433.7,1609.33 l -21.94,10.5 z"
           id="path839" /><path
           class="fil2"
           d="m 8313.1,14213.95 -17.45,-5.97 c -12.44,-9.67 -14.61,-27.64 -4.89,-39.89 438.85,-558.61 904.06,-1108.14 1382.92,-1633.33 10.58,-11.56 28.61,-12.44 40.17,-1.86 11.59,10.58 12.36,28.61 1.78,40.2 -477.88,524.19 -942.2,1072.64 -1380.08,1630.05 l -22.44,10.81 z"
           id="path841" /><path
           class="fil2"
           d="m 8959.03,14225.61 -19.09,-7.33 c -11.67,-10.5 -12.56,-28.53 -1.97,-40.09 l 841.44,-925.76 c 10.58,-11.67 28.53,-12.44 40.09,-1.86 11.67,10.48 12.44,28.5 1.97,40.06 l -841.47,925.7 z"
           id="path843" /><path
           class="fil2"
           d="m 9678.49,14286.26 -17.14,-5.86 c -12.56,-9.42 -15,-27.25 -5.5,-39.7 104.06,-137.4 216.1,-271.64 332.92,-399.23 10.67,-11.5 28.61,-12.25 40.17,-1.81 11.56,10.61 12.36,28.64 1.67,40.2 -115.54,126.2 -226.39,259.14 -329.48,395.04 z"
           id="path845" /><path
           class="fil3"
           d="m 9877.14,14474.64 c -78.12,0 -155.24,-0.67 -231.11,-1.36 -146.79,-1.39 -297.14,-2.75 -450.32,-4.22 0,-0.11 0.11,-0.19 0.11,-0.31 -2.56,0.11 -5.11,0.2 -7.67,0.2 -480.69,-4.5 -989.35,-9.81 -1506.71,-15.2 -196.49,-4.08 -392.98,-7.06 -589.58,-7.06 -23.81,0 -47.73,0 -71.54,0.14 -13.42,-0.19 -26.76,-0.31 -40.17,-0.44 -1766.15,-18.7 -3592.33,-37.89 -4596.76,-38.95 -137.71,-0.11 -385.85,-76.2 -623.2,-308.06 33.7,-54.37 93.17,-94.01 177.85,-95.76 43.81,-0.78 87.62,-1.33 131.43,-1.94 0.78,6.09 3.44,11.95 8.14,16.64 l 20.09,8.36 20.09,-8.36 17.44,-17.42 c 118.68,-1.17 237.47,-1.67 356.26,-1.67 170.91,0 341.73,1 512.67,1.86 15.58,0.08 31.14,0.2 46.72,0.28 -30.17,35.09 -60.26,70.17 -90.26,105.4 -10.08,11.94 -8.72,29.78 3.25,40.06 l 18.42,6.75 21.67,-10 c 40.37,-47.42 80.95,-94.68 121.63,-141.79 130.62,0.58 261.16,1.14 391.7,1.14 122.4,0 244.91,-0.44 367.31,-1.75 l -102.4,117.9 c -10.31,11.89 -9.03,29.78 2.72,40.2 l 18.72,6.86 21.47,-9.8 135.63,-156.04 c 91.26,-1.25 182.6,-3.03 273.91,-5.39 150.24,7.14 300.39,11.47 450.74,13.94 -33.72,40.87 -67.34,81.84 -100.84,122.87 -9.92,12.17 -8.14,30 4,39.89 l 17.95,6.47 21.94,-10.39 c 43.11,-52.7 86.34,-105.35 129.65,-157.88 81.54,0.97 163.07,1.36 244.64,1.36 131.51,0 263.14,-1.09 394.65,-2.72 -36.17,43.73 -72.34,87.31 -108.4,131.04 -10,12 -8.22,29.97 3.83,39.94 l 18.11,6.61 21.98,-10.42 c 46.25,-56.06 92.7,-112.09 139.15,-168.27 98.29,-1.36 196.69,-3.06 295,-4.7 127.2,0.56 254.41,1.14 381.62,1.56 l -124.57,154.74 c -9.81,12.14 -7.83,30.09 4.31,39.89 l 17.83,6.36 22.17,-10.7 153.07,-190.1 c 53.62,0.08 107.12,0.19 160.74,0.19 175.8,0 351.62,-0.8 527.44,-2.75 l -158.46,184.24 c -10.31,11.86 -8.92,29.78 3.03,40.09 l 18.53,6.86 21.56,-9.89 191.21,-222.27 c 42.42,-0.61 84.87,-1.17 127.29,-1.97 182.3,4.31 364.59,9.14 546.86,14.42 -45.36,54.48 -90.54,109.26 -135.43,164.04 -10,12.17 -8.25,30.09 3.92,40 l 18.03,6.47 21.94,-10.5 c 54.2,-66.15 108.79,-132.21 163.77,-197.94 221.19,6.33 442.41,13.2 663.59,20.03 -35.09,44.11 -69.98,88.34 -104.76,132.62 -9.72,12.25 -7.56,30.23 4.89,39.89 l 17.45,5.97 22.44,-10.81 c 43.42,-55.22 87.01,-110.43 130.93,-165.41 95.15,2.94 190.33,5.89 285.47,8.72 91.26,1.39 182.49,1.89 273.72,1.89 10.11,0 20.19,0 30.28,0 l -117.98,129.85 c -10.58,11.56 -9.7,29.59 1.97,40.09 l 19.09,7.33 20.97,-9.28 152.99,-168.18 c 124.96,-0.5 249.91,-1.78 374.87,-2.94 101.73,-1 203.55,-1.97 305.39,-2.59 -54.11,65.01 -106.73,131.18 -157.4,198.07 -9.5,12.45 -7.06,30.28 5.5,39.7 l 17.14,5.86 22.64,-11.36 c 59.78,-78.79 122.21,-156.57 186.6,-232.63 33.31,-0.14 66.73,-0.2 100.07,-0.2 69.48,0 138.96,0.31 208.44,0.94 15.39,-0.58 30.67,-0.89 45.98,-0.89 108.57,0 215.3,15.33 319.59,42.17 66.93,80.15 138.88,145.74 216.58,197.77 54.98,36.76 113.01,66.06 172.49,87.81 -353.2,90.95 -723.07,104.76 -1073.72,104.76 z"
           id="path847" /><path
           class="fil3"
           d="m 1901.71,14427.91 c -70.09,-11.56 -118.79,-50.39 -146.63,-100.01 49.12,38.45 98.2,71.56 146.63,100.01 z"
           id="path849" /><path
           class="fil2"
           d="m 9613.9,14635.85 c -49.2,0 -98.59,-0.81 -147.88,-2.33 -9.61,-0.5 -19.31,-0.61 -29.11,-0.61 -6.78,0 -13.61,0 -20.39,0.11 -6.86,0.08 -13.61,0.08 -20.47,0.08 -56.84,0 -113.4,-4.19 -155.74,-47.42 -34.2,-32.11 -47.22,-74.78 -44.59,-116.62 153.18,1.47 303.53,2.83 450.32,4.22 75.87,0.7 152.99,1.36 231.11,1.36 350.65,0 720.52,-13.81 1073.72,-104.76 -59.48,-21.75 -117.51,-51.06 -172.49,-87.81 -77.7,-52.03 -149.65,-117.62 -216.58,-197.77 67.12,17.25 133.29,39.31 198.05,65.17 57.73,18.42 123.87,24.7 167.99,70.06 57.81,57.81 67.62,159.26 13.33,222.07 -24.11,36.09 -66.84,61.37 -110.37,63.59 -17.53,2.2 -28.7,3.25 -38.2,3.25 -20.2,0 -32.64,-4.5 -82.04,-11.75 l -15.59,-2.06 c -7.44,12.56 -16.36,24.61 -27.92,35.36 -68.61,71.43 -175.24,47.92 -264.41,59.98 -262.36,24.5 -525.22,45.87 -788.74,45.87 z m 1098.91,-138.88 z m -17.72,-2.44 v 0.11 l 15.09,2.06 c -4.72,-0.67 -9.7,-1.47 -15.09,-2.17 z m -5932.06,-17.42 c -941.81,-13.06 -1883.24,-42.98 -2824.97,-45.67 -12.64,-0.39 -24.78,-1.58 -36.34,-3.53 -48.42,-28.45 -97.51,-61.56 -146.63,-100.01 -39.09,-69.54 -37.03,-160.57 5.11,-228.52 237.35,231.86 485.49,307.95 623.2,308.06 1004.43,1.06 2830.61,20.25 4596.76,38.95 13.42,0.14 26.75,0.25 40.17,0.44 -98.09,0.36 -196.22,1.56 -294.31,3.83 -654.46,2.89 -1308.63,18.97 -1963,26.44 z m 4027.85,-1.19 c -6.97,0 -14.03,0 -20.97,-0.11 -362.81,-3.14 -725.63,-14.48 -1088.44,-22.06 517.36,5.39 1026.02,10.7 1506.71,15.2 -132.4,4.03 -264.81,6.97 -397.29,6.97 z"
           id="path851" /><path
           class="fil2"
           d="m 2097.7,14026.68 -20.09,-8.36 c -4.69,-4.69 -7.36,-10.56 -8.14,-16.64 21.94,-0.3 43.81,-0.58 65.76,-0.78 l -17.44,17.42 z"
           id="path853" /><path
           class="fil2"
           d="m 2982.29,14153.58 -18.42,-6.75 c -11.97,-10.28 -13.33,-28.11 -3.25,-40.06 30,-35.22 60.09,-70.31 90.26,-105.4 24.89,0.11 49.78,0.22 74.7,0.42 -40.67,47.11 -81.26,94.37 -121.63,141.79 l -21.67,10 z"
           id="path855" /><path
           class="fil2"
           d="m 3803.65,14166.13 -18.72,-6.86 c -11.75,-10.42 -13.03,-28.31 -2.72,-40.2 l 102.4,-117.9 c 25.39,-0.28 50.78,-0.58 76.15,-0.89 l -135.63,156.04 -21.47,9.8 z"
           id="path857" /><path
           class="fil2"
           d="m 4606.51,14178.08 -17.95,-6.47 c -12.14,-9.89 -13.92,-27.73 -4,-39.89 33.5,-41.03 67.12,-82.01 100.84,-122.87 24.2,0.36 48.5,0.67 72.7,0.97 -43.31,52.53 -86.54,105.18 -129.65,157.88 l -21.94,10.39 z"
           id="path859" /><path
           class="fil2"
           d="m 5310.94,14186.06 -18.11,-6.61 c -12.06,-9.97 -13.83,-27.94 -3.83,-39.94 36.06,-43.73 72.23,-87.31 108.4,-131.04 24.89,-0.3 49.78,-0.69 74.67,-1.08 -46.45,56.17 -92.9,112.2 -139.15,168.27 l -21.98,10.42 z"
           id="path861" /><path
           class="fil2"
           d="m 6046.26,14205.22 -17.83,-6.36 c -12.14,-9.81 -14.11,-27.75 -4.31,-39.89 l 124.57,-154.74 c 24.31,0.08 48.5,0.08 72.81,0.19 l -153.07,190.1 z"
           id="path863" /><path
           class="fil2"
           d="m 6772.78,14233.06 -18.53,-6.86 c -11.94,-10.31 -13.33,-28.22 -3.03,-40.09 l 158.46,-184.24 c 25.28,-0.28 50.56,-0.58 75.87,-0.97 l -191.21,222.27 z"
           id="path865" /><path
           class="fil2"
           d="m 7546.22,14223.86 -18.03,-6.47 c -12.17,-9.92 -13.92,-27.83 -3.92,-40 44.89,-54.78 90.07,-109.57 135.43,-164.04 24.11,0.69 48.12,1.39 72.23,2.08 -54.98,65.73 -109.57,131.79 -163.77,197.94 l -21.94,10.5 z"
           id="path867" /><path
           class="fil2"
           d="m 8313.1,14213.95 -17.45,-5.97 c -12.44,-9.67 -14.61,-27.64 -4.89,-39.89 34.78,-44.28 69.67,-88.51 104.76,-132.62 23.61,0.8 47.33,1.5 70.95,2.28 -43.92,54.98 -87.51,110.18 -130.93,165.41 l -22.44,10.81 z"
           id="path869" /><path
           class="fil2"
           d="m 8959.03,14225.61 -19.09,-7.33 c -11.67,-10.5 -12.56,-28.53 -1.97,-40.09 l 117.98,-129.85 c 25.7,-0.14 51.37,-0.14 77.04,-0.19 L 8980,14216.33 Z"
           id="path871" /><path
           class="fil2"
           d="m 9678.49,14286.26 -17.14,-5.86 c -12.56,-9.42 -15,-27.25 -5.5,-39.7 50.67,-66.89 103.29,-133.07 157.4,-198.07 24.78,-0.19 49.59,-0.25 74.48,-0.36 -64.39,76.06 -126.82,153.85 -186.6,232.63 z"
           id="path873" /><polygon
           class="fil4"
           points="14269.35,11786.71 14269.35,7638.52 15597.3,7638.52 13238.37,4130.09 10879.41,7638.52 12207.38,7638.52 12207.38,11786.71 "
           id="polygon875" /><path
           class="fil2"
           d="m 12292.72,11701.42 h 1891.38 v -4062.9 c 0,-47.15 38.11,-85.29 85.26,-85.29 h 1167.81 l -2198.8,-3270.38 -2198.8,3270.38 h 1167.89 c 47.06,0 85.26,38.14 85.26,85.29 z m 1976.64,170.55 h -2061.9 c -47.15,0 -85.26,-38.26 -85.26,-85.26 V 7723.78 h -1242.79 c -31.56,0 -60.45,-17.44 -75.26,-45.2 -14.81,-27.84 -13.03,-61.54 4.5,-87.7 l 2358.96,-3508.32 c 31.76,-47.15 109.76,-47.15 141.52,0 l 2358.96,3508.32 c 17.53,26.17 19.31,59.87 4.5,87.7 -14.81,27.75 -43.73,45.2 -75.28,45.2 h -1242.68 v 4062.93 c 0,47 -38.22,85.26 -85.26,85.26 z"
           id="path877" /><path
           class="fil2"
           d="m 4671.29,11080.66 c -47.06,0 -85.29,-38.2 -85.29,-85.26 V 7281.86 c 0,-47.03 38.22,-85.26 85.29,-85.26 47.14,0 85.26,38.22 85.26,85.26 v 3713.54 c 0,47.06 -38.11,85.26 -85.26,85.26 z"
           id="path879" /><path
           class="fil2"
           d="m 6414.47,11080.66 c -47.04,0 -85.26,-38.2 -85.26,-85.26 V 5597.59 c 0,-47.06 38.22,-85.29 85.26,-85.29 47.06,0 85.26,38.22 85.26,85.29 v 5397.81 c 0,47.06 -38.2,85.26 -85.26,85.26 z"
           id="path881" /><path
           class="fil2"
           d="m 8157.56,11080.66 c -47.04,0 -85.26,-38.2 -85.26,-85.26 V 6959.64 c 0,-47.15 38.22,-85.29 85.26,-85.29 47.14,0 85.26,38.14 85.26,85.29 v 4035.76 c 0,47.06 -38.11,85.26 -85.26,85.26 z"
           id="path883" /><path
           class="fil2"
           d="m 9900.76,11080.66 c -47.04,0 -85.26,-38.2 -85.26,-85.26 V 4736.8 c 0,-47.03 38.22,-85.26 85.26,-85.26 47.14,0 85.26,38.22 85.26,85.26 v 6258.6 c 0,47.06 -38.11,85.26 -85.26,85.26 z"
           id="path885" /><path
           class="fil3"
           d="m 12058,8034.25 c -17.06,0 -34.48,-2.47 -51.84,-7.75 -18.33,0.5 -50.76,0.78 -93.67,0.78 -222,0 -721.71,-8.22 -975.63,-40.09 -0.81,0 -1.58,0 -2.36,0 -168.46,0 -235.02,-209.91 -132.9,-313.89 0.78,1.75 1.67,3.53 2.56,5.28 14.81,27.75 43.7,45.2 75.26,45.2 h 1242.79 v 298.81 c -20.39,7.56 -42.03,11.67 -64.2,11.67 z"
           id="path887" /><path
           class="fil2"
           d="m 12122.2,8022.58 v -298.81 h -1242.79 c -31.56,0 -60.45,-17.44 -75.26,-45.2 -0.89,-1.75 -1.78,-3.53 -2.56,-5.28 16.67,-16.94 37.84,-31.06 63.81,-41.06 25.09,-11.17 51.95,-14.89 79.56,-14.89 28.22,0 57.26,3.92 86.34,7.72 29.22,3.92 58.31,7.83 86.54,7.83 6.78,0 13.53,-0.19 20.2,-0.78 196.99,8.14 394.26,11.47 591.56,11.47 78.59,0 157.19,-0.5 235.8,-1.47 7.44,-0.5 14.89,-0.58 22.33,-0.58 5.58,0 11.17,0.08 16.75,0.08 5.69,0.11 11.28,0.19 16.94,0.19 12.36,0 24.7,-0.39 37.06,-1.94 0.89,0 1.75,0 2.56,0 85.73,0 165.43,61.84 187.27,144.54 31.67,101.46 -34.28,204.24 -126.13,238.16 z"
           id="path889" /><path
           class="fil3"
           d="m 12233.13,12155.19 c -135.13,0 -208.35,-181.1 -108.57,-274.22 10,-10.56 20.98,-18.78 32.61,-25.39 14.11,10.31 31.48,16.39 50.28,16.39 h 330.87 c 0.31,0.39 0.58,0.69 0.89,0.97 16.83,15.81 28.81,35.09 36.25,56.06 -9.42,54.51 -19.61,108.87 -30.59,163.1 -14.89,16.72 -33.89,29.98 -56.64,37.7 -78.29,27.75 -167.88,13.75 -250.11,25.31 -1.67,0.08 -3.33,0.08 -5,0.08 z"
           id="path891" /><path
           class="fil2"
           d="m 12544.88,12092.1 c 10.97,-54.22 21.17,-108.59 30.59,-163.1 19.39,54.59 7.64,120.26 -30.59,163.1 z"
           id="path893" /><path
           class="fil2"
           d="m 12538.32,11871.97 h -330.87 c -18.81,0 -36.17,-6.09 -50.28,-16.39 58.42,-32.61 134.48,-20.56 200.33,-26.64 16.47,-1.44 33.14,-2.56 49.7,-2.56 48.12,0 95.07,9.22 131.13,45.59 z"
           id="path895" /></g></g></g><path
     style="fill:#750000;fill-opacity:1;stroke:none;stroke-width:5.03146px;stroke-linecap:butt;stroke-linejoin:miter;stroke-opacity:1"
     d="M 59.721277,386.47489 C -8.572963,349.24425 -3.2993129,255.47344 76.190797,235.87778 97.99852,230.5018 379.48204,175.88549 398.32968,171.53247 c 112.8255,-26.05812 25.43083,-60.02709 16.68067,-58.81953 92.5541,18.99424 133.13376,153.35872 -13.28366,177.73965 -17.02879,2.83558 -144.11163,23.98794 -258.6786,46.16333 -114.566973,22.17539 -88.734373,42.73378 -83.326813,49.85897 z"
     id="path265" /></svg>
